M48
;GenerationSoftware,Autodesk,EAGLE,9.5.1*%
;CreationDate,2021-08-14T04:12:05Z*%
FMAT,2
ICI,OFF
METRIC,TZ,000.000
T7C0.600
T6C0.800
T5C0.813
T4C1.016
T3C1.200
T2C1.300
T1C3.000
%
G90
M71
T1
X57480Y24130
X3480Y24130
T2
X6350Y33500
X6350Y30000
X54610Y30000
X54610Y33500
X54610Y38466
X54610Y41966
X54610Y45466
X54610Y48966
X54610Y52466
X6350Y52466
X6350Y48966
X6350Y45466
X6350Y41966
X6350Y38466
T3
X47980Y3810
X51480Y3810
X44480Y3810
X40980Y3810
X37480Y3810
X33980Y3810
X30480Y3810
X26980Y3810
X23480Y3810
X19980Y3810
X16480Y3810
X12980Y3810
X9480Y3810
T4
X35560Y40640
X33020Y40640
X30480Y40640
X27940Y40640
X25400Y40640
T5
X43688Y52324
X43688Y49784
X43688Y47244
T6
X13462Y49784
X21082Y49784
X21082Y52324
X13462Y47244
X21082Y47244
X13462Y52324
T7
X30607Y48260
X30480Y45085
X27940Y45085
X4318Y53848
X32258Y28956
X33782Y30480
X44450Y30480
X41402Y30480
X35052Y43688
X32512Y47244
X22860Y43053
X27432Y47244
X42926Y40132
X28956Y55626
X39751Y40640
X37465Y52959
X32512Y48768
X24130Y47244
X12065Y43180
X41402Y28956
X41402Y32004
X49276Y34290
X55626Y9017
X11176Y27178
X12065Y33909
X35560Y31623
X29210Y31623
X19693Y33909
M30