G04 EAGLE Gerber RS-274X export*
G75*
%MOMM*%
%FSLAX34Y34*%
%LPD*%
%INBottom Copper*%
%IPPOS*%
%AMOC8*
5,1,8,0,0,1.08239X$1,22.5*%
G01*
%ADD10R,1.308000X1.308000*%
%ADD11C,1.524000*%
%ADD12R,1.800000X1.800000*%
%ADD13C,1.320800*%
%ADD14R,1.950000X1.950000*%
%ADD15C,0.609600*%
%ADD16C,1.006400*%
%ADD17C,0.304800*%
%ADD18C,0.254000*%

G36*
X596107Y68087D02*
X596107Y68087D01*
X596278Y68092D01*
X596353Y68107D01*
X596429Y68113D01*
X596594Y68154D01*
X596762Y68187D01*
X596834Y68213D01*
X596907Y68231D01*
X597064Y68299D01*
X597225Y68358D01*
X597291Y68396D01*
X597361Y68426D01*
X597505Y68518D01*
X597654Y68602D01*
X597713Y68650D01*
X597777Y68691D01*
X597904Y68805D01*
X598037Y68912D01*
X598088Y68969D01*
X598145Y69020D01*
X598252Y69153D01*
X598366Y69280D01*
X598407Y69344D01*
X598455Y69404D01*
X598539Y69552D01*
X598631Y69696D01*
X598653Y69752D01*
X598699Y69832D01*
X598870Y70295D01*
X598874Y70317D01*
X598880Y70331D01*
X599231Y71641D01*
X599320Y72126D01*
X599321Y72189D01*
X599328Y72230D01*
X599433Y73822D01*
X599431Y73946D01*
X599439Y74021D01*
X599439Y222998D01*
X599436Y223036D01*
X599438Y223074D01*
X599416Y223282D01*
X599399Y223490D01*
X599390Y223527D01*
X599386Y223565D01*
X599331Y223766D01*
X599281Y223968D01*
X599266Y224003D01*
X599255Y224040D01*
X599168Y224230D01*
X599086Y224422D01*
X599066Y224454D01*
X599050Y224489D01*
X598933Y224662D01*
X598821Y224838D01*
X598796Y224866D01*
X598774Y224898D01*
X598631Y225050D01*
X598492Y225206D01*
X598463Y225230D01*
X598437Y225258D01*
X598270Y225385D01*
X598108Y225516D01*
X598076Y225534D01*
X598045Y225558D01*
X597861Y225657D01*
X597680Y225760D01*
X597644Y225773D01*
X597610Y225791D01*
X597413Y225859D01*
X597217Y225931D01*
X597180Y225939D01*
X597144Y225951D01*
X596937Y225986D01*
X596733Y226026D01*
X596695Y226027D01*
X596657Y226034D01*
X596448Y226035D01*
X596240Y226041D01*
X596202Y226036D01*
X596164Y226037D01*
X595957Y226004D01*
X595751Y225977D01*
X595714Y225966D01*
X595677Y225960D01*
X595478Y225895D01*
X595279Y225834D01*
X595244Y225818D01*
X595208Y225806D01*
X595023Y225709D01*
X594835Y225618D01*
X594804Y225596D01*
X594770Y225578D01*
X594698Y225520D01*
X594433Y225332D01*
X594311Y225211D01*
X594237Y225153D01*
X590251Y221166D01*
X584514Y217854D01*
X578115Y216139D01*
X571489Y216139D01*
X565090Y217854D01*
X559353Y221166D01*
X554668Y225851D01*
X551356Y231588D01*
X549641Y237987D01*
X549641Y244613D01*
X551356Y251012D01*
X554668Y256749D01*
X559353Y261434D01*
X565090Y264746D01*
X571489Y266461D01*
X578115Y266461D01*
X584514Y264746D01*
X590251Y261434D01*
X594237Y257447D01*
X594266Y257423D01*
X594292Y257394D01*
X594454Y257263D01*
X594613Y257128D01*
X594646Y257108D01*
X594676Y257084D01*
X594857Y256981D01*
X595036Y256873D01*
X595071Y256859D01*
X595104Y256840D01*
X595300Y256768D01*
X595494Y256690D01*
X595531Y256682D01*
X595567Y256669D01*
X595772Y256629D01*
X595976Y256583D01*
X596014Y256581D01*
X596051Y256574D01*
X596259Y256568D01*
X596468Y256556D01*
X596506Y256560D01*
X596544Y256559D01*
X596751Y256586D01*
X596959Y256608D01*
X596995Y256618D01*
X597033Y256623D01*
X597233Y256683D01*
X597434Y256739D01*
X597469Y256755D01*
X597506Y256766D01*
X597693Y256857D01*
X597883Y256944D01*
X597914Y256966D01*
X597949Y256982D01*
X598119Y257103D01*
X598292Y257220D01*
X598320Y257246D01*
X598351Y257268D01*
X598499Y257414D01*
X598652Y257558D01*
X598675Y257588D01*
X598702Y257615D01*
X598825Y257783D01*
X598952Y257949D01*
X598970Y257983D01*
X598992Y258013D01*
X599086Y258199D01*
X599185Y258384D01*
X599198Y258420D01*
X599215Y258454D01*
X599277Y258653D01*
X599345Y258850D01*
X599351Y258888D01*
X599363Y258924D01*
X599373Y259017D01*
X599428Y259337D01*
X599429Y259509D01*
X599439Y259602D01*
X599439Y350520D01*
X599433Y350596D01*
X599435Y350672D01*
X599413Y350841D01*
X599399Y351012D01*
X599381Y351086D01*
X599371Y351161D01*
X599322Y351325D01*
X599281Y351491D01*
X599251Y351560D01*
X599229Y351634D01*
X599153Y351787D01*
X599086Y351944D01*
X599045Y352008D01*
X599012Y352077D01*
X598913Y352216D01*
X598821Y352360D01*
X598770Y352417D01*
X598726Y352479D01*
X598606Y352600D01*
X598492Y352728D01*
X598433Y352776D01*
X598379Y352830D01*
X598241Y352931D01*
X598108Y353038D01*
X598042Y353075D01*
X597981Y353120D01*
X597828Y353197D01*
X597680Y353282D01*
X597608Y353308D01*
X597540Y353343D01*
X597377Y353394D01*
X597217Y353453D01*
X597142Y353468D01*
X597070Y353491D01*
X596965Y353503D01*
X596733Y353548D01*
X596497Y353555D01*
X596392Y353567D01*
X13208Y353567D01*
X13132Y353561D01*
X13056Y353563D01*
X12887Y353541D01*
X12716Y353527D01*
X12642Y353509D01*
X12567Y353499D01*
X12403Y353450D01*
X12237Y353409D01*
X12168Y353379D01*
X12094Y353357D01*
X11941Y353281D01*
X11784Y353214D01*
X11720Y353173D01*
X11651Y353140D01*
X11512Y353041D01*
X11368Y352949D01*
X11311Y352898D01*
X11249Y352854D01*
X11128Y352734D01*
X11000Y352620D01*
X10952Y352561D01*
X10898Y352507D01*
X10797Y352369D01*
X10690Y352236D01*
X10653Y352170D01*
X10608Y352109D01*
X10531Y351956D01*
X10446Y351808D01*
X10420Y351736D01*
X10385Y351668D01*
X10334Y351505D01*
X10275Y351345D01*
X10260Y351270D01*
X10237Y351198D01*
X10225Y351093D01*
X10180Y350861D01*
X10173Y350625D01*
X10161Y350520D01*
X10161Y259602D01*
X10164Y259564D01*
X10162Y259526D01*
X10184Y259318D01*
X10201Y259110D01*
X10210Y259073D01*
X10214Y259035D01*
X10269Y258834D01*
X10319Y258632D01*
X10334Y258597D01*
X10345Y258560D01*
X10432Y258370D01*
X10514Y258178D01*
X10534Y258146D01*
X10550Y258111D01*
X10667Y257938D01*
X10779Y257762D01*
X10804Y257734D01*
X10826Y257702D01*
X10969Y257550D01*
X11108Y257394D01*
X11137Y257370D01*
X11163Y257342D01*
X11330Y257215D01*
X11492Y257084D01*
X11524Y257066D01*
X11555Y257042D01*
X11739Y256943D01*
X11920Y256840D01*
X11956Y256827D01*
X11990Y256809D01*
X12187Y256741D01*
X12383Y256669D01*
X12420Y256661D01*
X12456Y256649D01*
X12663Y256614D01*
X12867Y256574D01*
X12905Y256573D01*
X12943Y256566D01*
X13152Y256565D01*
X13360Y256559D01*
X13398Y256564D01*
X13436Y256563D01*
X13643Y256596D01*
X13849Y256623D01*
X13886Y256634D01*
X13923Y256640D01*
X14122Y256705D01*
X14321Y256766D01*
X14356Y256782D01*
X14392Y256794D01*
X14577Y256891D01*
X14765Y256982D01*
X14796Y257004D01*
X14830Y257022D01*
X14902Y257080D01*
X15167Y257268D01*
X15289Y257389D01*
X15363Y257447D01*
X19349Y261434D01*
X25086Y264746D01*
X31485Y266461D01*
X38111Y266461D01*
X44510Y264746D01*
X50247Y261434D01*
X54932Y256749D01*
X58244Y251012D01*
X59959Y244613D01*
X59959Y237987D01*
X58244Y231588D01*
X54932Y225851D01*
X50247Y221166D01*
X44510Y217854D01*
X38111Y216139D01*
X31485Y216139D01*
X25086Y217854D01*
X19349Y221166D01*
X15363Y225153D01*
X15334Y225177D01*
X15308Y225206D01*
X15146Y225337D01*
X14987Y225472D01*
X14954Y225492D01*
X14924Y225516D01*
X14743Y225619D01*
X14564Y225727D01*
X14529Y225741D01*
X14496Y225760D01*
X14300Y225832D01*
X14106Y225910D01*
X14069Y225918D01*
X14033Y225931D01*
X13828Y225971D01*
X13624Y226017D01*
X13586Y226019D01*
X13549Y226026D01*
X13341Y226032D01*
X13132Y226044D01*
X13094Y226040D01*
X13056Y226041D01*
X12849Y226014D01*
X12641Y225992D01*
X12605Y225982D01*
X12567Y225977D01*
X12367Y225917D01*
X12166Y225861D01*
X12131Y225845D01*
X12094Y225834D01*
X11907Y225743D01*
X11717Y225656D01*
X11686Y225634D01*
X11651Y225618D01*
X11481Y225497D01*
X11308Y225380D01*
X11280Y225354D01*
X11249Y225332D01*
X11101Y225186D01*
X10948Y225042D01*
X10925Y225012D01*
X10898Y224985D01*
X10775Y224817D01*
X10648Y224651D01*
X10630Y224617D01*
X10608Y224587D01*
X10514Y224401D01*
X10415Y224216D01*
X10402Y224180D01*
X10385Y224146D01*
X10323Y223947D01*
X10255Y223750D01*
X10249Y223712D01*
X10237Y223676D01*
X10227Y223583D01*
X10172Y223263D01*
X10171Y223091D01*
X10161Y222998D01*
X10161Y74021D01*
X10171Y73897D01*
X10167Y73822D01*
X10272Y72230D01*
X10344Y71742D01*
X10363Y71683D01*
X10369Y71641D01*
X10720Y70331D01*
X10777Y70170D01*
X10827Y70007D01*
X10860Y69938D01*
X10886Y69867D01*
X10968Y69717D01*
X11044Y69563D01*
X11087Y69501D01*
X11124Y69435D01*
X11230Y69301D01*
X11329Y69161D01*
X11382Y69107D01*
X11429Y69047D01*
X11555Y68932D01*
X11676Y68810D01*
X11737Y68765D01*
X11793Y68714D01*
X11936Y68620D01*
X12075Y68520D01*
X12142Y68485D01*
X12206Y68444D01*
X12362Y68374D01*
X12515Y68297D01*
X12587Y68275D01*
X12657Y68244D01*
X12822Y68201D01*
X12985Y68149D01*
X13045Y68142D01*
X13134Y68119D01*
X13625Y68073D01*
X13647Y68075D01*
X13663Y68073D01*
X595937Y68073D01*
X596107Y68087D01*
G37*
G36*
X241098Y393198D02*
X241098Y393198D01*
X241167Y393196D01*
X241344Y393218D01*
X241521Y393233D01*
X241588Y393249D01*
X241656Y393258D01*
X241827Y393308D01*
X242000Y393351D01*
X242063Y393379D01*
X242129Y393398D01*
X242290Y393476D01*
X242454Y393546D01*
X242511Y393583D01*
X242573Y393613D01*
X242719Y393715D01*
X242870Y393811D01*
X242921Y393857D01*
X242977Y393896D01*
X243105Y394021D01*
X243238Y394140D01*
X243281Y394193D01*
X243330Y394241D01*
X243436Y394385D01*
X243547Y394524D01*
X243581Y394583D01*
X243622Y394638D01*
X243703Y394797D01*
X243791Y394952D01*
X243815Y395017D01*
X243847Y395078D01*
X243901Y395248D01*
X243963Y395415D01*
X243976Y395482D01*
X243997Y395547D01*
X244024Y395724D01*
X244058Y395899D01*
X244060Y395967D01*
X244070Y396035D01*
X244065Y396141D01*
X244073Y396392D01*
X244044Y396613D01*
X244039Y396717D01*
X243839Y397980D01*
X243839Y403353D01*
X254000Y403353D01*
X254076Y403359D01*
X254152Y403356D01*
X254321Y403379D01*
X254491Y403393D01*
X254565Y403411D01*
X254641Y403421D01*
X254805Y403470D01*
X254970Y403511D01*
X255040Y403541D01*
X255113Y403563D01*
X255267Y403638D01*
X255424Y403706D01*
X255488Y403747D01*
X255556Y403780D01*
X255696Y403879D01*
X255840Y403971D01*
X255896Y404022D01*
X255959Y404066D01*
X256080Y404186D01*
X256208Y404300D01*
X256256Y404359D01*
X256310Y404412D01*
X256310Y404413D01*
X256411Y404551D01*
X256518Y404684D01*
X256556Y404750D01*
X256600Y404812D01*
X256677Y404964D01*
X256762Y405113D01*
X256788Y405184D01*
X256823Y405252D01*
X256874Y405415D01*
X256934Y405575D01*
X256948Y405650D01*
X256971Y405723D01*
X256983Y405827D01*
X257028Y406059D01*
X257036Y406295D01*
X257047Y406400D01*
X257047Y423713D01*
X257900Y423436D01*
X259325Y422710D01*
X260619Y421770D01*
X261750Y420639D01*
X262690Y419345D01*
X263416Y417920D01*
X263937Y416317D01*
X263949Y416252D01*
X263981Y416160D01*
X264004Y416066D01*
X264062Y415928D01*
X264112Y415786D01*
X264158Y415701D01*
X264196Y415612D01*
X264276Y415485D01*
X264348Y415353D01*
X264407Y415276D01*
X264459Y415195D01*
X264558Y415082D01*
X264651Y414963D01*
X264721Y414897D01*
X264786Y414825D01*
X264902Y414730D01*
X265012Y414628D01*
X265093Y414574D01*
X265168Y414513D01*
X265298Y414438D01*
X265423Y414355D01*
X265512Y414315D01*
X265595Y414267D01*
X265736Y414214D01*
X265873Y414152D01*
X265966Y414127D01*
X266057Y414093D01*
X266204Y414063D01*
X266350Y414024D01*
X266446Y414015D01*
X266541Y413996D01*
X266691Y413990D01*
X266840Y413975D01*
X266937Y413981D01*
X267034Y413978D01*
X267183Y413997D01*
X267333Y414006D01*
X267427Y414028D01*
X267523Y414040D01*
X267667Y414082D01*
X267814Y414116D01*
X267903Y414152D01*
X267996Y414180D01*
X268132Y414245D01*
X268271Y414302D01*
X268353Y414352D01*
X268440Y414394D01*
X268563Y414481D01*
X268692Y414559D01*
X268765Y414622D01*
X268844Y414678D01*
X268952Y414783D01*
X269065Y414881D01*
X269128Y414955D01*
X269197Y415023D01*
X269286Y415144D01*
X269383Y415259D01*
X269418Y415323D01*
X269489Y415420D01*
X269708Y415848D01*
X269712Y415856D01*
X271217Y419488D01*
X273427Y421698D01*
X273501Y421785D01*
X273582Y421865D01*
X273660Y421972D01*
X273746Y422074D01*
X273805Y422172D01*
X273872Y422264D01*
X273932Y422382D01*
X274001Y422496D01*
X274043Y422602D01*
X274095Y422704D01*
X274135Y422831D01*
X274184Y422954D01*
X274209Y423066D01*
X274243Y423175D01*
X274253Y423268D01*
X274291Y423436D01*
X274309Y423760D01*
X274319Y423852D01*
X274319Y444677D01*
X274310Y444791D01*
X274311Y444905D01*
X274290Y445037D01*
X274279Y445169D01*
X274252Y445280D01*
X274234Y445393D01*
X274193Y445519D01*
X274161Y445648D01*
X274116Y445753D01*
X274080Y445861D01*
X274018Y445979D01*
X273966Y446101D01*
X273905Y446198D01*
X273852Y446299D01*
X273793Y446373D01*
X273701Y446517D01*
X273485Y446760D01*
X273427Y446832D01*
X273411Y446848D01*
X272335Y449445D01*
X272335Y452255D01*
X273411Y454852D01*
X275398Y456839D01*
X277995Y457915D01*
X280805Y457915D01*
X283402Y456839D01*
X285389Y454852D01*
X286465Y452255D01*
X286465Y449445D01*
X285389Y446848D01*
X285373Y446832D01*
X285299Y446745D01*
X285218Y446665D01*
X285140Y446558D01*
X285054Y446456D01*
X284995Y446358D01*
X284928Y446266D01*
X284868Y446148D01*
X284799Y446034D01*
X284757Y445928D01*
X284705Y445826D01*
X284665Y445699D01*
X284616Y445576D01*
X284591Y445464D01*
X284557Y445355D01*
X284547Y445262D01*
X284509Y445094D01*
X284491Y444770D01*
X284481Y444677D01*
X284481Y423852D01*
X284490Y423739D01*
X284489Y423624D01*
X284510Y423493D01*
X284521Y423361D01*
X284548Y423250D01*
X284566Y423137D01*
X284607Y423011D01*
X284639Y422882D01*
X284684Y422777D01*
X284720Y422669D01*
X284782Y422551D01*
X284834Y422429D01*
X284895Y422332D01*
X284948Y422231D01*
X285007Y422157D01*
X285099Y422012D01*
X285315Y421771D01*
X285373Y421698D01*
X287583Y419488D01*
X289053Y415940D01*
X289053Y396254D01*
X289054Y396240D01*
X289053Y396227D01*
X289055Y396208D01*
X289051Y396088D01*
X289059Y396026D01*
X289060Y395963D01*
X289091Y395782D01*
X289093Y395762D01*
X289095Y395753D01*
X289097Y395736D01*
X289097Y395735D01*
X289115Y395599D01*
X289133Y395539D01*
X289144Y395477D01*
X289204Y395303D01*
X289258Y395127D01*
X289285Y395070D01*
X289306Y395011D01*
X289393Y394849D01*
X289475Y394683D01*
X289511Y394632D01*
X289541Y394577D01*
X289653Y394432D01*
X289760Y394281D01*
X289804Y394237D01*
X289842Y394187D01*
X289977Y394061D01*
X290107Y393930D01*
X290157Y393893D01*
X290203Y393851D01*
X290357Y393748D01*
X290506Y393640D01*
X290561Y393611D01*
X290614Y393577D01*
X290782Y393500D01*
X290946Y393417D01*
X291006Y393399D01*
X291063Y393373D01*
X291241Y393325D01*
X291416Y393269D01*
X291462Y393264D01*
X291491Y393255D01*
X291500Y393254D01*
X291539Y393244D01*
X291825Y393214D01*
X291981Y393195D01*
X292003Y393196D01*
X292030Y393193D01*
X292068Y393196D01*
X292094Y393193D01*
X292106Y393193D01*
X292290Y393208D01*
X292474Y393215D01*
X292508Y393222D01*
X292522Y393223D01*
X292547Y393229D01*
X292597Y393233D01*
X292776Y393277D01*
X292957Y393314D01*
X293002Y393331D01*
X293003Y393332D01*
X293011Y393335D01*
X293016Y393336D01*
X293076Y393351D01*
X293246Y393424D01*
X293418Y393490D01*
X293472Y393521D01*
X293530Y393546D01*
X293685Y393645D01*
X293845Y393738D01*
X293893Y393777D01*
X293946Y393811D01*
X294083Y393934D01*
X294226Y394051D01*
X294267Y394098D01*
X294314Y394140D01*
X294429Y394283D01*
X294551Y394422D01*
X294584Y394475D01*
X294624Y394524D01*
X294715Y394684D01*
X294812Y394840D01*
X294837Y394898D01*
X294868Y394952D01*
X294932Y395125D01*
X295003Y395295D01*
X295017Y395356D01*
X295039Y395415D01*
X295070Y395574D01*
X295071Y395576D01*
X295071Y395579D01*
X295075Y395596D01*
X295117Y395775D01*
X295122Y395838D01*
X295134Y395899D01*
X295138Y396026D01*
X295140Y396037D01*
X295139Y396070D01*
X295140Y396083D01*
X295153Y396267D01*
X295147Y396330D01*
X295149Y396392D01*
X295147Y396407D01*
X295147Y415940D01*
X296617Y419488D01*
X298827Y421698D01*
X298901Y421785D01*
X298982Y421865D01*
X299060Y421972D01*
X299146Y422074D01*
X299205Y422172D01*
X299272Y422264D01*
X299332Y422382D01*
X299401Y422496D01*
X299443Y422602D01*
X299495Y422704D01*
X299535Y422831D01*
X299584Y422954D01*
X299609Y423066D01*
X299643Y423175D01*
X299653Y423268D01*
X299691Y423436D01*
X299709Y423760D01*
X299719Y423852D01*
X299719Y444677D01*
X299710Y444791D01*
X299711Y444905D01*
X299690Y445037D01*
X299679Y445169D01*
X299652Y445280D01*
X299634Y445393D01*
X299593Y445519D01*
X299561Y445648D01*
X299516Y445753D01*
X299480Y445861D01*
X299418Y445979D01*
X299366Y446101D01*
X299305Y446198D01*
X299252Y446299D01*
X299193Y446373D01*
X299101Y446517D01*
X298885Y446760D01*
X298827Y446832D01*
X298811Y446848D01*
X297735Y449445D01*
X297735Y452255D01*
X298811Y454852D01*
X300798Y456839D01*
X301773Y457243D01*
X301934Y457325D01*
X302098Y457401D01*
X302153Y457438D01*
X302212Y457468D01*
X302357Y457575D01*
X302507Y457676D01*
X302556Y457722D01*
X302609Y457761D01*
X302735Y457890D01*
X302867Y458014D01*
X302907Y458067D01*
X302954Y458114D01*
X303057Y458262D01*
X303167Y458405D01*
X303198Y458464D01*
X303236Y458518D01*
X303315Y458681D01*
X303400Y458840D01*
X303422Y458903D01*
X303451Y458963D01*
X303502Y459136D01*
X303560Y459307D01*
X303571Y459372D01*
X303590Y459436D01*
X303612Y459615D01*
X303643Y459793D01*
X303643Y459860D01*
X303651Y459926D01*
X303645Y460105D01*
X303646Y460286D01*
X303635Y460352D01*
X303633Y460419D01*
X303597Y460595D01*
X303569Y460774D01*
X303548Y460837D01*
X303535Y460902D01*
X303471Y461071D01*
X303415Y461242D01*
X303384Y461301D01*
X303361Y461364D01*
X303270Y461520D01*
X303187Y461680D01*
X303154Y461721D01*
X303114Y461791D01*
X302801Y462173D01*
X302776Y462195D01*
X302762Y462213D01*
X301763Y463212D01*
X300989Y465079D01*
X300989Y476427D01*
X300980Y476541D01*
X300981Y476655D01*
X300960Y476787D01*
X300949Y476919D01*
X300922Y477030D01*
X300904Y477143D01*
X300863Y477269D01*
X300831Y477398D01*
X300786Y477503D01*
X300750Y477611D01*
X300688Y477729D01*
X300636Y477851D01*
X300575Y477948D01*
X300522Y478049D01*
X300463Y478123D01*
X300371Y478267D01*
X300155Y478510D01*
X300097Y478582D01*
X300081Y478598D01*
X299005Y481195D01*
X299005Y484005D01*
X300081Y486602D01*
X302068Y488589D01*
X304665Y489665D01*
X307475Y489665D01*
X310072Y488589D01*
X312059Y486602D01*
X313135Y484005D01*
X313135Y481195D01*
X312059Y478598D01*
X312043Y478582D01*
X311969Y478495D01*
X311888Y478415D01*
X311810Y478308D01*
X311724Y478206D01*
X311665Y478108D01*
X311598Y478016D01*
X311538Y477898D01*
X311469Y477784D01*
X311427Y477678D01*
X311375Y477576D01*
X311335Y477449D01*
X311286Y477326D01*
X311261Y477214D01*
X311227Y477105D01*
X311217Y477012D01*
X311179Y476844D01*
X311161Y476520D01*
X311151Y476427D01*
X311151Y469457D01*
X311160Y469343D01*
X311159Y469229D01*
X311180Y469097D01*
X311191Y468965D01*
X311218Y468854D01*
X311236Y468741D01*
X311277Y468615D01*
X311309Y468486D01*
X311354Y468381D01*
X311390Y468273D01*
X311451Y468155D01*
X311504Y468033D01*
X311565Y467936D01*
X311618Y467835D01*
X311677Y467762D01*
X311769Y467617D01*
X311936Y467429D01*
X311947Y467415D01*
X311974Y467387D01*
X311985Y467375D01*
X312043Y467302D01*
X314113Y465232D01*
X314222Y465140D01*
X314324Y465040D01*
X314410Y464980D01*
X314489Y464912D01*
X314611Y464839D01*
X314728Y464757D01*
X314822Y464712D01*
X314912Y464658D01*
X315044Y464605D01*
X315173Y464543D01*
X315273Y464514D01*
X315370Y464475D01*
X315509Y464444D01*
X315646Y464404D01*
X315749Y464391D01*
X315852Y464368D01*
X315994Y464360D01*
X316135Y464342D01*
X316239Y464346D01*
X316344Y464340D01*
X316486Y464355D01*
X316628Y464361D01*
X316731Y464381D01*
X316835Y464393D01*
X316972Y464430D01*
X317112Y464459D01*
X317210Y464496D01*
X317310Y464523D01*
X317440Y464583D01*
X317573Y464633D01*
X317664Y464685D01*
X317759Y464729D01*
X317877Y464808D01*
X318000Y464880D01*
X318081Y464946D01*
X318168Y465004D01*
X318272Y465102D01*
X318382Y465192D01*
X318451Y465271D01*
X318528Y465342D01*
X318614Y465455D01*
X318709Y465562D01*
X318764Y465651D01*
X318828Y465734D01*
X318895Y465859D01*
X318971Y465980D01*
X319012Y466076D01*
X319061Y466168D01*
X319107Y466303D01*
X319163Y466434D01*
X319187Y466536D01*
X319221Y466635D01*
X319245Y466775D01*
X319278Y466914D01*
X319286Y467018D01*
X319304Y467121D01*
X319305Y467264D01*
X319315Y467406D01*
X319306Y467510D01*
X319307Y467615D01*
X319285Y467756D01*
X319272Y467897D01*
X319250Y467973D01*
X319230Y468102D01*
X319094Y468514D01*
X319083Y468553D01*
X318055Y471035D01*
X318055Y473845D01*
X319131Y476442D01*
X321118Y478429D01*
X323715Y479505D01*
X326525Y479505D01*
X329122Y478429D01*
X331109Y476442D01*
X332185Y473845D01*
X332185Y471035D01*
X331109Y468438D01*
X329705Y467034D01*
X329656Y466976D01*
X329600Y466924D01*
X329496Y466788D01*
X329386Y466658D01*
X329346Y466593D01*
X329300Y466533D01*
X329220Y466382D01*
X329131Y466236D01*
X329103Y466165D01*
X329067Y466098D01*
X329011Y465936D01*
X328948Y465778D01*
X328932Y465703D01*
X328907Y465631D01*
X328878Y465462D01*
X328841Y465296D01*
X328837Y465220D01*
X328824Y465145D01*
X328823Y464974D01*
X328814Y464803D01*
X328822Y464728D01*
X328821Y464651D01*
X328848Y464482D01*
X328866Y464313D01*
X328886Y464239D01*
X328898Y464164D01*
X328951Y464002D01*
X328997Y463837D01*
X329028Y463768D01*
X329052Y463695D01*
X329131Y463544D01*
X329202Y463389D01*
X329245Y463325D01*
X329280Y463258D01*
X329346Y463176D01*
X329478Y462979D01*
X329640Y462807D01*
X329705Y462725D01*
X347593Y444837D01*
X347680Y444763D01*
X347760Y444682D01*
X347867Y444604D01*
X347969Y444518D01*
X348066Y444459D01*
X348159Y444392D01*
X348277Y444332D01*
X348391Y444263D01*
X348497Y444221D01*
X348599Y444169D01*
X348726Y444129D01*
X348849Y444080D01*
X348961Y444055D01*
X349070Y444021D01*
X349163Y444011D01*
X349331Y443973D01*
X349655Y443955D01*
X349747Y443945D01*
X351925Y443945D01*
X354522Y442869D01*
X356509Y440882D01*
X357585Y438285D01*
X357585Y435475D01*
X356509Y432878D01*
X354522Y430891D01*
X351925Y429815D01*
X349115Y429815D01*
X346518Y430891D01*
X344531Y432878D01*
X343455Y435475D01*
X343455Y437653D01*
X343446Y437766D01*
X343447Y437881D01*
X343426Y438012D01*
X343415Y438144D01*
X343388Y438255D01*
X343370Y438368D01*
X343329Y438494D01*
X343297Y438623D01*
X343252Y438728D01*
X343216Y438836D01*
X343155Y438954D01*
X343102Y439076D01*
X343041Y439173D01*
X342988Y439274D01*
X342929Y439348D01*
X342837Y439493D01*
X342621Y439735D01*
X342563Y439807D01*
X340483Y441887D01*
X340454Y441912D01*
X340428Y441940D01*
X340266Y442071D01*
X340107Y442207D01*
X340074Y442227D01*
X340044Y442250D01*
X339863Y442354D01*
X339684Y442461D01*
X339649Y442476D01*
X339616Y442494D01*
X339420Y442567D01*
X339226Y442644D01*
X339189Y442653D01*
X339153Y442666D01*
X338949Y442706D01*
X338745Y442751D01*
X338706Y442753D01*
X338669Y442761D01*
X338461Y442767D01*
X338252Y442779D01*
X338214Y442775D01*
X338176Y442776D01*
X337969Y442749D01*
X337761Y442727D01*
X337725Y442717D01*
X337687Y442712D01*
X337486Y442651D01*
X337286Y442596D01*
X337251Y442580D01*
X337214Y442569D01*
X337027Y442477D01*
X336837Y442390D01*
X336806Y442369D01*
X336771Y442352D01*
X336601Y442232D01*
X336428Y442115D01*
X336400Y442089D01*
X336369Y442067D01*
X336221Y441920D01*
X336068Y441777D01*
X336045Y441747D01*
X336018Y441720D01*
X335895Y441552D01*
X335768Y441386D01*
X335750Y441352D01*
X335728Y441321D01*
X335634Y441135D01*
X335535Y440951D01*
X335522Y440915D01*
X335505Y440881D01*
X335443Y440682D01*
X335375Y440484D01*
X335369Y440447D01*
X335357Y440410D01*
X335347Y440318D01*
X335292Y439998D01*
X335291Y439826D01*
X335281Y439733D01*
X335281Y423852D01*
X335290Y423739D01*
X335289Y423624D01*
X335310Y423493D01*
X335321Y423361D01*
X335348Y423250D01*
X335366Y423137D01*
X335407Y423011D01*
X335439Y422882D01*
X335484Y422777D01*
X335520Y422669D01*
X335582Y422551D01*
X335634Y422429D01*
X335695Y422332D01*
X335748Y422231D01*
X335807Y422157D01*
X335899Y422012D01*
X336115Y421771D01*
X336173Y421698D01*
X338383Y419488D01*
X339853Y415940D01*
X339853Y396254D01*
X339854Y396243D01*
X339853Y396233D01*
X339855Y396212D01*
X339851Y396088D01*
X339859Y396026D01*
X339860Y395963D01*
X339891Y395782D01*
X339893Y395762D01*
X339895Y395753D01*
X339896Y395747D01*
X339896Y395741D01*
X339897Y395739D01*
X339915Y395599D01*
X339933Y395539D01*
X339944Y395477D01*
X340004Y395303D01*
X340058Y395127D01*
X340085Y395070D01*
X340106Y395011D01*
X340193Y394849D01*
X340275Y394683D01*
X340311Y394632D01*
X340341Y394577D01*
X340453Y394432D01*
X340560Y394281D01*
X340604Y394237D01*
X340642Y394187D01*
X340777Y394061D01*
X340907Y393930D01*
X340957Y393893D01*
X341003Y393851D01*
X341157Y393748D01*
X341306Y393640D01*
X341361Y393611D01*
X341414Y393577D01*
X341582Y393500D01*
X341746Y393417D01*
X341806Y393399D01*
X341863Y393373D01*
X342041Y393325D01*
X342216Y393269D01*
X342259Y393264D01*
X342285Y393257D01*
X342297Y393255D01*
X342339Y393244D01*
X342616Y393215D01*
X342775Y393196D01*
X342800Y393197D01*
X342830Y393193D01*
X342868Y393196D01*
X342894Y393193D01*
X342906Y393193D01*
X343087Y393207D01*
X343268Y393214D01*
X343305Y393222D01*
X343322Y393223D01*
X343347Y393229D01*
X343397Y393233D01*
X343574Y393276D01*
X343751Y393312D01*
X343799Y393331D01*
X343803Y393332D01*
X343815Y393336D01*
X343876Y393351D01*
X344043Y393423D01*
X344213Y393487D01*
X344270Y393520D01*
X344330Y393546D01*
X344482Y393643D01*
X344640Y393734D01*
X344691Y393776D01*
X344746Y393811D01*
X344881Y393932D01*
X345021Y394047D01*
X345065Y394096D01*
X345114Y394140D01*
X345228Y394281D01*
X345348Y394417D01*
X345382Y394473D01*
X345424Y394524D01*
X345513Y394681D01*
X345610Y394835D01*
X345635Y394895D01*
X345668Y394952D01*
X345731Y395122D01*
X345801Y395290D01*
X345816Y395353D01*
X345839Y395415D01*
X345870Y395574D01*
X345871Y395576D01*
X345871Y395580D01*
X345874Y395593D01*
X345916Y395769D01*
X345921Y395835D01*
X345934Y395899D01*
X345938Y396026D01*
X345940Y396037D01*
X345939Y396071D01*
X345939Y396080D01*
X345953Y396261D01*
X345947Y396325D01*
X345947Y396331D01*
X345949Y396392D01*
X345947Y396407D01*
X345947Y415940D01*
X347417Y419488D01*
X350132Y422203D01*
X353680Y423673D01*
X357520Y423673D01*
X361068Y422203D01*
X363783Y419488D01*
X365253Y415940D01*
X365253Y396254D01*
X365255Y396225D01*
X365251Y396088D01*
X365259Y396023D01*
X365260Y395957D01*
X365291Y395781D01*
X365293Y395762D01*
X365295Y395753D01*
X365315Y395599D01*
X365334Y395536D01*
X365346Y395472D01*
X365405Y395300D01*
X365458Y395127D01*
X365487Y395068D01*
X365508Y395006D01*
X365595Y394847D01*
X365675Y394683D01*
X365713Y394630D01*
X365744Y394572D01*
X365855Y394429D01*
X365960Y394281D01*
X366006Y394234D01*
X366046Y394183D01*
X366179Y394059D01*
X366307Y393930D01*
X366360Y393892D01*
X366408Y393847D01*
X366559Y393746D01*
X366706Y393640D01*
X366764Y393610D01*
X366819Y393574D01*
X366984Y393499D01*
X367146Y393417D01*
X367209Y393398D01*
X367268Y393371D01*
X367443Y393324D01*
X367617Y393269D01*
X367668Y393263D01*
X367745Y393243D01*
X368236Y393193D01*
X368270Y393195D01*
X368294Y393193D01*
X531270Y393193D01*
X531346Y393199D01*
X531422Y393197D01*
X531591Y393219D01*
X531762Y393233D01*
X531836Y393251D01*
X531911Y393261D01*
X532075Y393310D01*
X532241Y393351D01*
X532310Y393381D01*
X532384Y393403D01*
X532537Y393479D01*
X532694Y393546D01*
X532758Y393587D01*
X532827Y393620D01*
X532966Y393719D01*
X533110Y393811D01*
X533167Y393862D01*
X533229Y393906D01*
X533350Y394026D01*
X533478Y394140D01*
X533526Y394199D01*
X533580Y394253D01*
X533681Y394391D01*
X533788Y394524D01*
X533825Y394590D01*
X533870Y394651D01*
X533947Y394804D01*
X534032Y394952D01*
X534040Y394975D01*
X535508Y396443D01*
X556692Y396443D01*
X558174Y394961D01*
X558236Y394816D01*
X558277Y394752D01*
X558310Y394683D01*
X558409Y394544D01*
X558501Y394400D01*
X558552Y394343D01*
X558596Y394281D01*
X558716Y394160D01*
X558830Y394032D01*
X558889Y393984D01*
X558943Y393930D01*
X559081Y393829D01*
X559214Y393722D01*
X559280Y393685D01*
X559341Y393640D01*
X559494Y393563D01*
X559642Y393478D01*
X559714Y393452D01*
X559782Y393417D01*
X559945Y393366D01*
X560105Y393307D01*
X560180Y393292D01*
X560252Y393269D01*
X560357Y393257D01*
X560589Y393212D01*
X560825Y393205D01*
X560930Y393193D01*
X596392Y393193D01*
X596468Y393199D01*
X596544Y393197D01*
X596713Y393219D01*
X596884Y393233D01*
X596958Y393251D01*
X597033Y393261D01*
X597197Y393310D01*
X597363Y393351D01*
X597432Y393381D01*
X597506Y393403D01*
X597659Y393479D01*
X597816Y393546D01*
X597880Y393587D01*
X597949Y393620D01*
X598088Y393719D01*
X598232Y393811D01*
X598289Y393862D01*
X598351Y393906D01*
X598472Y394026D01*
X598600Y394140D01*
X598648Y394199D01*
X598702Y394253D01*
X598803Y394391D01*
X598910Y394524D01*
X598947Y394590D01*
X598992Y394651D01*
X599069Y394804D01*
X599154Y394952D01*
X599180Y395024D01*
X599215Y395092D01*
X599266Y395255D01*
X599325Y395415D01*
X599340Y395490D01*
X599363Y395562D01*
X599375Y395667D01*
X599420Y395899D01*
X599427Y396135D01*
X599439Y396240D01*
X599439Y535579D01*
X599429Y535703D01*
X599433Y535778D01*
X599328Y537370D01*
X599256Y537858D01*
X599237Y537917D01*
X599231Y537959D01*
X598407Y541033D01*
X598388Y541087D01*
X598376Y541143D01*
X598334Y541238D01*
X598242Y541498D01*
X598144Y541675D01*
X598103Y541768D01*
X596512Y544524D01*
X596231Y544930D01*
X596188Y544975D01*
X596164Y545010D01*
X595113Y546209D01*
X595023Y546295D01*
X594976Y546354D01*
X546354Y594976D01*
X546260Y595057D01*
X546209Y595113D01*
X545010Y596164D01*
X544614Y596458D01*
X544558Y596487D01*
X544524Y596512D01*
X541768Y598103D01*
X541716Y598127D01*
X541668Y598158D01*
X541571Y598196D01*
X541322Y598314D01*
X541128Y598370D01*
X541033Y598407D01*
X537959Y599231D01*
X537474Y599320D01*
X537411Y599321D01*
X537370Y599328D01*
X535778Y599433D01*
X535654Y599431D01*
X535579Y599439D01*
X527623Y599439D01*
X527585Y599436D01*
X527547Y599438D01*
X527339Y599416D01*
X527131Y599399D01*
X527094Y599390D01*
X527056Y599386D01*
X526855Y599331D01*
X526652Y599281D01*
X526617Y599266D01*
X526580Y599255D01*
X526390Y599168D01*
X526199Y599086D01*
X526167Y599066D01*
X526132Y599050D01*
X525958Y598933D01*
X525783Y598821D01*
X525754Y598796D01*
X525723Y598774D01*
X525571Y598631D01*
X525415Y598492D01*
X525391Y598463D01*
X525363Y598437D01*
X525236Y598271D01*
X525105Y598108D01*
X525086Y598075D01*
X525063Y598045D01*
X524964Y597861D01*
X524861Y597680D01*
X524848Y597644D01*
X524830Y597610D01*
X524762Y597413D01*
X524689Y597217D01*
X524682Y597180D01*
X524670Y597144D01*
X524635Y596937D01*
X524595Y596733D01*
X524593Y596695D01*
X524587Y596657D01*
X524586Y596448D01*
X524579Y596240D01*
X524584Y596202D01*
X524584Y596164D01*
X524616Y595957D01*
X524644Y595751D01*
X524655Y595714D01*
X524661Y595677D01*
X524726Y595478D01*
X524786Y595279D01*
X524803Y595244D01*
X524815Y595208D01*
X524911Y595023D01*
X525003Y594835D01*
X525025Y594804D01*
X525043Y594770D01*
X525101Y594698D01*
X525289Y594433D01*
X525409Y594311D01*
X525468Y594237D01*
X548549Y571156D01*
X550407Y569298D01*
X551181Y567431D01*
X551181Y539490D01*
X551187Y539414D01*
X551185Y539338D01*
X551207Y539169D01*
X551221Y538998D01*
X551239Y538924D01*
X551249Y538849D01*
X551298Y538685D01*
X551339Y538519D01*
X551369Y538450D01*
X551391Y538376D01*
X551467Y538223D01*
X551534Y538066D01*
X551575Y538002D01*
X551608Y537933D01*
X551707Y537794D01*
X551799Y537650D01*
X551850Y537593D01*
X551894Y537531D01*
X552014Y537410D01*
X552128Y537282D01*
X552187Y537234D01*
X552241Y537180D01*
X552379Y537079D01*
X552512Y536972D01*
X552578Y536935D01*
X552639Y536890D01*
X552792Y536813D01*
X552940Y536728D01*
X553012Y536702D01*
X553080Y536667D01*
X553243Y536616D01*
X553403Y536557D01*
X553478Y536542D01*
X553550Y536519D01*
X553655Y536507D01*
X553887Y536462D01*
X554123Y536455D01*
X554228Y536443D01*
X556692Y536443D01*
X557883Y535252D01*
X557883Y514068D01*
X556692Y512877D01*
X535508Y512877D01*
X534317Y514068D01*
X534317Y535252D01*
X535508Y536443D01*
X537972Y536443D01*
X538048Y536449D01*
X538124Y536447D01*
X538293Y536469D01*
X538464Y536483D01*
X538538Y536501D01*
X538613Y536511D01*
X538777Y536560D01*
X538943Y536601D01*
X539012Y536631D01*
X539086Y536653D01*
X539239Y536729D01*
X539396Y536796D01*
X539460Y536837D01*
X539529Y536870D01*
X539668Y536969D01*
X539812Y537061D01*
X539869Y537112D01*
X539931Y537156D01*
X540052Y537276D01*
X540180Y537390D01*
X540228Y537449D01*
X540282Y537503D01*
X540383Y537641D01*
X540490Y537774D01*
X540527Y537840D01*
X540572Y537901D01*
X540649Y538054D01*
X540734Y538202D01*
X540760Y538274D01*
X540795Y538342D01*
X540846Y538505D01*
X540905Y538665D01*
X540920Y538740D01*
X540943Y538812D01*
X540955Y538917D01*
X541000Y539149D01*
X541007Y539385D01*
X541019Y539490D01*
X541019Y563053D01*
X541010Y563167D01*
X541011Y563281D01*
X540990Y563413D01*
X540979Y563545D01*
X540952Y563656D01*
X540934Y563769D01*
X540893Y563895D01*
X540861Y564024D01*
X540816Y564129D01*
X540780Y564237D01*
X540718Y564355D01*
X540666Y564477D01*
X540605Y564573D01*
X540552Y564675D01*
X540493Y564748D01*
X540401Y564893D01*
X540185Y565135D01*
X540127Y565208D01*
X516948Y588387D01*
X516861Y588461D01*
X516781Y588542D01*
X516673Y588620D01*
X516572Y588706D01*
X516474Y588765D01*
X516382Y588832D01*
X516264Y588892D01*
X516150Y588961D01*
X516043Y589003D01*
X515942Y589055D01*
X515815Y589095D01*
X515691Y589144D01*
X515580Y589169D01*
X515471Y589203D01*
X515378Y589213D01*
X515210Y589251D01*
X514886Y589269D01*
X514793Y589279D01*
X102427Y589279D01*
X102313Y589270D01*
X102199Y589271D01*
X102067Y589250D01*
X101935Y589239D01*
X101824Y589212D01*
X101711Y589194D01*
X101585Y589153D01*
X101456Y589121D01*
X101351Y589076D01*
X101243Y589040D01*
X101125Y588978D01*
X101003Y588926D01*
X100907Y588865D01*
X100805Y588812D01*
X100732Y588753D01*
X100587Y588661D01*
X100345Y588445D01*
X100272Y588387D01*
X53530Y541645D01*
X53505Y541616D01*
X53477Y541590D01*
X53346Y541428D01*
X53210Y541269D01*
X53191Y541236D01*
X53167Y541206D01*
X53064Y541026D01*
X52956Y540846D01*
X52942Y540811D01*
X52923Y540778D01*
X52850Y540582D01*
X52773Y540388D01*
X52765Y540351D01*
X52751Y540315D01*
X52711Y540110D01*
X52666Y539906D01*
X52664Y539868D01*
X52657Y539831D01*
X52650Y539623D01*
X52638Y539414D01*
X52642Y539376D01*
X52641Y539338D01*
X52668Y539131D01*
X52691Y538923D01*
X52701Y538887D01*
X52706Y538849D01*
X52766Y538649D01*
X52821Y538448D01*
X52837Y538413D01*
X52848Y538376D01*
X52940Y538189D01*
X53027Y537999D01*
X53048Y537967D01*
X53065Y537933D01*
X53186Y537763D01*
X53302Y537590D01*
X53328Y537562D01*
X53351Y537531D01*
X53497Y537382D01*
X53640Y537230D01*
X53670Y537207D01*
X53697Y537180D01*
X53866Y537057D01*
X54032Y536930D01*
X54065Y536912D01*
X54096Y536890D01*
X54282Y536796D01*
X54466Y536697D01*
X54502Y536685D01*
X54536Y536667D01*
X54735Y536605D01*
X54933Y536537D01*
X54971Y536531D01*
X55007Y536519D01*
X55099Y536509D01*
X55419Y536454D01*
X55591Y536453D01*
X55685Y536443D01*
X74092Y536443D01*
X75283Y535252D01*
X75283Y514068D01*
X74092Y512877D01*
X60165Y512877D01*
X60051Y512868D01*
X59937Y512869D01*
X59805Y512848D01*
X59673Y512837D01*
X59562Y512810D01*
X59449Y512792D01*
X59323Y512751D01*
X59194Y512719D01*
X59089Y512674D01*
X58981Y512638D01*
X58863Y512576D01*
X58741Y512524D01*
X58645Y512463D01*
X58543Y512410D01*
X58470Y512351D01*
X58325Y512259D01*
X58083Y512043D01*
X58010Y511985D01*
X53178Y507153D01*
X53153Y507124D01*
X53125Y507098D01*
X52994Y506936D01*
X52858Y506777D01*
X52839Y506744D01*
X52815Y506714D01*
X52712Y506533D01*
X52604Y506354D01*
X52590Y506319D01*
X52571Y506286D01*
X52498Y506090D01*
X52421Y505896D01*
X52413Y505859D01*
X52399Y505823D01*
X52359Y505618D01*
X52314Y505414D01*
X52312Y505376D01*
X52305Y505339D01*
X52298Y505131D01*
X52286Y504922D01*
X52290Y504884D01*
X52289Y504846D01*
X52316Y504639D01*
X52339Y504431D01*
X52349Y504395D01*
X52354Y504357D01*
X52414Y504157D01*
X52469Y503956D01*
X52485Y503921D01*
X52496Y503884D01*
X52588Y503697D01*
X52675Y503507D01*
X52696Y503475D01*
X52713Y503441D01*
X52833Y503272D01*
X52950Y503098D01*
X52977Y503070D01*
X52999Y503039D01*
X53145Y502891D01*
X53288Y502738D01*
X53318Y502715D01*
X53345Y502688D01*
X53514Y502565D01*
X53680Y502438D01*
X53713Y502420D01*
X53744Y502398D01*
X53930Y502304D01*
X54114Y502205D01*
X54151Y502192D01*
X54184Y502175D01*
X54383Y502113D01*
X54581Y502045D01*
X54619Y502039D01*
X54655Y502027D01*
X54747Y502017D01*
X55067Y501962D01*
X55239Y501961D01*
X55333Y501951D01*
X60251Y501951D01*
X60251Y489862D01*
X60257Y489786D01*
X60255Y489710D01*
X60265Y489633D01*
X60263Y489563D01*
X60251Y489458D01*
X60251Y477369D01*
X53415Y477369D01*
X52738Y477551D01*
X52711Y477563D01*
X52596Y477629D01*
X52489Y477669D01*
X52386Y477718D01*
X52258Y477755D01*
X52133Y477801D01*
X52021Y477823D01*
X51912Y477854D01*
X51780Y477870D01*
X51649Y477896D01*
X51535Y477899D01*
X51422Y477913D01*
X51289Y477907D01*
X51156Y477911D01*
X51043Y477896D01*
X50929Y477891D01*
X50799Y477864D01*
X50667Y477846D01*
X50558Y477814D01*
X50446Y477790D01*
X50322Y477742D01*
X50194Y477704D01*
X50092Y477654D01*
X49986Y477613D01*
X49871Y477546D01*
X49751Y477487D01*
X49658Y477421D01*
X49560Y477364D01*
X49458Y477279D01*
X49349Y477202D01*
X49268Y477122D01*
X49180Y477049D01*
X49093Y476948D01*
X48998Y476855D01*
X48931Y476763D01*
X48856Y476677D01*
X48786Y476564D01*
X48708Y476456D01*
X48656Y476354D01*
X48596Y476258D01*
X48545Y476134D01*
X48485Y476016D01*
X48451Y475907D01*
X48407Y475802D01*
X48377Y475672D01*
X48337Y475545D01*
X48328Y475462D01*
X48295Y475321D01*
X48268Y474933D01*
X48261Y474867D01*
X48261Y469152D01*
X48264Y469114D01*
X48262Y469076D01*
X48284Y468868D01*
X48301Y468660D01*
X48310Y468623D01*
X48314Y468585D01*
X48369Y468385D01*
X48419Y468182D01*
X48435Y468146D01*
X48445Y468110D01*
X48531Y467920D01*
X48614Y467728D01*
X48634Y467696D01*
X48650Y467661D01*
X48767Y467488D01*
X48879Y467312D01*
X48904Y467284D01*
X48926Y467252D01*
X49069Y467099D01*
X49208Y466944D01*
X49237Y466920D01*
X49264Y466892D01*
X49430Y466765D01*
X49592Y466634D01*
X49625Y466615D01*
X49655Y466592D01*
X49839Y466493D01*
X50020Y466390D01*
X50056Y466377D01*
X50090Y466359D01*
X50287Y466291D01*
X50483Y466219D01*
X50520Y466211D01*
X50556Y466199D01*
X50763Y466164D01*
X50967Y466124D01*
X51005Y466123D01*
X51043Y466116D01*
X51252Y466115D01*
X51460Y466109D01*
X51498Y466114D01*
X51536Y466113D01*
X51742Y466146D01*
X51949Y466173D01*
X51986Y466184D01*
X52023Y466190D01*
X52221Y466255D01*
X52421Y466316D01*
X52456Y466332D01*
X52492Y466344D01*
X52677Y466441D01*
X52681Y466443D01*
X74092Y466443D01*
X75283Y465252D01*
X75283Y444068D01*
X74092Y442877D01*
X52696Y442877D01*
X52664Y442897D01*
X52629Y442911D01*
X52596Y442930D01*
X52400Y443002D01*
X52206Y443080D01*
X52169Y443088D01*
X52133Y443101D01*
X51928Y443141D01*
X51725Y443186D01*
X51686Y443189D01*
X51649Y443196D01*
X51441Y443202D01*
X51232Y443214D01*
X51194Y443210D01*
X51156Y443211D01*
X50949Y443184D01*
X50741Y443162D01*
X50705Y443152D01*
X50667Y443147D01*
X50467Y443086D01*
X50266Y443031D01*
X50231Y443015D01*
X50194Y443004D01*
X50007Y442913D01*
X49817Y442826D01*
X49786Y442804D01*
X49751Y442788D01*
X49581Y442667D01*
X49408Y442550D01*
X49380Y442524D01*
X49349Y442502D01*
X49201Y442355D01*
X49048Y442212D01*
X49025Y442182D01*
X48998Y442155D01*
X48875Y441987D01*
X48748Y441821D01*
X48730Y441787D01*
X48708Y441757D01*
X48614Y441571D01*
X48515Y441386D01*
X48503Y441350D01*
X48485Y441316D01*
X48423Y441117D01*
X48355Y440920D01*
X48349Y440882D01*
X48337Y440846D01*
X48327Y440753D01*
X48272Y440433D01*
X48271Y440261D01*
X48261Y440168D01*
X48261Y434152D01*
X48264Y434114D01*
X48262Y434076D01*
X48284Y433868D01*
X48301Y433660D01*
X48310Y433623D01*
X48314Y433585D01*
X48369Y433385D01*
X48419Y433182D01*
X48435Y433146D01*
X48445Y433110D01*
X48531Y432920D01*
X48614Y432728D01*
X48634Y432696D01*
X48650Y432661D01*
X48767Y432488D01*
X48879Y432312D01*
X48904Y432284D01*
X48926Y432252D01*
X49069Y432099D01*
X49208Y431944D01*
X49237Y431920D01*
X49264Y431892D01*
X49430Y431765D01*
X49592Y431634D01*
X49625Y431615D01*
X49655Y431592D01*
X49839Y431493D01*
X50020Y431390D01*
X50056Y431377D01*
X50090Y431359D01*
X50287Y431291D01*
X50483Y431219D01*
X50520Y431211D01*
X50556Y431199D01*
X50763Y431164D01*
X50967Y431124D01*
X51005Y431123D01*
X51043Y431116D01*
X51252Y431115D01*
X51460Y431109D01*
X51498Y431114D01*
X51536Y431113D01*
X51742Y431146D01*
X51949Y431173D01*
X51986Y431184D01*
X52023Y431190D01*
X52221Y431255D01*
X52421Y431316D01*
X52456Y431332D01*
X52492Y431344D01*
X52677Y431441D01*
X52681Y431443D01*
X74092Y431443D01*
X75283Y430252D01*
X75283Y409448D01*
X75289Y409372D01*
X75287Y409296D01*
X75309Y409127D01*
X75323Y408956D01*
X75341Y408882D01*
X75351Y408807D01*
X75400Y408643D01*
X75441Y408477D01*
X75471Y408408D01*
X75493Y408334D01*
X75569Y408181D01*
X75636Y408024D01*
X75677Y407960D01*
X75710Y407891D01*
X75809Y407752D01*
X75901Y407608D01*
X75952Y407551D01*
X75996Y407489D01*
X76116Y407368D01*
X76230Y407240D01*
X76289Y407192D01*
X76343Y407138D01*
X76481Y407037D01*
X76614Y406930D01*
X76680Y406893D01*
X76741Y406848D01*
X76894Y406771D01*
X77042Y406686D01*
X77114Y406660D01*
X77182Y406625D01*
X77345Y406574D01*
X77505Y406515D01*
X77580Y406500D01*
X77652Y406477D01*
X77757Y406465D01*
X77989Y406420D01*
X78225Y406413D01*
X78330Y406401D01*
X84831Y406401D01*
X86698Y405627D01*
X98240Y394085D01*
X98327Y394011D01*
X98407Y393930D01*
X98515Y393852D01*
X98616Y393766D01*
X98714Y393707D01*
X98806Y393640D01*
X98924Y393580D01*
X99038Y393511D01*
X99145Y393469D01*
X99246Y393417D01*
X99373Y393377D01*
X99497Y393328D01*
X99608Y393303D01*
X99717Y393269D01*
X99810Y393259D01*
X99978Y393221D01*
X100302Y393203D01*
X100395Y393193D01*
X241030Y393193D01*
X241098Y393198D01*
G37*
%LPC*%
G36*
X227195Y423465D02*
X227195Y423465D01*
X224598Y424541D01*
X222611Y426528D01*
X221535Y429125D01*
X221535Y431935D01*
X222611Y434532D01*
X224598Y436519D01*
X227195Y437595D01*
X229373Y437595D01*
X229486Y437604D01*
X229601Y437603D01*
X229732Y437624D01*
X229864Y437635D01*
X229975Y437662D01*
X230088Y437680D01*
X230214Y437721D01*
X230343Y437753D01*
X230448Y437798D01*
X230557Y437834D01*
X230674Y437896D01*
X230796Y437948D01*
X230893Y438009D01*
X230994Y438062D01*
X231068Y438121D01*
X231213Y438213D01*
X231455Y438429D01*
X231527Y438487D01*
X267088Y474048D01*
X267094Y474056D01*
X267102Y474062D01*
X267253Y474243D01*
X267408Y474424D01*
X267413Y474432D01*
X267419Y474440D01*
X267438Y474475D01*
X267662Y474847D01*
X267711Y474968D01*
X267749Y475037D01*
X268331Y476442D01*
X270318Y478429D01*
X272915Y479505D01*
X275725Y479505D01*
X278322Y478429D01*
X280309Y476442D01*
X281385Y473845D01*
X281385Y471035D01*
X280309Y468438D01*
X278322Y466451D01*
X275725Y465375D01*
X272915Y465375D01*
X271657Y465896D01*
X271449Y465963D01*
X271242Y466034D01*
X271214Y466039D01*
X271187Y466048D01*
X270972Y466080D01*
X270756Y466117D01*
X270727Y466117D01*
X270699Y466121D01*
X270481Y466118D01*
X270263Y466120D01*
X270234Y466115D01*
X270206Y466115D01*
X269991Y466077D01*
X269775Y466043D01*
X269748Y466034D01*
X269720Y466029D01*
X269514Y465957D01*
X269307Y465889D01*
X269281Y465876D01*
X269255Y465866D01*
X269063Y465762D01*
X268869Y465661D01*
X268851Y465646D01*
X268821Y465630D01*
X268432Y465328D01*
X268377Y465269D01*
X268336Y465236D01*
X236557Y433457D01*
X236483Y433370D01*
X236402Y433290D01*
X236324Y433183D01*
X236238Y433081D01*
X236179Y432983D01*
X236112Y432891D01*
X236052Y432773D01*
X235983Y432659D01*
X235941Y432553D01*
X235889Y432451D01*
X235849Y432324D01*
X235800Y432201D01*
X235775Y432089D01*
X235741Y431980D01*
X235731Y431887D01*
X235693Y431719D01*
X235675Y431395D01*
X235665Y431303D01*
X235665Y429125D01*
X234589Y426528D01*
X232602Y424541D01*
X230005Y423465D01*
X227195Y423465D01*
G37*
%LPD*%
%LPC*%
G36*
X52908Y323217D02*
X52908Y323217D01*
X51717Y324408D01*
X51717Y345592D01*
X52908Y346783D01*
X74092Y346783D01*
X75283Y345592D01*
X75283Y324408D01*
X74092Y323217D01*
X52908Y323217D01*
G37*
%LPD*%
%LPC*%
G36*
X535508Y442877D02*
X535508Y442877D01*
X534317Y444068D01*
X534317Y465252D01*
X535508Y466443D01*
X556692Y466443D01*
X557883Y465252D01*
X557883Y444068D01*
X556692Y442877D01*
X535508Y442877D01*
G37*
%LPD*%
%LPC*%
G36*
X535508Y477877D02*
X535508Y477877D01*
X534317Y479068D01*
X534317Y500252D01*
X535508Y501443D01*
X556692Y501443D01*
X557883Y500252D01*
X557883Y479068D01*
X556692Y477877D01*
X535508Y477877D01*
G37*
%LPD*%
%LPC*%
G36*
X535508Y288217D02*
X535508Y288217D01*
X534317Y289408D01*
X534317Y310592D01*
X535508Y311783D01*
X556692Y311783D01*
X557883Y310592D01*
X557883Y289408D01*
X556692Y288217D01*
X535508Y288217D01*
G37*
%LPD*%
%LPC*%
G36*
X428558Y514603D02*
X428558Y514603D01*
X425384Y515918D01*
X422954Y518348D01*
X421639Y521522D01*
X421639Y524958D01*
X422954Y528132D01*
X425384Y530562D01*
X428558Y531877D01*
X445202Y531877D01*
X448376Y530562D01*
X450806Y528132D01*
X452121Y524958D01*
X452121Y521522D01*
X450806Y518348D01*
X448376Y515918D01*
X445202Y514603D01*
X428558Y514603D01*
G37*
%LPD*%
%LPC*%
G36*
X428558Y463803D02*
X428558Y463803D01*
X425384Y465118D01*
X422954Y467548D01*
X421639Y470722D01*
X421639Y474158D01*
X422954Y477332D01*
X425384Y479762D01*
X428558Y481077D01*
X445202Y481077D01*
X448376Y479762D01*
X450806Y477332D01*
X452121Y474158D01*
X452121Y470722D01*
X450806Y467548D01*
X448376Y465118D01*
X445202Y463803D01*
X428558Y463803D01*
G37*
%LPD*%
%LPC*%
G36*
X412615Y297735D02*
X412615Y297735D01*
X410018Y298811D01*
X408031Y300798D01*
X406955Y303395D01*
X406955Y306205D01*
X408031Y308802D01*
X410018Y310789D01*
X412615Y311865D01*
X415425Y311865D01*
X418022Y310789D01*
X419816Y308995D01*
X419903Y308921D01*
X419983Y308840D01*
X420090Y308762D01*
X420192Y308676D01*
X420290Y308617D01*
X420382Y308550D01*
X420500Y308490D01*
X420614Y308421D01*
X420720Y308379D01*
X420822Y308327D01*
X420949Y308287D01*
X421072Y308238D01*
X421184Y308213D01*
X421293Y308179D01*
X421386Y308169D01*
X421554Y308131D01*
X421878Y308113D01*
X421971Y308103D01*
X436549Y308103D01*
X436663Y308112D01*
X436777Y308111D01*
X436909Y308132D01*
X437041Y308143D01*
X437152Y308170D01*
X437265Y308188D01*
X437391Y308229D01*
X437520Y308261D01*
X437625Y308306D01*
X437733Y308342D01*
X437851Y308404D01*
X437973Y308456D01*
X438070Y308517D01*
X438171Y308570D01*
X438245Y308629D01*
X438389Y308721D01*
X438632Y308937D01*
X438704Y308995D01*
X440498Y310789D01*
X443095Y311865D01*
X445905Y311865D01*
X448502Y310789D01*
X450489Y308802D01*
X451565Y306205D01*
X451565Y303395D01*
X450489Y300798D01*
X448502Y298811D01*
X445905Y297735D01*
X443095Y297735D01*
X440498Y298811D01*
X438704Y300605D01*
X438617Y300679D01*
X438537Y300760D01*
X438430Y300838D01*
X438328Y300924D01*
X438230Y300983D01*
X438138Y301050D01*
X438020Y301110D01*
X437906Y301179D01*
X437800Y301221D01*
X437698Y301273D01*
X437571Y301313D01*
X437448Y301362D01*
X437336Y301387D01*
X437227Y301421D01*
X437134Y301431D01*
X436966Y301469D01*
X436642Y301487D01*
X436549Y301497D01*
X421971Y301497D01*
X421857Y301488D01*
X421743Y301489D01*
X421611Y301468D01*
X421479Y301457D01*
X421368Y301430D01*
X421255Y301412D01*
X421129Y301371D01*
X421000Y301339D01*
X420895Y301294D01*
X420787Y301258D01*
X420669Y301196D01*
X420547Y301144D01*
X420450Y301083D01*
X420349Y301030D01*
X420275Y300971D01*
X420131Y300879D01*
X419888Y300663D01*
X419816Y300605D01*
X418022Y298811D01*
X415425Y297735D01*
X412615Y297735D01*
G37*
%LPD*%
%LPC*%
G36*
X321175Y282495D02*
X321175Y282495D01*
X318578Y283571D01*
X316591Y285558D01*
X315515Y288155D01*
X315515Y290965D01*
X316591Y293562D01*
X318578Y295549D01*
X321175Y296625D01*
X323712Y296625D01*
X323825Y296634D01*
X323940Y296633D01*
X324071Y296654D01*
X324203Y296665D01*
X324314Y296692D01*
X324427Y296710D01*
X324553Y296751D01*
X324682Y296783D01*
X324787Y296828D01*
X324896Y296864D01*
X325014Y296926D01*
X325136Y296978D01*
X325232Y297039D01*
X325333Y297092D01*
X325407Y297151D01*
X325552Y297243D01*
X325794Y297459D01*
X325866Y297517D01*
X329863Y301514D01*
X329937Y301600D01*
X330018Y301681D01*
X330096Y301788D01*
X330182Y301889D01*
X330241Y301987D01*
X330308Y302080D01*
X330368Y302198D01*
X330437Y302312D01*
X330479Y302418D01*
X330531Y302520D01*
X330571Y302647D01*
X330620Y302770D01*
X330645Y302881D01*
X330679Y302991D01*
X330689Y303084D01*
X330727Y303252D01*
X330745Y303576D01*
X330755Y303668D01*
X330755Y306205D01*
X331831Y308802D01*
X333818Y310789D01*
X336415Y311865D01*
X339225Y311865D01*
X341822Y310789D01*
X343809Y308802D01*
X344885Y306205D01*
X344885Y303395D01*
X343809Y300798D01*
X341822Y298811D01*
X339225Y297735D01*
X336688Y297735D01*
X336575Y297726D01*
X336460Y297727D01*
X336329Y297706D01*
X336197Y297695D01*
X336086Y297668D01*
X335973Y297650D01*
X335847Y297609D01*
X335718Y297577D01*
X335613Y297532D01*
X335504Y297496D01*
X335386Y297434D01*
X335264Y297382D01*
X335168Y297321D01*
X335067Y297268D01*
X334993Y297209D01*
X334848Y297117D01*
X334606Y296901D01*
X334534Y296843D01*
X330537Y292846D01*
X330463Y292760D01*
X330382Y292679D01*
X330304Y292572D01*
X330218Y292471D01*
X330159Y292373D01*
X330092Y292280D01*
X330032Y292162D01*
X329963Y292048D01*
X329921Y291942D01*
X329869Y291840D01*
X329829Y291713D01*
X329780Y291590D01*
X329755Y291479D01*
X329721Y291369D01*
X329711Y291276D01*
X329673Y291108D01*
X329655Y290784D01*
X329645Y290692D01*
X329645Y288155D01*
X328569Y285558D01*
X326582Y283571D01*
X323985Y282495D01*
X321175Y282495D01*
G37*
%LPD*%
%LPC*%
G36*
X127238Y463867D02*
X127238Y463867D01*
X126047Y465058D01*
X126047Y479822D01*
X127238Y481013D01*
X142002Y481013D01*
X143193Y479822D01*
X143193Y465058D01*
X142002Y463867D01*
X127238Y463867D01*
G37*
%LPD*%
%LPC*%
G36*
X203438Y463867D02*
X203438Y463867D01*
X202247Y465058D01*
X202247Y479822D01*
X203438Y481013D01*
X218202Y481013D01*
X219393Y479822D01*
X219393Y465058D01*
X218202Y463867D01*
X203438Y463867D01*
G37*
%LPD*%
%LPC*%
G36*
X127238Y514667D02*
X127238Y514667D01*
X126047Y515858D01*
X126047Y530622D01*
X127238Y531813D01*
X142002Y531813D01*
X143193Y530622D01*
X143193Y515858D01*
X142002Y514667D01*
X127238Y514667D01*
G37*
%LPD*%
%LPC*%
G36*
X203438Y514667D02*
X203438Y514667D01*
X202247Y515858D01*
X202247Y530622D01*
X203438Y531813D01*
X218202Y531813D01*
X219393Y530622D01*
X219393Y515858D01*
X218202Y514667D01*
X203438Y514667D01*
G37*
%LPD*%
%LPC*%
G36*
X243839Y409447D02*
X243839Y409447D01*
X243839Y414820D01*
X244089Y416399D01*
X244584Y417920D01*
X245310Y419345D01*
X246250Y420639D01*
X247381Y421770D01*
X248675Y422710D01*
X250100Y423436D01*
X250953Y423713D01*
X250953Y409447D01*
X243839Y409447D01*
G37*
%LPD*%
%LPC*%
G36*
X66749Y492909D02*
X66749Y492909D01*
X66749Y501951D01*
X73585Y501951D01*
X74231Y501778D01*
X74810Y501443D01*
X75283Y500970D01*
X75618Y500391D01*
X75791Y499745D01*
X75791Y492909D01*
X66749Y492909D01*
G37*
%LPD*%
%LPC*%
G36*
X549349Y422909D02*
X549349Y422909D01*
X549349Y431951D01*
X556185Y431951D01*
X556831Y431778D01*
X557410Y431443D01*
X557883Y430970D01*
X558218Y430391D01*
X558391Y429745D01*
X558391Y422909D01*
X549349Y422909D01*
G37*
%LPD*%
%LPC*%
G36*
X549349Y338249D02*
X549349Y338249D01*
X549349Y347291D01*
X556185Y347291D01*
X556831Y347118D01*
X557410Y346783D01*
X557883Y346310D01*
X558218Y345731D01*
X558391Y345085D01*
X558391Y338249D01*
X549349Y338249D01*
G37*
%LPD*%
%LPC*%
G36*
X66749Y303249D02*
X66749Y303249D01*
X66749Y312291D01*
X73585Y312291D01*
X74231Y312118D01*
X74810Y311783D01*
X75283Y311310D01*
X75618Y310731D01*
X75791Y310085D01*
X75791Y303249D01*
X66749Y303249D01*
G37*
%LPD*%
%LPC*%
G36*
X549349Y416411D02*
X549349Y416411D01*
X558391Y416411D01*
X558391Y409575D01*
X558218Y408929D01*
X557883Y408350D01*
X557410Y407877D01*
X556831Y407542D01*
X556185Y407369D01*
X549349Y407369D01*
X549349Y416411D01*
G37*
%LPD*%
%LPC*%
G36*
X66749Y296751D02*
X66749Y296751D01*
X75791Y296751D01*
X75791Y289915D01*
X75618Y289269D01*
X75283Y288690D01*
X74810Y288217D01*
X74231Y287882D01*
X73585Y287709D01*
X66749Y287709D01*
X66749Y296751D01*
G37*
%LPD*%
%LPC*%
G36*
X549349Y331751D02*
X549349Y331751D01*
X558391Y331751D01*
X558391Y324915D01*
X558218Y324269D01*
X557883Y323690D01*
X557410Y323217D01*
X556831Y322882D01*
X556185Y322709D01*
X549349Y322709D01*
X549349Y331751D01*
G37*
%LPD*%
%LPC*%
G36*
X66749Y477369D02*
X66749Y477369D01*
X66749Y486411D01*
X75791Y486411D01*
X75791Y479575D01*
X75618Y478929D01*
X75283Y478350D01*
X74810Y477877D01*
X74231Y477542D01*
X73585Y477369D01*
X66749Y477369D01*
G37*
%LPD*%
%LPC*%
G36*
X533809Y338249D02*
X533809Y338249D01*
X533809Y345085D01*
X533982Y345731D01*
X534317Y346310D01*
X534790Y346783D01*
X535369Y347118D01*
X536015Y347291D01*
X542851Y347291D01*
X542851Y338249D01*
X533809Y338249D01*
G37*
%LPD*%
%LPC*%
G36*
X51209Y303249D02*
X51209Y303249D01*
X51209Y310085D01*
X51382Y310731D01*
X51717Y311310D01*
X52190Y311783D01*
X52769Y312118D01*
X53415Y312291D01*
X60251Y312291D01*
X60251Y303249D01*
X51209Y303249D01*
G37*
%LPD*%
%LPC*%
G36*
X533809Y422909D02*
X533809Y422909D01*
X533809Y429745D01*
X533982Y430391D01*
X534317Y430970D01*
X534790Y431443D01*
X535369Y431778D01*
X536015Y431951D01*
X542851Y431951D01*
X542851Y422909D01*
X533809Y422909D01*
G37*
%LPD*%
%LPC*%
G36*
X53415Y287709D02*
X53415Y287709D01*
X52769Y287882D01*
X52190Y288217D01*
X51717Y288690D01*
X51382Y289269D01*
X51209Y289915D01*
X51209Y296751D01*
X60251Y296751D01*
X60251Y287709D01*
X53415Y287709D01*
G37*
%LPD*%
%LPC*%
G36*
X536015Y407369D02*
X536015Y407369D01*
X535369Y407542D01*
X534790Y407877D01*
X534317Y408350D01*
X533982Y408929D01*
X533809Y409575D01*
X533809Y416411D01*
X542851Y416411D01*
X542851Y407369D01*
X536015Y407369D01*
G37*
%LPD*%
%LPC*%
G36*
X536015Y322709D02*
X536015Y322709D01*
X535369Y322882D01*
X534790Y323217D01*
X534317Y323690D01*
X533982Y324269D01*
X533809Y324915D01*
X533809Y331751D01*
X542851Y331751D01*
X542851Y322709D01*
X536015Y322709D01*
G37*
%LPD*%
%LPC*%
G36*
X439927Y500887D02*
X439927Y500887D01*
X439927Y506985D01*
X444204Y506985D01*
X445625Y506760D01*
X446994Y506315D01*
X448277Y505661D01*
X449441Y504815D01*
X450459Y503797D01*
X451305Y502633D01*
X451959Y501350D01*
X452109Y500887D01*
X439927Y500887D01*
G37*
%LPD*%
%LPC*%
G36*
X421651Y500887D02*
X421651Y500887D01*
X421801Y501350D01*
X422455Y502633D01*
X423301Y503797D01*
X424319Y504815D01*
X425483Y505661D01*
X426766Y506315D01*
X428135Y506760D01*
X429556Y506985D01*
X433833Y506985D01*
X433833Y500887D01*
X421651Y500887D01*
G37*
%LPD*%
%LPC*%
G36*
X439927Y488695D02*
X439927Y488695D01*
X439927Y494793D01*
X452109Y494793D01*
X451959Y494330D01*
X451305Y493047D01*
X450459Y491883D01*
X449441Y490865D01*
X448277Y490019D01*
X446994Y489365D01*
X445625Y488920D01*
X444204Y488695D01*
X439927Y488695D01*
G37*
%LPD*%
%LPC*%
G36*
X429556Y488695D02*
X429556Y488695D01*
X428135Y488920D01*
X426766Y489365D01*
X425483Y490019D01*
X424319Y490865D01*
X423301Y491883D01*
X422455Y493047D01*
X421801Y494330D01*
X421651Y494793D01*
X433833Y494793D01*
X433833Y488695D01*
X429556Y488695D01*
G37*
%LPD*%
%LPC*%
G36*
X137667Y500887D02*
X137667Y500887D01*
X137667Y506921D01*
X141495Y506921D01*
X142141Y506748D01*
X142720Y506413D01*
X143193Y505940D01*
X143528Y505361D01*
X143701Y504715D01*
X143701Y500887D01*
X137667Y500887D01*
G37*
%LPD*%
%LPC*%
G36*
X213867Y500887D02*
X213867Y500887D01*
X213867Y506921D01*
X217695Y506921D01*
X218341Y506748D01*
X218920Y506413D01*
X219393Y505940D01*
X219728Y505361D01*
X219901Y504715D01*
X219901Y500887D01*
X213867Y500887D01*
G37*
%LPD*%
%LPC*%
G36*
X201739Y500887D02*
X201739Y500887D01*
X201739Y504715D01*
X201912Y505361D01*
X202247Y505940D01*
X202720Y506413D01*
X203299Y506748D01*
X203945Y506921D01*
X207773Y506921D01*
X207773Y500887D01*
X201739Y500887D01*
G37*
%LPD*%
%LPC*%
G36*
X125539Y500887D02*
X125539Y500887D01*
X125539Y504715D01*
X125712Y505361D01*
X126047Y505940D01*
X126520Y506413D01*
X127099Y506748D01*
X127745Y506921D01*
X131573Y506921D01*
X131573Y500887D01*
X125539Y500887D01*
G37*
%LPD*%
%LPC*%
G36*
X137667Y488759D02*
X137667Y488759D01*
X137667Y494793D01*
X143701Y494793D01*
X143701Y490965D01*
X143528Y490319D01*
X143193Y489740D01*
X142720Y489267D01*
X142141Y488932D01*
X141495Y488759D01*
X137667Y488759D01*
G37*
%LPD*%
%LPC*%
G36*
X213867Y488759D02*
X213867Y488759D01*
X213867Y494793D01*
X219901Y494793D01*
X219901Y490965D01*
X219728Y490319D01*
X219393Y489740D01*
X218920Y489267D01*
X218341Y488932D01*
X217695Y488759D01*
X213867Y488759D01*
G37*
%LPD*%
%LPC*%
G36*
X203945Y488759D02*
X203945Y488759D01*
X203299Y488932D01*
X202720Y489267D01*
X202247Y489740D01*
X201912Y490319D01*
X201739Y490965D01*
X201739Y494793D01*
X207773Y494793D01*
X207773Y488759D01*
X203945Y488759D01*
G37*
%LPD*%
%LPC*%
G36*
X127745Y488759D02*
X127745Y488759D01*
X127099Y488932D01*
X126520Y489267D01*
X126047Y489740D01*
X125712Y490319D01*
X125539Y490965D01*
X125539Y494793D01*
X131573Y494793D01*
X131573Y488759D01*
X127745Y488759D01*
G37*
%LPD*%
D10*
X134620Y523240D03*
X210820Y472440D03*
X134620Y472440D03*
X210820Y523240D03*
X210820Y497840D03*
X134620Y497840D03*
D11*
X254000Y414020D02*
X254000Y398780D01*
X279400Y398780D02*
X279400Y414020D01*
X304800Y414020D02*
X304800Y398780D01*
X330200Y398780D02*
X330200Y414020D01*
X355600Y414020D02*
X355600Y398780D01*
D12*
X94800Y38100D03*
X129800Y38100D03*
X164800Y38100D03*
X199800Y38100D03*
X234800Y38100D03*
X269800Y38100D03*
X304800Y38100D03*
X339800Y38100D03*
X374800Y38100D03*
X409800Y38100D03*
X444800Y38100D03*
X479800Y38100D03*
X514800Y38100D03*
D13*
X443484Y523240D02*
X430276Y523240D01*
X430276Y497840D02*
X443484Y497840D01*
X443484Y472440D02*
X430276Y472440D01*
D14*
X63500Y384660D03*
X63500Y419660D03*
X63500Y454660D03*
X63500Y489660D03*
X63500Y524660D03*
X546100Y524660D03*
X546100Y489660D03*
X546100Y454660D03*
X546100Y419660D03*
X546100Y384660D03*
X546100Y335000D03*
X546100Y300000D03*
X63500Y300000D03*
X63500Y335000D03*
D15*
X118110Y339090D02*
X120650Y339090D01*
D16*
X196926Y339090D03*
X292100Y316230D03*
X355600Y316230D03*
X120650Y339090D03*
X111760Y271780D03*
X556260Y90170D03*
X492760Y342900D03*
X414020Y320040D03*
X414020Y289560D03*
X120650Y431800D03*
X241300Y472440D03*
X325120Y487680D03*
X374650Y529590D03*
X397510Y406400D03*
X289560Y556260D03*
X429260Y401320D03*
D17*
X274320Y472440D02*
X270510Y472440D01*
X228600Y430530D01*
X325120Y462280D02*
X325120Y472440D01*
X325120Y462280D02*
X350520Y436880D01*
D16*
X274320Y472440D03*
X228600Y430530D03*
X325120Y472440D03*
X350520Y436880D03*
D18*
X414020Y304800D02*
X444500Y304800D01*
X337820Y304800D02*
X322580Y289560D01*
D16*
X414020Y304800D03*
X444500Y304800D03*
X337820Y304800D03*
X322580Y289560D03*
D15*
X43180Y538480D02*
X99060Y594360D01*
X518160Y594360D01*
X546100Y566420D01*
X546100Y524660D01*
D16*
X43180Y538480D03*
D15*
X279400Y450850D02*
X279400Y406400D01*
D16*
X279400Y450850D03*
D15*
X304800Y450850D02*
X304800Y406400D01*
D16*
X304800Y450850D03*
D15*
X330200Y441960D02*
X330200Y406400D01*
X330200Y441960D02*
X306070Y466090D01*
X306070Y482600D01*
D16*
X306070Y482600D03*
D15*
X100480Y384660D02*
X546100Y384660D01*
X100480Y384660D02*
X83820Y401320D01*
X48260Y401320D01*
X43180Y406400D01*
X43180Y504340D01*
X63500Y524660D01*
M02*
