G04 EAGLE Gerber RS-274X export*
G75*
%MOMM*%
%FSLAX34Y34*%
%LPD*%
%INTop Copper*%
%IPPOS*%
%AMOC8*
5,1,8,0,0,1.08239X$1,22.5*%
G01*
%ADD10R,0.250000X1.250000*%
%ADD11R,0.711200X1.524000*%
%ADD12R,1.300000X1.500000*%
%ADD13R,0.700000X1.100000*%
%ADD14R,0.700000X1.800000*%
%ADD15R,2.000000X2.800000*%
%ADD16R,1.400000X1.400000*%
%ADD17R,1.600000X1.600000*%
%ADD18R,1.308000X1.308000*%
%ADD19R,1.200000X0.400000*%
%ADD20R,0.400000X1.200000*%
%ADD21C,1.524000*%
%ADD22R,1.500000X1.300000*%
%ADD23R,1.900000X1.400000*%
%ADD24R,0.635000X1.270000*%
%ADD25R,3.200000X1.800000*%
%ADD26R,1.800000X1.800000*%
%ADD27C,1.320800*%
%ADD28R,1.800000X1.600000*%
%ADD29R,1.950000X1.950000*%
%ADD30C,0.254000*%
%ADD31C,0.609600*%
%ADD32C,1.006400*%
%ADD33C,0.304800*%
%ADD34C,0.406400*%


D10*
X252300Y269780D03*
X257300Y269780D03*
X262300Y269780D03*
X267300Y269780D03*
X272300Y269780D03*
X277300Y269780D03*
X282300Y269780D03*
X287300Y269780D03*
X292300Y269780D03*
X297300Y269780D03*
X302300Y269780D03*
X307300Y269780D03*
X312300Y269780D03*
X317300Y269780D03*
X322300Y269780D03*
X327300Y269780D03*
X332300Y269780D03*
X337300Y269780D03*
X342300Y269780D03*
X347300Y269780D03*
X352300Y269780D03*
X357300Y269780D03*
X357300Y337280D03*
X352300Y337280D03*
X347300Y337280D03*
X342300Y337280D03*
X337300Y337280D03*
X332300Y337280D03*
X327300Y337280D03*
X322300Y337280D03*
X317300Y337280D03*
X312300Y337280D03*
X307300Y337280D03*
X302300Y337280D03*
X297300Y337280D03*
X292300Y337280D03*
X287300Y337280D03*
X282300Y337280D03*
X277300Y337280D03*
X272300Y337280D03*
X267300Y337280D03*
X262300Y337280D03*
X257300Y337280D03*
X252300Y337280D03*
D11*
X209550Y411480D03*
X196850Y411480D03*
X184150Y411480D03*
X171450Y411480D03*
X158750Y411480D03*
X146050Y411480D03*
X133350Y411480D03*
X120650Y411480D03*
X120650Y322580D03*
X133350Y322580D03*
X146050Y322580D03*
X158750Y322580D03*
X171450Y322580D03*
X184150Y322580D03*
X196850Y322580D03*
X209550Y322580D03*
D12*
X181220Y261620D03*
X164220Y261620D03*
X381390Y317500D03*
X398390Y317500D03*
D13*
X444260Y416840D03*
X414260Y416840D03*
D14*
X429260Y420340D03*
D15*
X429260Y443340D03*
D12*
X377580Y441960D03*
X394580Y441960D03*
D16*
X490220Y471220D03*
X490220Y509220D03*
D17*
X490220Y451340D03*
X490220Y417340D03*
D12*
X224400Y281940D03*
X207400Y281940D03*
X381390Y292100D03*
X398390Y292100D03*
X478400Y294640D03*
X461400Y294640D03*
X478400Y335280D03*
X461400Y335280D03*
D18*
X134620Y523240D03*
X210820Y472440D03*
X134620Y472440D03*
X210820Y523240D03*
X210820Y497840D03*
X134620Y497840D03*
D11*
X361950Y513080D03*
X374650Y513080D03*
X387350Y513080D03*
X400050Y513080D03*
X400050Y568960D03*
X387350Y568960D03*
X374650Y568960D03*
X361950Y568960D03*
D19*
X342720Y472250D03*
X342720Y464250D03*
X342720Y456250D03*
X342720Y448250D03*
X342720Y480250D03*
X342720Y488250D03*
X342720Y496250D03*
X342720Y504250D03*
X256720Y472250D03*
X256720Y464250D03*
X256720Y456250D03*
X256720Y448250D03*
X256720Y480250D03*
X256720Y488250D03*
X256720Y496250D03*
X256720Y504250D03*
D20*
X303720Y433250D03*
X311720Y433250D03*
X319720Y433250D03*
X327720Y433250D03*
X295720Y433250D03*
X287720Y433250D03*
X279720Y433250D03*
X271720Y433250D03*
X303720Y519250D03*
X311720Y519250D03*
X319720Y519250D03*
X327720Y519250D03*
X295720Y519250D03*
X287720Y519250D03*
X279720Y519250D03*
X271720Y519250D03*
D21*
X254000Y414020D02*
X254000Y398780D01*
X279400Y398780D02*
X279400Y414020D01*
X304800Y414020D02*
X304800Y398780D01*
X330200Y398780D02*
X330200Y414020D01*
X355600Y414020D02*
X355600Y398780D01*
D22*
X381000Y397900D03*
X381000Y414900D03*
D12*
X377580Y482600D03*
X394580Y482600D03*
X164220Y281940D03*
X181220Y281940D03*
X145660Y261620D03*
X128660Y261620D03*
D23*
X267560Y544260D03*
X311560Y544260D03*
X311560Y568260D03*
X267560Y568260D03*
D22*
X332740Y564760D03*
X332740Y547760D03*
X246380Y547760D03*
X246380Y564760D03*
D24*
X63340Y168480D03*
X53340Y146480D03*
X43340Y168480D03*
D22*
X64770Y185810D03*
X64770Y202810D03*
X41910Y185810D03*
X41910Y202810D03*
D25*
X53340Y71060D03*
X53340Y127060D03*
D22*
X87630Y185810D03*
X87630Y202810D03*
D24*
X109060Y168480D03*
X99060Y146480D03*
X89060Y168480D03*
D22*
X110490Y185810D03*
X110490Y202810D03*
D25*
X99060Y71060D03*
X99060Y127060D03*
D22*
X133350Y185810D03*
X133350Y202810D03*
D17*
X95250Y288780D03*
X95250Y254780D03*
D22*
X179070Y185810D03*
X179070Y202810D03*
X201930Y185810D03*
X201930Y202810D03*
X224790Y185810D03*
X224790Y202810D03*
X247650Y185810D03*
X247650Y202810D03*
X270510Y185810D03*
X270510Y202810D03*
X293370Y185810D03*
X293370Y202810D03*
X316230Y185810D03*
X316230Y202810D03*
X339090Y185810D03*
X339090Y202810D03*
X361950Y185810D03*
X361950Y202810D03*
X384810Y185810D03*
X384810Y202810D03*
D24*
X154780Y168480D03*
X144780Y146480D03*
X134780Y168480D03*
X200500Y168480D03*
X190500Y146480D03*
X180500Y168480D03*
D22*
X156210Y185810D03*
X156210Y202810D03*
D24*
X246220Y168480D03*
X236220Y146480D03*
X226220Y168480D03*
X291940Y168480D03*
X281940Y146480D03*
X271940Y168480D03*
X337660Y168480D03*
X327660Y146480D03*
X317660Y168480D03*
X383380Y168480D03*
X373380Y146480D03*
X363380Y168480D03*
D22*
X407670Y185810D03*
X407670Y202810D03*
X430530Y185810D03*
X430530Y202810D03*
X453390Y185810D03*
X453390Y202810D03*
X476250Y185810D03*
X476250Y202810D03*
X499110Y185810D03*
X499110Y202810D03*
X521970Y185810D03*
X521970Y202810D03*
X544830Y185810D03*
X544830Y202810D03*
D24*
X429100Y168480D03*
X419100Y146480D03*
X409100Y168480D03*
X474820Y168480D03*
X464820Y146480D03*
X454820Y168480D03*
X520540Y168480D03*
X510540Y146480D03*
X500540Y168480D03*
D22*
X567690Y185810D03*
X567690Y202810D03*
D24*
X566260Y168480D03*
X556260Y146480D03*
X546260Y168480D03*
D25*
X144780Y71060D03*
X144780Y127060D03*
X190500Y71060D03*
X190500Y127060D03*
X236220Y71060D03*
X236220Y127060D03*
X281940Y71060D03*
X281940Y127060D03*
X327660Y71060D03*
X327660Y127060D03*
X373380Y71060D03*
X373380Y127060D03*
X419100Y71060D03*
X419100Y127060D03*
X464820Y71060D03*
X464820Y127060D03*
X510540Y71060D03*
X510540Y127060D03*
X556260Y71060D03*
X556260Y127060D03*
D26*
X94800Y38100D03*
X129800Y38100D03*
X164800Y38100D03*
X199800Y38100D03*
X234800Y38100D03*
X269800Y38100D03*
X304800Y38100D03*
X339800Y38100D03*
X374800Y38100D03*
X409800Y38100D03*
X444800Y38100D03*
X479800Y38100D03*
X514800Y38100D03*
D27*
X443484Y523240D02*
X430276Y523240D01*
X430276Y497840D02*
X443484Y497840D01*
X443484Y472440D02*
X430276Y472440D01*
D12*
X394580Y462280D03*
X377580Y462280D03*
X478400Y314960D03*
X461400Y314960D03*
X145660Y281940D03*
X128660Y281940D03*
D28*
X467360Y417800D03*
X467360Y445800D03*
D22*
X228600Y397900D03*
X228600Y414900D03*
D29*
X63500Y384660D03*
X63500Y419660D03*
X63500Y454660D03*
X63500Y489660D03*
X63500Y524660D03*
X546100Y524660D03*
X546100Y489660D03*
X546100Y454660D03*
X546100Y419660D03*
X546100Y384660D03*
X546100Y335000D03*
X546100Y300000D03*
X63500Y300000D03*
X63500Y335000D03*
D30*
X342300Y337280D02*
X342300Y316230D01*
X355600Y316230D01*
X337300Y316230D02*
X337300Y337280D01*
X337300Y316230D02*
X342300Y316230D01*
X287300Y316230D02*
X287300Y337280D01*
X287300Y316230D02*
X292100Y316230D01*
X282300Y316230D02*
X282300Y337280D01*
X282300Y316230D02*
X292100Y316230D01*
X277300Y316230D02*
X277300Y337280D01*
X277300Y316230D02*
X292100Y316230D01*
X272300Y316230D02*
X272300Y337280D01*
X272300Y316230D02*
X292100Y316230D01*
D31*
X547760Y71060D02*
X514800Y38100D01*
X547760Y71060D02*
X556260Y71060D01*
X556260Y90170D01*
D30*
X196926Y322656D02*
X196850Y322580D01*
X196926Y322656D02*
X196926Y339090D01*
X120650Y339090D02*
X120650Y322580D01*
X398390Y317500D02*
X411480Y317500D01*
X414020Y320040D01*
X411480Y292100D02*
X398390Y292100D01*
X411480Y292100D02*
X414020Y289560D01*
X478400Y335280D02*
X485140Y335280D01*
X492760Y342900D01*
X164220Y261620D02*
X145660Y261620D01*
X159140Y253120D02*
X164220Y261620D01*
X159140Y253120D02*
X154940Y248920D01*
X116840Y248920D01*
X111760Y254000D01*
X111760Y271780D01*
D32*
X196926Y339090D03*
X292100Y316230D03*
X355600Y316230D03*
X120650Y339090D03*
X111760Y271780D03*
X556260Y90170D03*
X492760Y342900D03*
X414020Y320040D03*
X414020Y289560D03*
D30*
X262300Y337280D02*
X262300Y344760D01*
X259080Y347980D01*
X246380Y347980D01*
X228600Y330200D01*
X228600Y307340D01*
X226060Y304800D01*
X171450Y316230D02*
X171450Y322580D01*
X171450Y316230D02*
X182880Y304800D01*
X226060Y304800D01*
X267300Y337280D02*
X267300Y347380D01*
X261620Y353060D01*
X243840Y353060D01*
X223520Y332740D01*
X223520Y309880D01*
X184150Y313690D02*
X184150Y322580D01*
X184150Y313690D02*
X187960Y309880D01*
X223520Y309880D01*
X257300Y325120D02*
X257300Y337280D01*
X257300Y325120D02*
X241300Y325120D01*
X238760Y322580D01*
X238760Y302260D01*
X231140Y294640D01*
X146050Y317250D02*
X146050Y322580D01*
X207400Y294640D02*
X207400Y281940D01*
X207400Y294640D02*
X231140Y294640D01*
X168660Y294640D02*
X146050Y317250D01*
X168660Y294640D02*
X207400Y294640D01*
X252300Y330200D02*
X252300Y337280D01*
X252300Y330200D02*
X238760Y330200D01*
X233680Y325120D01*
X233680Y304800D01*
X228600Y299720D01*
X158750Y316230D02*
X158750Y322580D01*
X158750Y316230D02*
X175260Y299720D01*
X228600Y299720D01*
X317300Y323850D02*
X317300Y337280D01*
X312300Y337280D02*
X312300Y323850D01*
X317300Y323850D01*
X307300Y323850D02*
X307300Y337280D01*
X307300Y323850D02*
X312300Y323850D01*
X307300Y337280D02*
X307300Y345480D01*
X304800Y347980D01*
X274320Y347980D01*
X264160Y358140D01*
X241300Y358140D01*
X209550Y326390D01*
X209550Y322580D01*
X307300Y323850D02*
X307300Y317460D01*
X279400Y289560D01*
X246380Y289560D01*
X238760Y281940D01*
X224400Y281940D01*
X335280Y292100D02*
X381390Y292100D01*
X335280Y292100D02*
X317300Y310080D01*
X317300Y323850D01*
X252300Y269780D02*
X252300Y264160D01*
X106190Y243840D02*
X95250Y254780D01*
X178680Y264160D02*
X252300Y264160D01*
X181220Y261620D02*
X178680Y264160D01*
X181220Y261620D02*
X176140Y252340D01*
X167640Y243840D01*
X106190Y243840D01*
D31*
X196850Y393700D02*
X196850Y411480D01*
D33*
X332550Y480250D02*
X342720Y480250D01*
X332550Y480250D02*
X325120Y487680D01*
D31*
X196850Y393700D02*
X120650Y393700D01*
X120650Y411480D01*
X120650Y431800D01*
D33*
X374650Y513080D02*
X374650Y529590D01*
X397510Y406400D02*
X389010Y397900D01*
X381000Y397900D01*
X254000Y397900D02*
X228600Y397900D01*
X254000Y397900D02*
X254000Y406400D01*
X246380Y564760D02*
X281060Y564760D01*
X289560Y556260D01*
X298060Y547760D02*
X332740Y547760D01*
X298060Y547760D02*
X289560Y556260D01*
X429260Y443340D02*
X431720Y445800D01*
X467360Y445800D01*
D31*
X429260Y443340D02*
X429260Y401320D01*
D33*
X256720Y480250D02*
X249110Y480250D01*
X241300Y472440D01*
X394580Y443340D02*
X394580Y441960D01*
X394580Y443340D02*
X429260Y443340D01*
D32*
X120650Y431800D03*
X241300Y472440D03*
X325120Y487680D03*
X374650Y529590D03*
X397510Y406400D03*
X289560Y556260D03*
X429260Y401320D03*
D33*
X490220Y451340D02*
X490220Y471220D01*
X228600Y430530D02*
X228600Y414900D01*
X228600Y411480D02*
X209550Y411480D01*
X228600Y411480D02*
X228600Y414900D01*
X373380Y500380D02*
X383540Y500380D01*
X387350Y504190D01*
X387350Y513080D01*
X266130Y488250D02*
X256720Y488250D01*
X266130Y488250D02*
X274320Y480060D01*
X274320Y472440D02*
X274510Y472250D01*
X274320Y472440D02*
X274320Y480060D01*
X325120Y472250D02*
X342720Y472250D01*
X325120Y472250D02*
X274510Y472250D01*
X325120Y472250D02*
X325120Y472440D01*
X355600Y482600D02*
X373380Y500380D01*
X355600Y482600D02*
X355600Y477520D01*
X350330Y472250D01*
X342720Y472250D01*
X350520Y436880D02*
X358140Y429260D01*
X365760Y429260D01*
X377580Y429260D02*
X401840Y429260D01*
X414260Y416840D01*
X377580Y429260D02*
X377580Y441960D01*
X377580Y429260D02*
X365760Y429260D01*
D32*
X274320Y472440D03*
X228600Y430530D03*
X325120Y472440D03*
X350520Y436880D03*
D30*
X322300Y337280D02*
X322300Y312700D01*
X248920Y284480D02*
X233680Y269240D01*
X322300Y312700D02*
X330200Y304800D01*
X381390Y304800D02*
X414020Y304800D01*
X381390Y304800D02*
X381390Y317500D01*
X337820Y304800D02*
X330200Y304800D01*
X337820Y304800D02*
X381390Y304800D01*
X454660Y294640D02*
X461400Y294640D01*
X454660Y294640D02*
X444500Y304800D01*
X317500Y284480D02*
X248920Y284480D01*
X317500Y284480D02*
X322580Y289560D01*
X233680Y269240D02*
X193920Y269240D01*
X181220Y281940D01*
D32*
X414020Y304800D03*
X444500Y304800D03*
X337820Y304800D03*
X322580Y289560D03*
D30*
X332300Y337280D02*
X332300Y347540D01*
X342900Y358140D01*
X419100Y358140D01*
X461400Y335280D02*
X461400Y314960D01*
X461400Y335280D02*
X441960Y335280D01*
X419100Y358140D01*
D34*
X505660Y524660D02*
X546100Y524660D01*
X505660Y524660D02*
X490220Y509220D01*
D31*
X63500Y384660D02*
X43180Y404980D01*
X43180Y538480D01*
D32*
X43180Y538480D03*
D34*
X147320Y412750D02*
X146050Y411480D01*
D33*
X256720Y463550D02*
X256720Y464250D01*
X256720Y463550D02*
X245110Y463550D01*
X241300Y459740D01*
X186690Y459740D01*
X146050Y419100D02*
X146050Y411480D01*
X146050Y419100D02*
X186690Y459740D01*
X158750Y419100D02*
X158750Y411480D01*
X158750Y419100D02*
X193040Y453390D01*
X247970Y456250D02*
X256720Y456250D01*
X247970Y456250D02*
X245110Y453390D01*
X193040Y453390D01*
X171450Y419100D02*
X171450Y411480D01*
X171450Y419100D02*
X199390Y447040D01*
X255510Y447040D01*
X256720Y448250D01*
X184150Y419100D02*
X184150Y411480D01*
X265430Y440690D02*
X271720Y434400D01*
X271720Y433250D01*
X265430Y440690D02*
X205740Y440690D01*
X184150Y419100D01*
X489760Y417800D02*
X490220Y417340D01*
X489760Y417800D02*
X467360Y417800D01*
X445220Y417800D02*
X444260Y416840D01*
X445220Y417800D02*
X467360Y417800D01*
D30*
X417100Y337280D02*
X357300Y337280D01*
X417100Y337280D02*
X424180Y330200D01*
X424180Y287020D01*
X497840Y213360D01*
X511420Y213360D01*
X521970Y202810D01*
X352300Y337280D02*
X352300Y344680D01*
X355600Y347980D01*
X414020Y347980D01*
X429260Y332740D01*
X429260Y289560D01*
X500380Y218440D01*
X529200Y218440D01*
X544830Y202810D01*
X347300Y337280D02*
X347300Y347300D01*
X353060Y353060D01*
X416560Y353060D01*
X434340Y335280D01*
X434340Y292100D01*
X502920Y223520D01*
X546980Y223520D01*
X567690Y202810D01*
D33*
X327720Y433250D02*
X319720Y433250D01*
X327720Y433250D02*
X335100Y433250D01*
X355600Y412750D01*
X355600Y406400D01*
X355600Y414900D02*
X381000Y414900D01*
X355600Y414900D02*
X355600Y406400D01*
X342720Y456250D02*
X319720Y456250D01*
X312420Y463550D01*
X292100Y463550D01*
X279400Y450850D01*
X371550Y456250D02*
X377580Y462280D01*
X371550Y456250D02*
X342720Y456250D01*
D32*
X279400Y450850D03*
D33*
X307340Y448250D02*
X342720Y448250D01*
X307340Y448250D02*
X304800Y450850D01*
D32*
X304800Y450850D03*
D33*
X303720Y484950D02*
X303720Y519250D01*
X303720Y484950D02*
X306070Y482600D01*
D32*
X306070Y482600D03*
D33*
X383540Y539750D02*
X400050Y523240D01*
X400050Y513080D01*
X383540Y539750D02*
X367030Y539750D01*
X348930Y496250D02*
X342720Y496250D01*
X348930Y496250D02*
X353060Y500380D01*
X353060Y525780D01*
X367030Y539750D01*
X351090Y488250D02*
X342720Y488250D01*
X361950Y499110D02*
X361950Y513080D01*
X361950Y499110D02*
X351090Y488250D01*
D34*
X374650Y556260D02*
X374650Y568960D01*
X374650Y556260D02*
X416560Y556260D01*
X416560Y584200D01*
X374650Y584200D02*
X374650Y568960D01*
X374650Y584200D02*
X121920Y584200D01*
X111760Y574040D01*
X111760Y457200D01*
X74220Y419660D02*
X63500Y419660D01*
X74220Y419660D02*
X111760Y457200D01*
X416560Y584200D02*
X515620Y584200D01*
X563880Y535940D01*
X563880Y507440D01*
X546100Y489660D01*
X387350Y568960D02*
X387350Y591820D01*
X520700Y591820D01*
X574040Y538480D01*
X574040Y482600D01*
X546100Y454660D01*
X86360Y454660D02*
X63500Y454660D01*
X86360Y454660D02*
X101600Y469900D01*
X116840Y591820D02*
X387350Y591820D01*
X116840Y591820D02*
X101600Y576580D01*
X101600Y469900D01*
D33*
X279720Y519250D02*
X279720Y528000D01*
X276860Y530860D01*
X266700Y530860D01*
X259080Y523240D01*
X210820Y523240D01*
X147320Y510540D02*
X134620Y523240D01*
X147320Y510540D02*
X236220Y510540D01*
X241300Y515620D01*
X271720Y515620D01*
X271720Y519250D01*
X256720Y504250D02*
X247710Y504250D01*
X228600Y485140D01*
X198120Y485140D01*
X185420Y472440D01*
X134620Y472440D01*
X249870Y496250D02*
X256720Y496250D01*
X249870Y496250D02*
X226060Y472440D01*
X210820Y472440D01*
D30*
X327300Y345800D02*
X327300Y337280D01*
X327300Y345800D02*
X320040Y353060D01*
X276860Y353060D01*
X266700Y363220D01*
X128660Y281940D02*
X128660Y261620D01*
X238760Y363220D02*
X266700Y363220D01*
X238760Y363220D02*
X228600Y353060D01*
X128660Y281940D02*
X127000Y276860D01*
X127000Y281940D02*
X128660Y281940D01*
X127000Y281940D02*
X91440Y317500D01*
X53340Y317500D01*
X48260Y322580D01*
X48260Y347980D01*
X53340Y353060D01*
X228600Y353060D01*
D33*
X332740Y564760D02*
X330510Y568260D01*
X311560Y568260D01*
X319720Y525460D02*
X319720Y519250D01*
X319720Y525460D02*
X325120Y530860D01*
X337820Y530860D01*
X345440Y538480D01*
X345440Y558800D01*
X339480Y564760D01*
X332740Y564760D01*
X311720Y526480D02*
X311720Y519250D01*
X311720Y526480D02*
X307340Y530860D01*
X267560Y544260D02*
X249880Y544260D01*
X246380Y547760D01*
X267560Y544260D02*
X276160Y544260D01*
X289560Y530860D01*
X307340Y530860D01*
X370840Y482600D02*
X377580Y482600D01*
X370840Y482600D02*
X352490Y464250D01*
X342720Y464250D01*
D31*
X53340Y146480D02*
X53340Y127060D01*
X63340Y184380D02*
X64770Y185810D01*
X63340Y184380D02*
X63340Y168480D01*
X48260Y38100D02*
X94800Y38100D01*
X48260Y38100D02*
X30480Y55880D01*
X30480Y155620D01*
X43340Y168480D01*
X43340Y184380D01*
X41910Y185810D01*
D30*
X35170Y185810D01*
X30480Y190500D01*
X30480Y213360D01*
X48260Y213360D01*
X53340Y218440D01*
X66040Y218440D01*
X81280Y233680D01*
X81280Y274810D01*
X95250Y288780D01*
X257300Y269780D02*
X257300Y262380D01*
X254000Y259080D01*
X218440Y259080D01*
X208280Y248920D01*
X180340Y248920D01*
X170180Y238760D01*
X93980Y238760D01*
X68580Y213360D01*
X55000Y213360D01*
X44450Y202810D01*
X41910Y202810D01*
X262300Y259760D02*
X262300Y269780D01*
X262300Y259760D02*
X256540Y254000D01*
X220980Y254000D01*
X210820Y243840D01*
X182880Y243840D01*
X172720Y233680D01*
X95640Y233680D01*
X64770Y202810D01*
X267300Y257140D02*
X267300Y269780D01*
X267300Y257140D02*
X259080Y248920D01*
X223520Y248920D01*
X213360Y238760D01*
X185420Y238760D01*
X175260Y228600D01*
X113420Y228600D01*
X87630Y202810D01*
D31*
X113290Y54610D02*
X129800Y38100D01*
X76200Y155620D02*
X89060Y168480D01*
X76200Y155620D02*
X76200Y71060D01*
X76200Y59690D02*
X81280Y54610D01*
X113290Y54610D01*
X76200Y71060D02*
X53340Y71060D01*
X76200Y71060D02*
X76200Y59690D01*
X89060Y184380D02*
X87630Y185810D01*
X89060Y184380D02*
X89060Y168480D01*
X99060Y146480D02*
X99060Y127060D01*
X121920Y155620D02*
X134780Y168480D01*
X121920Y155620D02*
X121920Y71060D01*
X121920Y59690D02*
X127000Y54610D01*
X164800Y47290D02*
X164800Y38100D01*
X164800Y47290D02*
X157480Y54610D01*
X127000Y54610D01*
X121920Y71060D02*
X99060Y71060D01*
X121920Y71060D02*
X121920Y59690D01*
X134780Y184380D02*
X133350Y185810D01*
X134780Y184380D02*
X134780Y168480D01*
D30*
X277300Y251900D02*
X277300Y269780D01*
X277300Y251900D02*
X264160Y238760D01*
X228600Y238760D01*
X218440Y228600D01*
X190500Y228600D01*
X180340Y218440D01*
X148980Y218440D01*
X133350Y202810D01*
X272300Y254520D02*
X272300Y269780D01*
X272300Y254520D02*
X261620Y243840D01*
X226060Y243840D01*
X215900Y233680D01*
X187960Y233680D01*
X177800Y223520D01*
X131200Y223520D01*
X110490Y202810D01*
D31*
X110490Y185810D02*
X109060Y184380D01*
X109060Y168480D01*
X144780Y146480D02*
X144780Y127060D01*
D30*
X287300Y246660D02*
X287300Y269780D01*
X287300Y246660D02*
X269240Y228600D01*
X233680Y228600D01*
X223520Y218440D01*
X194700Y218440D01*
X179070Y202810D01*
X297300Y241420D02*
X297300Y269780D01*
X297300Y241420D02*
X274320Y218440D01*
X238760Y218440D01*
X224790Y204470D01*
X224790Y202810D01*
X307300Y236180D02*
X307300Y269780D01*
X307300Y236180D02*
X276860Y205740D01*
X273440Y205740D01*
X270510Y202810D01*
X317300Y203880D02*
X317300Y269780D01*
X317300Y203880D02*
X316230Y202810D01*
X327300Y237460D02*
X327300Y269780D01*
X327300Y237460D02*
X361950Y202810D01*
X337300Y241820D02*
X337300Y269780D01*
X337300Y241820D02*
X360680Y218440D01*
X392040Y218440D01*
X407670Y202810D01*
X347300Y247060D02*
X347300Y269780D01*
X347300Y247060D02*
X365760Y228600D01*
X427600Y228600D01*
X453390Y202810D01*
X357300Y252300D02*
X357300Y269780D01*
X357300Y252300D02*
X370840Y238760D01*
X463160Y238760D01*
X499110Y202810D01*
D31*
X180500Y168480D02*
X167640Y155620D01*
X167640Y71060D01*
X167640Y58420D02*
X171450Y54610D01*
X183290Y54610D01*
X199800Y38100D01*
X167640Y71060D02*
X144780Y71060D01*
X167640Y71060D02*
X167640Y58420D01*
X180500Y184380D02*
X179070Y185810D01*
X180500Y184380D02*
X180500Y168480D01*
X213360Y155620D02*
X226220Y168480D01*
X213360Y155620D02*
X213360Y71060D01*
X213360Y59540D02*
X234800Y38100D01*
X213360Y71060D02*
X190500Y71060D01*
X213360Y71060D02*
X213360Y59540D01*
X226220Y184380D02*
X224790Y185810D01*
X226220Y184380D02*
X226220Y168480D01*
X190500Y146480D02*
X190500Y127060D01*
X200500Y184380D02*
X201930Y185810D01*
X200500Y184380D02*
X200500Y168480D01*
X156210Y185810D02*
X154780Y184380D01*
X154780Y168480D01*
X246220Y184380D02*
X247650Y185810D01*
X246220Y184380D02*
X246220Y168480D01*
X292100Y187080D02*
X293370Y185810D01*
X292100Y187080D02*
X292100Y190500D01*
X291940Y190340D01*
X291940Y168480D01*
X337660Y184380D02*
X339090Y185810D01*
X337660Y184380D02*
X337660Y168480D01*
X566260Y184380D02*
X567690Y185810D01*
X566260Y184380D02*
X566260Y168480D01*
X384810Y185810D02*
X383380Y184380D01*
X383380Y168480D01*
X429100Y184380D02*
X430530Y185810D01*
X429100Y184380D02*
X429100Y168480D01*
X474820Y184380D02*
X476250Y185810D01*
X474820Y184380D02*
X474820Y168480D01*
X520540Y184380D02*
X521970Y185810D01*
X520540Y184380D02*
X520540Y168480D01*
X533400Y155620D02*
X546260Y168480D01*
X533400Y155620D02*
X533400Y71060D01*
X510540Y71060D01*
X510540Y68840D02*
X479800Y38100D01*
X510540Y68840D02*
X510540Y71060D01*
X546260Y184380D02*
X544830Y185810D01*
X546260Y184380D02*
X546260Y168480D01*
X464820Y58120D02*
X444800Y38100D01*
X464820Y58120D02*
X464820Y71060D01*
X487680Y71060D01*
X487680Y155620D02*
X500540Y168480D01*
X487680Y155620D02*
X487680Y71060D01*
X500540Y184380D02*
X499110Y185810D01*
X500540Y184380D02*
X500540Y168480D01*
X454820Y168480D02*
X441960Y155620D01*
X419100Y47400D02*
X409800Y38100D01*
X419100Y47400D02*
X419100Y71060D01*
X441960Y71060D02*
X441960Y155620D01*
X441960Y71060D02*
X419100Y71060D01*
X454820Y184380D02*
X453390Y185810D01*
X454820Y184380D02*
X454820Y168480D01*
X510540Y146480D02*
X510540Y127060D01*
X556260Y127060D02*
X556260Y146480D01*
X464820Y146480D02*
X464820Y127060D01*
X409100Y168480D02*
X396240Y155620D01*
X396240Y71060D02*
X396240Y59540D01*
X374800Y38100D01*
X373380Y71060D02*
X396240Y71060D01*
X396240Y155620D01*
X409100Y184380D02*
X407670Y185810D01*
X409100Y184380D02*
X409100Y168480D01*
X419100Y146480D02*
X419100Y127060D01*
X363380Y168480D02*
X350520Y155620D01*
X350520Y71060D01*
X350520Y48820D02*
X339800Y38100D01*
X350520Y71060D02*
X327660Y71060D01*
X350520Y71060D02*
X350520Y48820D01*
X363380Y184380D02*
X361950Y185810D01*
X363380Y184380D02*
X363380Y168480D01*
X373380Y146480D02*
X373380Y127060D01*
X317660Y168480D02*
X304800Y155620D01*
X304800Y71060D01*
X281940Y71060D01*
X304800Y71060D02*
X304800Y38100D01*
X317660Y184380D02*
X316230Y185810D01*
X317660Y184380D02*
X317660Y168480D01*
X271940Y168480D02*
X259080Y155620D01*
X259080Y48820D02*
X269800Y38100D01*
X259080Y71060D02*
X259080Y155620D01*
X259080Y71060D02*
X236220Y71060D01*
X259080Y71060D02*
X259080Y48820D01*
X271940Y184380D02*
X270510Y185810D01*
X271940Y184380D02*
X271940Y168480D01*
X281940Y146480D02*
X281940Y127060D01*
X327660Y127060D02*
X327660Y146480D01*
X236220Y146480D02*
X236220Y127060D01*
D30*
X282300Y249280D02*
X282300Y269780D01*
X282300Y249280D02*
X266700Y233680D01*
X231140Y233680D01*
X220980Y223520D01*
X193040Y223520D01*
X182880Y213360D01*
X166760Y213360D01*
X156210Y202810D01*
X292300Y244040D02*
X292300Y269780D01*
X292300Y244040D02*
X271780Y223520D01*
X236220Y223520D01*
X226060Y213360D01*
X212480Y213360D01*
X201930Y202810D01*
X247650Y202810D02*
X258200Y213360D01*
X302300Y238800D02*
X302300Y269780D01*
X302300Y238800D02*
X276860Y213360D01*
X258200Y213360D01*
X312300Y233560D02*
X312300Y269780D01*
X312300Y233560D02*
X293370Y214630D01*
X293370Y202810D01*
X322300Y219600D02*
X322300Y269780D01*
X322300Y219600D02*
X339090Y202810D01*
X332300Y239200D02*
X332300Y269780D01*
X332300Y239200D02*
X358140Y213360D01*
X374260Y213360D01*
X384810Y202810D01*
X342300Y244440D02*
X342300Y269780D01*
X342300Y244440D02*
X363220Y223520D01*
X409820Y223520D01*
X430530Y202810D01*
X352300Y249680D02*
X352300Y269780D01*
X352300Y249680D02*
X368300Y233680D01*
X445380Y233680D01*
X476250Y202810D01*
D33*
X361950Y544830D02*
X361950Y568960D01*
X342720Y525600D02*
X342720Y504250D01*
X342720Y525600D02*
X361950Y544830D01*
X435220Y523240D02*
X436880Y523240D01*
X435220Y523240D02*
X394580Y482600D01*
X414020Y472440D02*
X436880Y472440D01*
X414020Y472440D02*
X403860Y462280D01*
X394580Y462280D01*
D30*
X478400Y314960D02*
X478400Y294640D01*
X478400Y314960D02*
X531140Y314960D01*
X546100Y300000D01*
X164220Y281940D02*
X145660Y281940D01*
X81560Y335000D02*
X63500Y335000D01*
X81560Y335000D02*
X121920Y294640D01*
X137160Y294640D01*
X144780Y287020D01*
X144780Y282820D01*
X145660Y281940D01*
M02*
