G04 EAGLE Gerber RS-274X export*
G75*
%MOMM*%
%FSLAX34Y34*%
%LPD*%
%INSilkscreen Top*%
%IPPOS*%
%AMOC8*
5,1,8,0,0,1.08239X$1,22.5*%
G01*
%ADD10C,0.127000*%
%ADD11C,0.101600*%
%ADD12C,0.076200*%
%ADD13C,0.304800*%
%ADD14C,0.152400*%
%ADD15C,0.203200*%
%ADD16C,0.364000*%
%ADD17C,0.254000*%


D10*
X121285Y248297D02*
X130606Y248297D01*
X130606Y245967D01*
X121285Y236645D01*
X121285Y234315D01*
X130606Y234315D01*
X135318Y248297D02*
X144639Y248297D01*
X135318Y248297D02*
X135318Y234315D01*
X144639Y234315D01*
X139978Y241306D02*
X135318Y241306D01*
X149351Y238976D02*
X149351Y248297D01*
X149351Y238976D02*
X154011Y234315D01*
X158672Y238976D01*
X158672Y248297D01*
X163383Y243636D02*
X163383Y234315D01*
X163383Y243636D02*
X168044Y248297D01*
X172705Y243636D01*
X172705Y234315D01*
X172705Y241306D02*
X163383Y241306D01*
X191449Y234315D02*
X191449Y248297D01*
X198440Y248297D01*
X200770Y245967D01*
X200770Y243636D01*
X198440Y241306D01*
X200770Y238976D01*
X200770Y236645D01*
X198440Y234315D01*
X191449Y234315D01*
X191449Y241306D02*
X198440Y241306D01*
X205482Y234315D02*
X205482Y248297D01*
X210142Y243636D01*
X214803Y248297D01*
X214803Y234315D01*
X226505Y248297D02*
X228836Y245967D01*
X226505Y248297D02*
X221845Y248297D01*
X219514Y245967D01*
X219514Y243636D01*
X221845Y241306D01*
X226505Y241306D01*
X228836Y238976D01*
X228836Y236645D01*
X226505Y234315D01*
X221845Y234315D01*
X219514Y236645D01*
X233547Y243636D02*
X238208Y248297D01*
X238208Y234315D01*
X233547Y234315D02*
X242869Y234315D01*
X247580Y234315D02*
X256901Y234315D01*
X247580Y234315D02*
X256901Y243636D01*
X256901Y245967D01*
X254571Y248297D01*
X249910Y248297D01*
X247580Y245967D01*
X275646Y243636D02*
X280306Y234315D01*
X284967Y243636D01*
X289678Y245967D02*
X292009Y248297D01*
X296669Y248297D01*
X299000Y245967D01*
X299000Y243636D01*
X296669Y241306D01*
X294339Y241306D01*
X296669Y241306D02*
X299000Y238976D01*
X299000Y236645D01*
X296669Y234315D01*
X292009Y234315D01*
X289678Y236645D01*
X303711Y236645D02*
X303711Y234315D01*
X303711Y236645D02*
X306041Y236645D01*
X306041Y234315D01*
X303711Y234315D01*
X310728Y236645D02*
X310728Y245967D01*
X313058Y248297D01*
X317719Y248297D01*
X320049Y245967D01*
X320049Y236645D01*
X317719Y234315D01*
X313058Y234315D01*
X310728Y236645D01*
X320049Y245967D01*
X338793Y241306D02*
X348114Y241306D01*
X369189Y248297D02*
X373850Y248297D01*
X369189Y248297D02*
X366859Y245967D01*
X366859Y236645D01*
X369189Y234315D01*
X373850Y234315D01*
X376180Y236645D01*
X376180Y245967D01*
X373850Y248297D01*
X387882Y248297D02*
X390213Y245967D01*
X387882Y248297D02*
X383222Y248297D01*
X380891Y245967D01*
X380891Y243636D01*
X383222Y241306D01*
X387882Y241306D01*
X390213Y238976D01*
X390213Y236645D01*
X387882Y234315D01*
X383222Y234315D01*
X380891Y236645D01*
X408957Y248297D02*
X418278Y248297D01*
X408957Y248297D02*
X408957Y234315D01*
X418278Y234315D01*
X413618Y241306D02*
X408957Y241306D01*
X432311Y248297D02*
X432311Y234315D01*
X425320Y234315D01*
X422990Y236645D01*
X422990Y241306D01*
X425320Y243636D01*
X432311Y243636D01*
X437023Y243636D02*
X439353Y243636D01*
X439353Y234315D01*
X437023Y234315D02*
X441683Y234315D01*
X439353Y248297D02*
X439353Y250627D01*
X448708Y245967D02*
X448708Y236645D01*
X451038Y234315D01*
X451038Y243636D02*
X446378Y243636D01*
X455733Y243636D02*
X458063Y243636D01*
X458063Y234315D01*
X455733Y234315D02*
X460394Y234315D01*
X458063Y248297D02*
X458063Y250627D01*
X467418Y234315D02*
X472079Y234315D01*
X474409Y236645D01*
X474409Y241306D01*
X472079Y243636D01*
X467418Y243636D01*
X465088Y241306D01*
X465088Y236645D01*
X467418Y234315D01*
X479121Y234315D02*
X479121Y243636D01*
X486112Y243636D01*
X488442Y241306D01*
X488442Y234315D01*
D11*
X124968Y556768D02*
X124968Y568462D01*
X128866Y564564D01*
X132764Y568462D01*
X132764Y556768D01*
X138611Y568462D02*
X142509Y568462D01*
X138611Y568462D02*
X136662Y566513D01*
X136662Y558717D01*
X138611Y556768D01*
X142509Y556768D01*
X144458Y558717D01*
X144458Y566513D01*
X142509Y568462D01*
X148356Y568462D02*
X148356Y556768D01*
X154203Y556768D01*
X156152Y558717D01*
X156152Y566513D01*
X154203Y568462D01*
X148356Y568462D01*
X160050Y568462D02*
X160050Y558717D01*
X161999Y556768D01*
X165897Y556768D01*
X167846Y558717D01*
X167846Y568462D01*
X171744Y568462D02*
X171744Y556768D01*
X179540Y556768D01*
X183438Y568462D02*
X191234Y568462D01*
X183438Y568462D02*
X183438Y556768D01*
X191234Y556768D01*
X187336Y562615D02*
X183438Y562615D01*
X206826Y556768D02*
X210724Y556768D01*
X208775Y556768D02*
X208775Y568462D01*
X206826Y568462D02*
X210724Y568462D01*
X214622Y568462D02*
X214622Y556768D01*
X220469Y556768D01*
X222418Y558717D01*
X222418Y566513D01*
X220469Y568462D01*
X214622Y568462D01*
D12*
X245114Y433967D02*
X246682Y432399D01*
X245114Y433967D02*
X241979Y433967D01*
X240411Y432399D01*
X240411Y426129D01*
X241979Y424561D01*
X245114Y424561D01*
X246682Y426129D01*
X246682Y429264D01*
X243546Y429264D01*
X249766Y424561D02*
X249766Y433967D01*
X256037Y424561D01*
X256037Y433967D01*
X259121Y433967D02*
X259121Y424561D01*
X263824Y424561D01*
X265392Y426129D01*
X265392Y432399D01*
X263824Y433967D01*
X259121Y433967D01*
D11*
X88226Y228102D02*
X84328Y224204D01*
X88226Y228102D02*
X88226Y216408D01*
X84328Y216408D02*
X92124Y216408D01*
X96022Y216408D02*
X103818Y216408D01*
X96022Y216408D02*
X103818Y224204D01*
X103818Y226153D01*
X101869Y228102D01*
X97971Y228102D01*
X96022Y226153D01*
X107716Y222255D02*
X115512Y222255D01*
X121359Y224204D02*
X127206Y224204D01*
X121359Y224204D02*
X119410Y222255D01*
X119410Y218357D01*
X121359Y216408D01*
X127206Y216408D01*
X133053Y216408D02*
X136951Y216408D01*
X133053Y216408D02*
X131104Y218357D01*
X131104Y222255D01*
X133053Y224204D01*
X136951Y224204D01*
X138900Y222255D01*
X138900Y220306D01*
X131104Y220306D01*
X142798Y228102D02*
X144747Y228102D01*
X144747Y216408D01*
X142798Y216408D02*
X146696Y216408D01*
X150594Y228102D02*
X152543Y228102D01*
X152543Y216408D01*
X150594Y216408D02*
X154492Y216408D01*
X170084Y216408D02*
X170084Y228102D01*
X170084Y216408D02*
X177880Y216408D01*
X181778Y224204D02*
X183727Y224204D01*
X183727Y216408D01*
X181778Y216408D02*
X185676Y216408D01*
X183727Y228102D02*
X183727Y230051D01*
X191523Y226153D02*
X191523Y218357D01*
X193472Y216408D01*
X193472Y224204D02*
X189574Y224204D01*
X197370Y228102D02*
X197370Y216408D01*
X197370Y222255D02*
X199319Y224204D01*
X203217Y224204D01*
X205166Y222255D01*
X205166Y216408D01*
X209064Y224204D02*
X211013Y224204D01*
X211013Y216408D01*
X209064Y216408D02*
X212962Y216408D01*
X211013Y228102D02*
X211013Y230051D01*
X216860Y224204D02*
X216860Y218357D01*
X218809Y216408D01*
X224656Y216408D01*
X224656Y224204D01*
X228554Y224204D02*
X228554Y216408D01*
X228554Y224204D02*
X230503Y224204D01*
X232452Y222255D01*
X232452Y216408D01*
X232452Y222255D02*
X234401Y224204D01*
X236350Y222255D01*
X236350Y216408D01*
X251942Y216408D02*
X251942Y228102D01*
X257788Y228102D01*
X259737Y226153D01*
X259737Y224204D01*
X257788Y222255D01*
X259737Y220306D01*
X259737Y218357D01*
X257788Y216408D01*
X251942Y216408D01*
X251942Y222255D02*
X257788Y222255D01*
X265584Y224204D02*
X269482Y224204D01*
X271431Y222255D01*
X271431Y216408D01*
X265584Y216408D01*
X263635Y218357D01*
X265584Y220306D01*
X271431Y220306D01*
X277278Y218357D02*
X277278Y226153D01*
X277278Y218357D02*
X279227Y216408D01*
X279227Y224204D02*
X275329Y224204D01*
X285074Y226153D02*
X285074Y218357D01*
X287023Y216408D01*
X287023Y224204D02*
X283125Y224204D01*
X292870Y216408D02*
X296768Y216408D01*
X292870Y216408D02*
X290921Y218357D01*
X290921Y222255D01*
X292870Y224204D01*
X296768Y224204D01*
X298717Y222255D01*
X298717Y220306D01*
X290921Y220306D01*
X302615Y216408D02*
X302615Y224204D01*
X302615Y220306D02*
X306513Y224204D01*
X308462Y224204D01*
X312360Y224204D02*
X312360Y218357D01*
X314309Y216408D01*
X320156Y216408D01*
X320156Y214459D02*
X320156Y224204D01*
X320156Y214459D02*
X318207Y212510D01*
X316258Y212510D01*
X335748Y216408D02*
X335748Y228102D01*
X339646Y224204D01*
X343544Y228102D01*
X343544Y216408D01*
X349391Y224204D02*
X353289Y224204D01*
X355238Y222255D01*
X355238Y216408D01*
X349391Y216408D01*
X347442Y218357D01*
X349391Y220306D01*
X355238Y220306D01*
X359136Y216408D02*
X359136Y224204D01*
X364983Y224204D01*
X366932Y222255D01*
X366932Y216408D01*
X372779Y224204D02*
X376677Y224204D01*
X378626Y222255D01*
X378626Y216408D01*
X372779Y216408D01*
X370830Y218357D01*
X372779Y220306D01*
X378626Y220306D01*
X386422Y212510D02*
X388371Y212510D01*
X390320Y214459D01*
X390320Y224204D01*
X384473Y224204D01*
X382524Y222255D01*
X382524Y218357D01*
X384473Y216408D01*
X390320Y216408D01*
X396167Y216408D02*
X400065Y216408D01*
X396167Y216408D02*
X394218Y218357D01*
X394218Y222255D01*
X396167Y224204D01*
X400065Y224204D01*
X402014Y222255D01*
X402014Y220306D01*
X394218Y220306D01*
X405912Y216408D02*
X405912Y224204D01*
X407861Y224204D01*
X409810Y222255D01*
X409810Y216408D01*
X409810Y222255D02*
X411759Y224204D01*
X413708Y222255D01*
X413708Y216408D01*
X419555Y216408D02*
X423453Y216408D01*
X419555Y216408D02*
X417606Y218357D01*
X417606Y222255D01*
X419555Y224204D01*
X423453Y224204D01*
X425402Y222255D01*
X425402Y220306D01*
X417606Y220306D01*
X429300Y216408D02*
X429300Y224204D01*
X435147Y224204D01*
X437096Y222255D01*
X437096Y216408D01*
X442943Y218357D02*
X442943Y226153D01*
X442943Y218357D02*
X444892Y216408D01*
X444892Y224204D02*
X440994Y224204D01*
X460484Y228102D02*
X460484Y216408D01*
X464382Y224204D02*
X460484Y228102D01*
X464382Y224204D02*
X468280Y228102D01*
X468280Y216408D01*
X474127Y216408D02*
X478025Y216408D01*
X479974Y218357D01*
X479974Y222255D01*
X478025Y224204D01*
X474127Y224204D01*
X472178Y222255D01*
X472178Y218357D01*
X474127Y216408D01*
X491668Y216408D02*
X491668Y228102D01*
X491668Y216408D02*
X485821Y216408D01*
X483872Y218357D01*
X483872Y222255D01*
X485821Y224204D01*
X491668Y224204D01*
X495566Y224204D02*
X495566Y218357D01*
X497515Y216408D01*
X503362Y216408D01*
X503362Y224204D01*
X507260Y228102D02*
X509209Y228102D01*
X509209Y216408D01*
X507260Y216408D02*
X511158Y216408D01*
X517005Y216408D02*
X520903Y216408D01*
X517005Y216408D02*
X515056Y218357D01*
X515056Y222255D01*
X517005Y224204D01*
X520903Y224204D01*
X522852Y222255D01*
X522852Y220306D01*
X515056Y220306D01*
D13*
X60472Y41925D02*
X37084Y41925D01*
X48778Y53619D02*
X48778Y30231D01*
X548894Y41925D02*
X572282Y41925D01*
D11*
X424864Y548733D02*
X422915Y550682D01*
X419017Y550682D01*
X417068Y548733D01*
X417068Y546784D01*
X419017Y544835D01*
X422915Y544835D01*
X424864Y542886D01*
X424864Y540937D01*
X422915Y538988D01*
X419017Y538988D01*
X417068Y540937D01*
X432660Y538988D02*
X432660Y550682D01*
X428762Y550682D02*
X436558Y550682D01*
X440456Y546784D02*
X440456Y538988D01*
X440456Y546784D02*
X444354Y550682D01*
X448252Y546784D01*
X448252Y538988D01*
X448252Y544835D02*
X440456Y544835D01*
X456048Y538988D02*
X456048Y550682D01*
X452150Y550682D02*
X459946Y550682D01*
X463844Y550682D02*
X463844Y540937D01*
X465793Y538988D01*
X469691Y538988D01*
X471640Y540937D01*
X471640Y550682D01*
X481385Y550682D02*
X483334Y548733D01*
X481385Y550682D02*
X477487Y550682D01*
X475538Y548733D01*
X475538Y546784D01*
X477487Y544835D01*
X481385Y544835D01*
X483334Y542886D01*
X483334Y540937D01*
X481385Y538988D01*
X477487Y538988D01*
X475538Y540937D01*
D10*
X242300Y328530D02*
X242300Y278530D01*
X242300Y328530D02*
X367300Y328530D01*
X367300Y278530D01*
X242300Y278530D01*
X244800Y288530D02*
X244802Y288671D01*
X244808Y288812D01*
X244818Y288952D01*
X244832Y289092D01*
X244850Y289232D01*
X244871Y289371D01*
X244897Y289510D01*
X244926Y289648D01*
X244960Y289784D01*
X244997Y289920D01*
X245038Y290055D01*
X245083Y290189D01*
X245132Y290321D01*
X245184Y290452D01*
X245240Y290581D01*
X245300Y290708D01*
X245363Y290834D01*
X245429Y290958D01*
X245500Y291081D01*
X245573Y291201D01*
X245650Y291319D01*
X245730Y291435D01*
X245814Y291548D01*
X245900Y291659D01*
X245990Y291768D01*
X246083Y291874D01*
X246178Y291977D01*
X246277Y292078D01*
X246378Y292176D01*
X246482Y292271D01*
X246589Y292363D01*
X246698Y292452D01*
X246810Y292537D01*
X246924Y292620D01*
X247040Y292700D01*
X247159Y292776D01*
X247280Y292848D01*
X247402Y292918D01*
X247527Y292983D01*
X247653Y293046D01*
X247781Y293104D01*
X247911Y293159D01*
X248042Y293211D01*
X248175Y293258D01*
X248309Y293302D01*
X248444Y293343D01*
X248580Y293379D01*
X248717Y293411D01*
X248855Y293440D01*
X248993Y293465D01*
X249133Y293485D01*
X249273Y293502D01*
X249413Y293515D01*
X249554Y293524D01*
X249694Y293529D01*
X249835Y293530D01*
X249976Y293527D01*
X250117Y293520D01*
X250257Y293509D01*
X250397Y293494D01*
X250537Y293475D01*
X250676Y293453D01*
X250814Y293426D01*
X250952Y293396D01*
X251088Y293361D01*
X251224Y293323D01*
X251358Y293281D01*
X251492Y293235D01*
X251624Y293186D01*
X251754Y293132D01*
X251883Y293075D01*
X252010Y293015D01*
X252136Y292951D01*
X252259Y292883D01*
X252381Y292812D01*
X252501Y292738D01*
X252618Y292660D01*
X252733Y292579D01*
X252846Y292495D01*
X252957Y292408D01*
X253065Y292317D01*
X253170Y292224D01*
X253273Y292127D01*
X253373Y292028D01*
X253470Y291926D01*
X253564Y291821D01*
X253655Y291714D01*
X253743Y291604D01*
X253828Y291492D01*
X253910Y291377D01*
X253989Y291260D01*
X254064Y291141D01*
X254136Y291020D01*
X254204Y290897D01*
X254269Y290772D01*
X254331Y290645D01*
X254388Y290516D01*
X254443Y290386D01*
X254493Y290255D01*
X254540Y290122D01*
X254583Y289988D01*
X254622Y289852D01*
X254657Y289716D01*
X254689Y289579D01*
X254716Y289441D01*
X254740Y289302D01*
X254760Y289162D01*
X254776Y289022D01*
X254788Y288882D01*
X254796Y288741D01*
X254800Y288600D01*
X254800Y288460D01*
X254796Y288319D01*
X254788Y288178D01*
X254776Y288038D01*
X254760Y287898D01*
X254740Y287758D01*
X254716Y287619D01*
X254689Y287481D01*
X254657Y287344D01*
X254622Y287208D01*
X254583Y287072D01*
X254540Y286938D01*
X254493Y286805D01*
X254443Y286674D01*
X254388Y286544D01*
X254331Y286415D01*
X254269Y286288D01*
X254204Y286163D01*
X254136Y286040D01*
X254064Y285919D01*
X253989Y285800D01*
X253910Y285683D01*
X253828Y285568D01*
X253743Y285456D01*
X253655Y285346D01*
X253564Y285239D01*
X253470Y285134D01*
X253373Y285032D01*
X253273Y284933D01*
X253170Y284836D01*
X253065Y284743D01*
X252957Y284652D01*
X252846Y284565D01*
X252733Y284481D01*
X252618Y284400D01*
X252501Y284322D01*
X252381Y284248D01*
X252259Y284177D01*
X252136Y284109D01*
X252010Y284045D01*
X251883Y283985D01*
X251754Y283928D01*
X251624Y283874D01*
X251492Y283825D01*
X251358Y283779D01*
X251224Y283737D01*
X251088Y283699D01*
X250952Y283664D01*
X250814Y283634D01*
X250676Y283607D01*
X250537Y283585D01*
X250397Y283566D01*
X250257Y283551D01*
X250117Y283540D01*
X249976Y283533D01*
X249835Y283530D01*
X249694Y283531D01*
X249554Y283536D01*
X249413Y283545D01*
X249273Y283558D01*
X249133Y283575D01*
X248993Y283595D01*
X248855Y283620D01*
X248717Y283649D01*
X248580Y283681D01*
X248444Y283717D01*
X248309Y283758D01*
X248175Y283802D01*
X248042Y283849D01*
X247911Y283901D01*
X247781Y283956D01*
X247653Y284014D01*
X247527Y284077D01*
X247402Y284142D01*
X247280Y284212D01*
X247159Y284284D01*
X247040Y284360D01*
X246924Y284440D01*
X246810Y284523D01*
X246698Y284608D01*
X246589Y284697D01*
X246482Y284789D01*
X246378Y284884D01*
X246277Y284982D01*
X246178Y285083D01*
X246083Y285186D01*
X245990Y285292D01*
X245900Y285401D01*
X245814Y285512D01*
X245730Y285625D01*
X245650Y285741D01*
X245573Y285859D01*
X245500Y285979D01*
X245429Y286102D01*
X245363Y286226D01*
X245300Y286352D01*
X245240Y286479D01*
X245184Y286608D01*
X245132Y286739D01*
X245083Y286871D01*
X245038Y287005D01*
X244997Y287140D01*
X244960Y287276D01*
X244926Y287412D01*
X244897Y287550D01*
X244871Y287689D01*
X244850Y287828D01*
X244832Y287968D01*
X244818Y288108D01*
X244808Y288248D01*
X244802Y288389D01*
X244800Y288530D01*
X215900Y328930D02*
X215900Y405130D01*
X215900Y328930D02*
X114300Y328930D01*
X114300Y405130D01*
X215900Y405130D01*
X196850Y392430D02*
X196852Y392589D01*
X196858Y392748D01*
X196868Y392906D01*
X196882Y393065D01*
X196900Y393223D01*
X196921Y393380D01*
X196947Y393537D01*
X196977Y393693D01*
X197010Y393849D01*
X197048Y394003D01*
X197089Y394157D01*
X197134Y394309D01*
X197183Y394460D01*
X197236Y394610D01*
X197292Y394759D01*
X197353Y394906D01*
X197416Y395051D01*
X197484Y395195D01*
X197555Y395338D01*
X197629Y395478D01*
X197707Y395616D01*
X197789Y395753D01*
X197874Y395887D01*
X197962Y396020D01*
X198053Y396150D01*
X198148Y396277D01*
X198246Y396402D01*
X198347Y396525D01*
X198451Y396645D01*
X198558Y396763D01*
X198668Y396878D01*
X198781Y396990D01*
X198896Y397099D01*
X199014Y397205D01*
X199135Y397309D01*
X199259Y397409D01*
X199384Y397506D01*
X199513Y397600D01*
X199643Y397690D01*
X199776Y397778D01*
X199911Y397862D01*
X200048Y397942D01*
X200187Y398020D01*
X200328Y398093D01*
X200470Y398163D01*
X200615Y398230D01*
X200761Y398293D01*
X200908Y398352D01*
X201057Y398408D01*
X201208Y398459D01*
X201359Y398507D01*
X201512Y398551D01*
X201666Y398592D01*
X201820Y398628D01*
X201976Y398661D01*
X202132Y398690D01*
X202289Y398714D01*
X202447Y398735D01*
X202605Y398752D01*
X202763Y398765D01*
X202922Y398774D01*
X203081Y398779D01*
X203240Y398780D01*
X203399Y398777D01*
X203557Y398770D01*
X203716Y398759D01*
X203874Y398744D01*
X204032Y398725D01*
X204189Y398702D01*
X204346Y398676D01*
X204502Y398645D01*
X204657Y398611D01*
X204811Y398572D01*
X204965Y398530D01*
X205117Y398484D01*
X205268Y398434D01*
X205417Y398380D01*
X205566Y398323D01*
X205712Y398262D01*
X205858Y398197D01*
X206001Y398129D01*
X206143Y398057D01*
X206283Y397981D01*
X206421Y397903D01*
X206557Y397820D01*
X206691Y397735D01*
X206822Y397646D01*
X206952Y397553D01*
X207079Y397458D01*
X207203Y397359D01*
X207326Y397257D01*
X207445Y397153D01*
X207562Y397045D01*
X207676Y396934D01*
X207787Y396821D01*
X207896Y396705D01*
X208001Y396586D01*
X208104Y396464D01*
X208203Y396340D01*
X208300Y396214D01*
X208393Y396085D01*
X208483Y395954D01*
X208569Y395820D01*
X208652Y395685D01*
X208732Y395547D01*
X208808Y395408D01*
X208881Y395267D01*
X208950Y395124D01*
X209016Y394979D01*
X209078Y394832D01*
X209136Y394685D01*
X209191Y394535D01*
X209242Y394385D01*
X209289Y394233D01*
X209332Y394080D01*
X209371Y393926D01*
X209407Y393771D01*
X209438Y393615D01*
X209466Y393459D01*
X209490Y393302D01*
X209510Y393144D01*
X209526Y392986D01*
X209538Y392827D01*
X209546Y392668D01*
X209550Y392509D01*
X209550Y392351D01*
X209546Y392192D01*
X209538Y392033D01*
X209526Y391874D01*
X209510Y391716D01*
X209490Y391558D01*
X209466Y391401D01*
X209438Y391245D01*
X209407Y391089D01*
X209371Y390934D01*
X209332Y390780D01*
X209289Y390627D01*
X209242Y390475D01*
X209191Y390325D01*
X209136Y390175D01*
X209078Y390028D01*
X209016Y389881D01*
X208950Y389736D01*
X208881Y389593D01*
X208808Y389452D01*
X208732Y389313D01*
X208652Y389175D01*
X208569Y389040D01*
X208483Y388906D01*
X208393Y388775D01*
X208300Y388646D01*
X208203Y388520D01*
X208104Y388396D01*
X208001Y388274D01*
X207896Y388155D01*
X207787Y388039D01*
X207676Y387926D01*
X207562Y387815D01*
X207445Y387707D01*
X207326Y387603D01*
X207203Y387501D01*
X207079Y387402D01*
X206952Y387307D01*
X206822Y387214D01*
X206691Y387125D01*
X206557Y387040D01*
X206421Y386957D01*
X206283Y386879D01*
X206143Y386803D01*
X206001Y386731D01*
X205858Y386663D01*
X205712Y386598D01*
X205566Y386537D01*
X205417Y386480D01*
X205268Y386426D01*
X205117Y386376D01*
X204965Y386330D01*
X204811Y386288D01*
X204657Y386249D01*
X204502Y386215D01*
X204346Y386184D01*
X204189Y386158D01*
X204032Y386135D01*
X203874Y386116D01*
X203716Y386101D01*
X203557Y386090D01*
X203399Y386083D01*
X203240Y386080D01*
X203081Y386081D01*
X202922Y386086D01*
X202763Y386095D01*
X202605Y386108D01*
X202447Y386125D01*
X202289Y386146D01*
X202132Y386170D01*
X201976Y386199D01*
X201820Y386232D01*
X201666Y386268D01*
X201512Y386309D01*
X201359Y386353D01*
X201208Y386401D01*
X201057Y386452D01*
X200908Y386508D01*
X200761Y386567D01*
X200615Y386630D01*
X200470Y386697D01*
X200328Y386767D01*
X200187Y386840D01*
X200048Y386918D01*
X199911Y386998D01*
X199776Y387082D01*
X199643Y387170D01*
X199513Y387260D01*
X199384Y387354D01*
X199259Y387451D01*
X199135Y387551D01*
X199014Y387655D01*
X198896Y387761D01*
X198781Y387870D01*
X198668Y387982D01*
X198558Y388097D01*
X198451Y388215D01*
X198347Y388335D01*
X198246Y388458D01*
X198148Y388583D01*
X198053Y388710D01*
X197962Y388840D01*
X197874Y388973D01*
X197789Y389107D01*
X197707Y389244D01*
X197629Y389382D01*
X197555Y389522D01*
X197484Y389665D01*
X197416Y389809D01*
X197353Y389954D01*
X197292Y390101D01*
X197236Y390250D01*
X197183Y390400D01*
X197134Y390551D01*
X197089Y390703D01*
X197048Y390857D01*
X197010Y391011D01*
X196977Y391167D01*
X196947Y391323D01*
X196921Y391480D01*
X196900Y391637D01*
X196882Y391795D01*
X196868Y391954D01*
X196858Y392112D01*
X196852Y392271D01*
X196850Y392430D01*
D11*
X152883Y250962D02*
X154832Y249013D01*
X152883Y250962D02*
X148985Y250962D01*
X147036Y249013D01*
X147036Y241217D01*
X148985Y239268D01*
X152883Y239268D01*
X154832Y241217D01*
X158730Y247064D02*
X162628Y250962D01*
X162628Y239268D01*
X158730Y239268D02*
X166526Y239268D01*
X170424Y249013D02*
X172373Y250962D01*
X176271Y250962D01*
X178220Y249013D01*
X178220Y247064D01*
X176271Y245115D01*
X174322Y245115D01*
X176271Y245115D02*
X178220Y243166D01*
X178220Y241217D01*
X176271Y239268D01*
X172373Y239268D01*
X170424Y241217D01*
X387355Y339862D02*
X389304Y337913D01*
X387355Y339862D02*
X383457Y339862D01*
X381508Y337913D01*
X381508Y330117D01*
X383457Y328168D01*
X387355Y328168D01*
X389304Y330117D01*
X393202Y335964D02*
X397100Y339862D01*
X397100Y328168D01*
X393202Y328168D02*
X400998Y328168D01*
X410743Y328168D02*
X410743Y339862D01*
X404896Y334015D01*
X412692Y334015D01*
D14*
X406536Y423316D02*
X406536Y450444D01*
X417124Y450444D01*
X451984Y450444D02*
X451984Y423316D01*
X451984Y450444D02*
X441896Y450444D01*
X423484Y423236D02*
X419896Y423236D01*
X434896Y423236D02*
X438484Y423236D01*
D11*
X411616Y459398D02*
X407718Y459398D01*
X409667Y459398D02*
X409667Y471092D01*
X407718Y471092D02*
X411616Y471092D01*
X421361Y471092D02*
X423310Y469143D01*
X421361Y471092D02*
X417463Y471092D01*
X415514Y469143D01*
X415514Y461347D01*
X417463Y459398D01*
X421361Y459398D01*
X423310Y461347D01*
X427208Y459398D02*
X435004Y459398D01*
X427208Y459398D02*
X435004Y467194D01*
X435004Y469143D01*
X433055Y471092D01*
X429157Y471092D01*
X427208Y469143D01*
X385494Y462373D02*
X383545Y464322D01*
X379647Y464322D01*
X377698Y462373D01*
X377698Y454577D01*
X379647Y452628D01*
X383545Y452628D01*
X385494Y454577D01*
X389392Y460424D02*
X393290Y464322D01*
X393290Y452628D01*
X389392Y452628D02*
X397188Y452628D01*
X404984Y462373D02*
X408882Y464322D01*
X404984Y462373D02*
X401086Y458475D01*
X401086Y454577D01*
X403035Y452628D01*
X406933Y452628D01*
X408882Y454577D01*
X408882Y456526D01*
X406933Y458475D01*
X401086Y458475D01*
X468018Y479728D02*
X479712Y479728D01*
X479712Y485575D01*
X477763Y487524D01*
X469967Y487524D01*
X468018Y485575D01*
X468018Y479728D01*
X471916Y491422D02*
X468018Y495320D01*
X479712Y495320D01*
X479712Y491422D02*
X479712Y499218D01*
D10*
X497840Y449580D02*
X497840Y419100D01*
X482600Y419100D01*
X482600Y449580D01*
X497840Y449580D01*
D11*
X188946Y271282D02*
X188946Y259588D01*
X188946Y271282D02*
X194793Y271282D01*
X196742Y269333D01*
X196742Y265435D01*
X194793Y263486D01*
X188946Y263486D01*
X192844Y263486D02*
X196742Y259588D01*
X200640Y271282D02*
X208436Y271282D01*
X200640Y271282D02*
X200640Y265435D01*
X204538Y267384D01*
X206487Y267384D01*
X208436Y265435D01*
X208436Y261537D01*
X206487Y259588D01*
X202589Y259588D01*
X200640Y261537D01*
X212334Y259588D02*
X220130Y259588D01*
X212334Y259588D02*
X220130Y267384D01*
X220130Y269333D01*
X218181Y271282D01*
X214283Y271282D01*
X212334Y269333D01*
X387355Y314462D02*
X389304Y312513D01*
X387355Y314462D02*
X383457Y314462D01*
X381508Y312513D01*
X381508Y304717D01*
X383457Y302768D01*
X387355Y302768D01*
X389304Y304717D01*
X393202Y310564D02*
X397100Y314462D01*
X397100Y302768D01*
X393202Y302768D02*
X400998Y302768D01*
X404896Y312513D02*
X406845Y314462D01*
X410743Y314462D01*
X412692Y312513D01*
X412692Y310564D01*
X410743Y308615D01*
X412692Y306666D01*
X412692Y304717D01*
X410743Y302768D01*
X406845Y302768D01*
X404896Y304717D01*
X404896Y306666D01*
X406845Y308615D01*
X404896Y310564D01*
X404896Y312513D01*
X406845Y308615D02*
X410743Y308615D01*
X442946Y283982D02*
X442946Y272288D01*
X442946Y283982D02*
X448793Y283982D01*
X450742Y282033D01*
X450742Y278135D01*
X448793Y276186D01*
X442946Y276186D01*
X446844Y276186D02*
X450742Y272288D01*
X454640Y283982D02*
X462436Y283982D01*
X454640Y283982D02*
X454640Y278135D01*
X458538Y280084D01*
X460487Y280084D01*
X462436Y278135D01*
X462436Y274237D01*
X460487Y272288D01*
X456589Y272288D01*
X454640Y274237D01*
X466334Y283982D02*
X474130Y283982D01*
X466334Y283982D02*
X466334Y278135D01*
X470232Y280084D01*
X472181Y280084D01*
X474130Y278135D01*
X474130Y274237D01*
X472181Y272288D01*
X468283Y272288D01*
X466334Y274237D01*
X452012Y322673D02*
X450063Y324622D01*
X446165Y324622D01*
X444216Y322673D01*
X444216Y314877D01*
X446165Y312928D01*
X450063Y312928D01*
X452012Y314877D01*
X455910Y320724D02*
X459808Y324622D01*
X459808Y312928D01*
X455910Y312928D02*
X463706Y312928D01*
X467604Y314877D02*
X469553Y312928D01*
X473451Y312928D01*
X475400Y314877D01*
X475400Y322673D01*
X473451Y324622D01*
X469553Y324622D01*
X467604Y322673D01*
X467604Y320724D01*
X469553Y318775D01*
X475400Y318775D01*
D10*
X223520Y447040D02*
X121920Y447040D01*
X121920Y535940D01*
X134620Y548640D01*
X223520Y548640D01*
X223520Y447040D01*
X355600Y521970D02*
X355600Y560070D01*
X406400Y560070D02*
X406400Y521970D01*
X358140Y528320D02*
X358142Y528443D01*
X358148Y528567D01*
X358158Y528690D01*
X358172Y528812D01*
X358190Y528934D01*
X358212Y529056D01*
X358237Y529176D01*
X358267Y529296D01*
X358301Y529415D01*
X358338Y529533D01*
X358379Y529649D01*
X358424Y529764D01*
X358473Y529877D01*
X358525Y529989D01*
X358581Y530099D01*
X358640Y530207D01*
X358703Y530313D01*
X358769Y530417D01*
X358839Y530519D01*
X358912Y530619D01*
X358988Y530716D01*
X359067Y530811D01*
X359149Y530903D01*
X359234Y530992D01*
X359322Y531079D01*
X359413Y531162D01*
X359506Y531243D01*
X359602Y531321D01*
X359701Y531395D01*
X359801Y531466D01*
X359904Y531534D01*
X360009Y531599D01*
X360117Y531660D01*
X360226Y531718D01*
X360337Y531772D01*
X360449Y531822D01*
X360564Y531869D01*
X360679Y531912D01*
X360796Y531951D01*
X360914Y531987D01*
X361034Y532018D01*
X361154Y532046D01*
X361275Y532070D01*
X361397Y532090D01*
X361519Y532106D01*
X361642Y532118D01*
X361765Y532126D01*
X361888Y532130D01*
X362012Y532130D01*
X362135Y532126D01*
X362258Y532118D01*
X362381Y532106D01*
X362503Y532090D01*
X362625Y532070D01*
X362746Y532046D01*
X362866Y532018D01*
X362986Y531987D01*
X363104Y531951D01*
X363221Y531912D01*
X363336Y531869D01*
X363451Y531822D01*
X363563Y531772D01*
X363674Y531718D01*
X363783Y531660D01*
X363891Y531599D01*
X363996Y531534D01*
X364099Y531466D01*
X364199Y531395D01*
X364298Y531321D01*
X364394Y531243D01*
X364487Y531162D01*
X364578Y531079D01*
X364666Y530992D01*
X364751Y530903D01*
X364833Y530811D01*
X364912Y530716D01*
X364988Y530619D01*
X365061Y530519D01*
X365131Y530417D01*
X365197Y530313D01*
X365260Y530207D01*
X365319Y530099D01*
X365375Y529989D01*
X365427Y529877D01*
X365476Y529764D01*
X365521Y529649D01*
X365562Y529533D01*
X365599Y529415D01*
X365633Y529296D01*
X365663Y529176D01*
X365688Y529056D01*
X365710Y528934D01*
X365728Y528812D01*
X365742Y528690D01*
X365752Y528567D01*
X365758Y528443D01*
X365760Y528320D01*
X365758Y528197D01*
X365752Y528073D01*
X365742Y527950D01*
X365728Y527828D01*
X365710Y527706D01*
X365688Y527584D01*
X365663Y527464D01*
X365633Y527344D01*
X365599Y527225D01*
X365562Y527107D01*
X365521Y526991D01*
X365476Y526876D01*
X365427Y526763D01*
X365375Y526651D01*
X365319Y526541D01*
X365260Y526433D01*
X365197Y526327D01*
X365131Y526223D01*
X365061Y526121D01*
X364988Y526021D01*
X364912Y525924D01*
X364833Y525829D01*
X364751Y525737D01*
X364666Y525648D01*
X364578Y525561D01*
X364487Y525478D01*
X364394Y525397D01*
X364298Y525319D01*
X364199Y525245D01*
X364099Y525174D01*
X363996Y525106D01*
X363891Y525041D01*
X363783Y524980D01*
X363674Y524922D01*
X363563Y524868D01*
X363451Y524818D01*
X363336Y524771D01*
X363221Y524728D01*
X363104Y524689D01*
X362986Y524653D01*
X362866Y524622D01*
X362746Y524594D01*
X362625Y524570D01*
X362503Y524550D01*
X362381Y524534D01*
X362258Y524522D01*
X362135Y524514D01*
X362012Y524510D01*
X361888Y524510D01*
X361765Y524514D01*
X361642Y524522D01*
X361519Y524534D01*
X361397Y524550D01*
X361275Y524570D01*
X361154Y524594D01*
X361034Y524622D01*
X360914Y524653D01*
X360796Y524689D01*
X360679Y524728D01*
X360564Y524771D01*
X360449Y524818D01*
X360337Y524868D01*
X360226Y524922D01*
X360117Y524980D01*
X360009Y525041D01*
X359904Y525106D01*
X359801Y525174D01*
X359701Y525245D01*
X359602Y525319D01*
X359506Y525397D01*
X359413Y525478D01*
X359322Y525561D01*
X359234Y525648D01*
X359149Y525737D01*
X359067Y525829D01*
X358988Y525924D01*
X358912Y526021D01*
X358839Y526121D01*
X358769Y526223D01*
X358703Y526327D01*
X358640Y526433D01*
X358581Y526541D01*
X358525Y526651D01*
X358473Y526763D01*
X358424Y526876D01*
X358379Y526991D01*
X358338Y527107D01*
X358301Y527225D01*
X358267Y527344D01*
X358237Y527464D01*
X358212Y527584D01*
X358190Y527706D01*
X358172Y527828D01*
X358158Y527950D01*
X358148Y528073D01*
X358142Y528197D01*
X358140Y528320D01*
D12*
X374181Y544455D02*
X375409Y543227D01*
X374181Y544455D02*
X371723Y544455D01*
X370494Y543227D01*
X370494Y541998D01*
X371723Y540769D01*
X374181Y540769D01*
X375409Y539540D01*
X375409Y538312D01*
X374181Y537083D01*
X371723Y537083D01*
X370494Y538312D01*
X377979Y537083D02*
X377979Y544455D01*
X382893Y537083D01*
X382893Y544455D01*
X387920Y543227D02*
X390378Y544455D01*
X387920Y543227D02*
X385463Y540769D01*
X385463Y538312D01*
X386691Y537083D01*
X389149Y537083D01*
X390378Y538312D01*
X390378Y539540D01*
X389149Y540769D01*
X385463Y540769D01*
X392947Y544455D02*
X397862Y544455D01*
X392947Y544455D02*
X392947Y540769D01*
X395404Y541998D01*
X396633Y541998D01*
X397862Y540769D01*
X397862Y538312D01*
X396633Y537083D01*
X394176Y537083D01*
X392947Y538312D01*
D10*
X329720Y441250D02*
X264720Y441250D01*
X264720Y511250D01*
X334720Y511250D01*
X334720Y446250D01*
X329720Y441250D01*
X320720Y451250D02*
X320722Y451376D01*
X320728Y451502D01*
X320738Y451628D01*
X320752Y451754D01*
X320770Y451879D01*
X320792Y452003D01*
X320817Y452127D01*
X320847Y452250D01*
X320880Y452371D01*
X320918Y452492D01*
X320959Y452611D01*
X321004Y452730D01*
X321052Y452846D01*
X321104Y452961D01*
X321160Y453074D01*
X321220Y453186D01*
X321283Y453295D01*
X321349Y453403D01*
X321418Y453508D01*
X321491Y453611D01*
X321568Y453712D01*
X321647Y453810D01*
X321729Y453906D01*
X321815Y453999D01*
X321903Y454090D01*
X321994Y454177D01*
X322088Y454262D01*
X322184Y454343D01*
X322283Y454422D01*
X322384Y454497D01*
X322488Y454569D01*
X322594Y454638D01*
X322702Y454704D01*
X322812Y454766D01*
X322924Y454824D01*
X323037Y454879D01*
X323153Y454930D01*
X323270Y454978D01*
X323388Y455022D01*
X323508Y455062D01*
X323629Y455098D01*
X323751Y455131D01*
X323874Y455160D01*
X323998Y455184D01*
X324122Y455205D01*
X324247Y455222D01*
X324373Y455235D01*
X324499Y455244D01*
X324625Y455249D01*
X324752Y455250D01*
X324878Y455247D01*
X325004Y455240D01*
X325130Y455229D01*
X325255Y455214D01*
X325380Y455195D01*
X325504Y455172D01*
X325628Y455146D01*
X325750Y455115D01*
X325872Y455081D01*
X325992Y455042D01*
X326111Y455000D01*
X326229Y454955D01*
X326345Y454905D01*
X326460Y454852D01*
X326572Y454795D01*
X326683Y454735D01*
X326792Y454671D01*
X326899Y454604D01*
X327004Y454534D01*
X327107Y454460D01*
X327207Y454383D01*
X327305Y454303D01*
X327400Y454220D01*
X327492Y454134D01*
X327582Y454045D01*
X327669Y453953D01*
X327752Y453859D01*
X327833Y453762D01*
X327911Y453662D01*
X327986Y453560D01*
X328057Y453456D01*
X328125Y453349D01*
X328189Y453241D01*
X328250Y453130D01*
X328308Y453018D01*
X328362Y452904D01*
X328412Y452788D01*
X328459Y452671D01*
X328502Y452552D01*
X328541Y452432D01*
X328577Y452311D01*
X328608Y452188D01*
X328636Y452065D01*
X328660Y451941D01*
X328680Y451816D01*
X328696Y451691D01*
X328708Y451565D01*
X328716Y451439D01*
X328720Y451313D01*
X328720Y451187D01*
X328716Y451061D01*
X328708Y450935D01*
X328696Y450809D01*
X328680Y450684D01*
X328660Y450559D01*
X328636Y450435D01*
X328608Y450312D01*
X328577Y450189D01*
X328541Y450068D01*
X328502Y449948D01*
X328459Y449829D01*
X328412Y449712D01*
X328362Y449596D01*
X328308Y449482D01*
X328250Y449370D01*
X328189Y449259D01*
X328125Y449151D01*
X328057Y449044D01*
X327986Y448940D01*
X327911Y448838D01*
X327833Y448738D01*
X327752Y448641D01*
X327669Y448547D01*
X327582Y448455D01*
X327492Y448366D01*
X327400Y448280D01*
X327305Y448197D01*
X327207Y448117D01*
X327107Y448040D01*
X327004Y447966D01*
X326899Y447896D01*
X326792Y447829D01*
X326683Y447765D01*
X326572Y447705D01*
X326460Y447648D01*
X326345Y447595D01*
X326229Y447545D01*
X326111Y447500D01*
X325992Y447458D01*
X325872Y447419D01*
X325750Y447385D01*
X325628Y447354D01*
X325504Y447328D01*
X325380Y447305D01*
X325255Y447286D01*
X325130Y447271D01*
X325004Y447260D01*
X324878Y447253D01*
X324752Y447250D01*
X324625Y447251D01*
X324499Y447256D01*
X324373Y447265D01*
X324247Y447278D01*
X324122Y447295D01*
X323998Y447316D01*
X323874Y447340D01*
X323751Y447369D01*
X323629Y447402D01*
X323508Y447438D01*
X323388Y447478D01*
X323270Y447522D01*
X323153Y447570D01*
X323037Y447621D01*
X322924Y447676D01*
X322812Y447734D01*
X322702Y447796D01*
X322594Y447862D01*
X322488Y447931D01*
X322384Y448003D01*
X322283Y448078D01*
X322184Y448157D01*
X322088Y448238D01*
X321994Y448323D01*
X321903Y448410D01*
X321815Y448501D01*
X321729Y448594D01*
X321647Y448690D01*
X321568Y448788D01*
X321491Y448889D01*
X321418Y448992D01*
X321349Y449097D01*
X321283Y449205D01*
X321220Y449314D01*
X321160Y449426D01*
X321104Y449539D01*
X321052Y449654D01*
X321004Y449770D01*
X320959Y449889D01*
X320918Y450008D01*
X320880Y450129D01*
X320847Y450250D01*
X320817Y450373D01*
X320792Y450497D01*
X320770Y450621D01*
X320752Y450746D01*
X320738Y450872D01*
X320728Y450998D01*
X320722Y451124D01*
X320720Y451250D01*
D14*
X323850Y419100D02*
X336550Y419100D01*
X342900Y412750D01*
X342900Y400050D01*
X336550Y393700D01*
X298450Y419100D02*
X292100Y412750D01*
X298450Y419100D02*
X311150Y419100D01*
X317500Y412750D01*
X317500Y400050D01*
X311150Y393700D01*
X298450Y393700D01*
X292100Y400050D01*
X317500Y412750D02*
X323850Y419100D01*
X317500Y400050D02*
X323850Y393700D01*
X336550Y393700D01*
X260350Y419100D02*
X247650Y419100D01*
X260350Y419100D02*
X266700Y412750D01*
X266700Y400050D01*
X260350Y393700D01*
X266700Y412750D02*
X273050Y419100D01*
X285750Y419100D01*
X292100Y412750D01*
X292100Y400050D01*
X285750Y393700D01*
X273050Y393700D01*
X266700Y400050D01*
X241300Y400050D02*
X241300Y412750D01*
X247650Y419100D01*
X241300Y400050D02*
X247650Y393700D01*
X260350Y393700D01*
X349250Y419100D02*
X361950Y419100D01*
X368300Y412750D01*
X368300Y400050D01*
X361950Y393700D01*
X342900Y412750D02*
X349250Y419100D01*
X342900Y400050D02*
X349250Y393700D01*
X361950Y393700D01*
D10*
X241173Y425323D02*
X241173Y436763D01*
X246893Y436763D01*
X248800Y434856D01*
X248800Y431043D01*
X246893Y429136D01*
X241173Y429136D01*
X252867Y425323D02*
X252867Y436763D01*
X258587Y436763D01*
X260493Y434856D01*
X260493Y431043D01*
X258587Y429136D01*
X252867Y429136D01*
X256680Y429136D02*
X260493Y425323D01*
X266468Y436763D02*
X270281Y436763D01*
X266468Y436763D02*
X264561Y434856D01*
X264561Y427230D01*
X266468Y425323D01*
X270281Y425323D01*
X272187Y427230D01*
X272187Y434856D01*
X270281Y436763D01*
X281975Y436763D02*
X283881Y434856D01*
X281975Y436763D02*
X278162Y436763D01*
X276255Y434856D01*
X276255Y427230D01*
X278162Y425323D01*
X281975Y425323D01*
X283881Y427230D01*
X283881Y431043D01*
X280068Y431043D01*
X287949Y432950D02*
X291762Y436763D01*
X291762Y425323D01*
X287949Y425323D02*
X295575Y425323D01*
D11*
X358638Y403865D02*
X360587Y405814D01*
X358638Y403865D02*
X358638Y399967D01*
X360587Y398018D01*
X368383Y398018D01*
X370332Y399967D01*
X370332Y403865D01*
X368383Y405814D01*
X370332Y409712D02*
X370332Y417508D01*
X370332Y409712D02*
X362536Y417508D01*
X360587Y417508D01*
X358638Y415559D01*
X358638Y411661D01*
X360587Y409712D01*
X378968Y493268D02*
X378968Y504962D01*
X384815Y504962D01*
X386764Y503013D01*
X386764Y499115D01*
X384815Y497166D01*
X378968Y497166D01*
X382866Y497166D02*
X386764Y493268D01*
X390662Y501064D02*
X394560Y504962D01*
X394560Y493268D01*
X390662Y493268D02*
X398458Y493268D01*
X408203Y493268D02*
X408203Y504962D01*
X402356Y499115D01*
X410152Y499115D01*
X165608Y304302D02*
X165608Y292608D01*
X165608Y304302D02*
X171455Y304302D01*
X173404Y302353D01*
X173404Y298455D01*
X171455Y296506D01*
X165608Y296506D01*
X169506Y296506D02*
X173404Y292608D01*
X177302Y300404D02*
X181200Y304302D01*
X181200Y292608D01*
X177302Y292608D02*
X185098Y292608D01*
X188996Y304302D02*
X196792Y304302D01*
X188996Y304302D02*
X188996Y298455D01*
X192894Y300404D01*
X194843Y300404D01*
X196792Y298455D01*
X196792Y294557D01*
X194843Y292608D01*
X190945Y292608D01*
X188996Y294557D01*
X130966Y249013D02*
X129017Y250962D01*
X125119Y250962D01*
X123170Y249013D01*
X123170Y241217D01*
X125119Y239268D01*
X129017Y239268D01*
X130966Y241217D01*
X134864Y249013D02*
X136813Y250962D01*
X140711Y250962D01*
X142660Y249013D01*
X142660Y247064D01*
X140711Y245115D01*
X138762Y245115D01*
X140711Y245115D02*
X142660Y243166D01*
X142660Y241217D01*
X140711Y239268D01*
X136813Y239268D01*
X134864Y241217D01*
D15*
X279060Y572760D02*
X300060Y572760D01*
X318560Y559260D02*
X318560Y553260D01*
X300060Y539760D02*
X279060Y539760D01*
X260560Y553260D02*
X260560Y559260D01*
D16*
X269060Y554260D03*
D11*
X264668Y584117D02*
X264668Y591913D01*
X266617Y593862D01*
X270515Y593862D01*
X272464Y591913D01*
X272464Y584117D01*
X270515Y582168D01*
X266617Y582168D01*
X264668Y584117D01*
X268566Y586066D02*
X272464Y582168D01*
X276362Y589964D02*
X280260Y593862D01*
X280260Y582168D01*
X276362Y582168D02*
X284158Y582168D01*
X343398Y548117D02*
X345347Y550066D01*
X343398Y548117D02*
X343398Y544219D01*
X345347Y542270D01*
X353143Y542270D01*
X355092Y544219D01*
X355092Y548117D01*
X353143Y550066D01*
X355092Y559811D02*
X343398Y559811D01*
X349245Y553964D01*
X349245Y561760D01*
X225967Y555674D02*
X224018Y553725D01*
X224018Y549827D01*
X225967Y547878D01*
X233763Y547878D01*
X235712Y549827D01*
X235712Y553725D01*
X233763Y555674D01*
X224018Y559572D02*
X224018Y567368D01*
X224018Y559572D02*
X229865Y559572D01*
X227916Y563470D01*
X227916Y565419D01*
X229865Y567368D01*
X233763Y567368D01*
X235712Y565419D01*
X235712Y561521D01*
X233763Y559572D01*
D10*
X67340Y151480D02*
X39340Y151480D01*
X39340Y163480D01*
X67340Y163480D01*
X67340Y151480D01*
D11*
X72888Y141956D02*
X82633Y141956D01*
X84582Y143905D01*
X84582Y147803D01*
X82633Y149752D01*
X72888Y149752D01*
X82633Y153650D02*
X84582Y155599D01*
X84582Y159497D01*
X82633Y161446D01*
X80684Y161446D01*
X78735Y159497D01*
X78735Y155599D01*
X76786Y153650D01*
X74837Y153650D01*
X72888Y155599D01*
X72888Y159497D01*
X74837Y161446D01*
X70939Y157548D02*
X86531Y157548D01*
X84582Y171191D02*
X72888Y171191D01*
X78735Y165344D01*
X78735Y173140D01*
X54102Y187198D02*
X42408Y187198D01*
X42408Y193045D01*
X44357Y194994D01*
X48255Y194994D01*
X50204Y193045D01*
X50204Y187198D01*
X50204Y191096D02*
X54102Y194994D01*
X46306Y198892D02*
X42408Y202790D01*
X54102Y202790D01*
X54102Y198892D02*
X54102Y206688D01*
X44357Y210586D02*
X42408Y212535D01*
X42408Y216433D01*
X44357Y218382D01*
X46306Y218382D01*
X48255Y216433D01*
X48255Y214484D01*
X48255Y216433D02*
X50204Y218382D01*
X52153Y218382D01*
X54102Y216433D01*
X54102Y212535D01*
X52153Y210586D01*
X31242Y187198D02*
X19548Y187198D01*
X19548Y193045D01*
X21497Y194994D01*
X25395Y194994D01*
X27344Y193045D01*
X27344Y187198D01*
X27344Y191096D02*
X31242Y194994D01*
X23446Y198892D02*
X19548Y202790D01*
X31242Y202790D01*
X31242Y198892D02*
X31242Y206688D01*
X21497Y214484D02*
X19548Y218382D01*
X21497Y214484D02*
X25395Y210586D01*
X29293Y210586D01*
X31242Y212535D01*
X31242Y216433D01*
X29293Y218382D01*
X27344Y218382D01*
X25395Y216433D01*
X25395Y210586D01*
D14*
X38610Y114040D02*
X38610Y84330D01*
X68070Y84330D02*
X68070Y114040D01*
D11*
X33782Y72898D02*
X22088Y72898D01*
X22088Y78745D01*
X24037Y80694D01*
X27935Y80694D01*
X29884Y78745D01*
X29884Y72898D01*
X29884Y76796D02*
X33782Y80694D01*
X25986Y84592D02*
X22088Y88490D01*
X33782Y88490D01*
X33782Y84592D02*
X33782Y92388D01*
X22088Y96286D02*
X22088Y104082D01*
X24037Y104082D01*
X31833Y96286D01*
X33782Y96286D01*
X65268Y187198D02*
X76962Y187198D01*
X65268Y187198D02*
X65268Y193045D01*
X67217Y194994D01*
X71115Y194994D01*
X73064Y193045D01*
X73064Y187198D01*
X73064Y191096D02*
X76962Y194994D01*
X69166Y198892D02*
X65268Y202790D01*
X76962Y202790D01*
X76962Y198892D02*
X76962Y206688D01*
D10*
X85060Y151480D02*
X113060Y151480D01*
X85060Y151480D02*
X85060Y163480D01*
X113060Y163480D01*
X113060Y151480D01*
D11*
X118608Y141956D02*
X128353Y141956D01*
X130302Y143905D01*
X130302Y147803D01*
X128353Y149752D01*
X118608Y149752D01*
X128353Y153650D02*
X130302Y155599D01*
X130302Y159497D01*
X128353Y161446D01*
X126404Y161446D01*
X124455Y159497D01*
X124455Y155599D01*
X122506Y153650D01*
X120557Y153650D01*
X118608Y155599D01*
X118608Y159497D01*
X120557Y161446D01*
X116659Y157548D02*
X132251Y157548D01*
X118608Y165344D02*
X118608Y173140D01*
X118608Y165344D02*
X124455Y165344D01*
X122506Y169242D01*
X122506Y171191D01*
X124455Y173140D01*
X128353Y173140D01*
X130302Y171191D01*
X130302Y167293D01*
X128353Y165344D01*
X99822Y187198D02*
X88128Y187198D01*
X88128Y193045D01*
X90077Y194994D01*
X93975Y194994D01*
X95924Y193045D01*
X95924Y187198D01*
X95924Y191096D02*
X99822Y194994D01*
X99822Y198892D02*
X99822Y206688D01*
X99822Y198892D02*
X92026Y206688D01*
X90077Y206688D01*
X88128Y204739D01*
X88128Y200841D01*
X90077Y198892D01*
D14*
X84330Y114040D02*
X84330Y84330D01*
X113790Y84330D02*
X113790Y114040D01*
D11*
X79502Y72898D02*
X67808Y72898D01*
X67808Y78745D01*
X69757Y80694D01*
X73655Y80694D01*
X75604Y78745D01*
X75604Y72898D01*
X75604Y76796D02*
X79502Y80694D01*
X69757Y84592D02*
X67808Y86541D01*
X67808Y90439D01*
X69757Y92388D01*
X71706Y92388D01*
X73655Y90439D01*
X73655Y88490D01*
X73655Y90439D02*
X75604Y92388D01*
X77553Y92388D01*
X79502Y90439D01*
X79502Y86541D01*
X77553Y84592D01*
X110988Y187198D02*
X122682Y187198D01*
X110988Y187198D02*
X110988Y193045D01*
X112937Y194994D01*
X116835Y194994D01*
X118784Y193045D01*
X118784Y187198D01*
X118784Y191096D02*
X122682Y194994D01*
X122682Y204739D02*
X110988Y204739D01*
X116835Y198892D01*
X116835Y206688D01*
D10*
X102870Y256540D02*
X102870Y287020D01*
X102870Y256540D02*
X87630Y256540D01*
X87630Y287020D01*
X102870Y287020D01*
D11*
X156708Y187198D02*
X168402Y187198D01*
X156708Y187198D02*
X156708Y193045D01*
X158657Y194994D01*
X162555Y194994D01*
X164504Y193045D01*
X164504Y187198D01*
X164504Y191096D02*
X168402Y194994D01*
X156708Y198892D02*
X156708Y206688D01*
X156708Y198892D02*
X162555Y198892D01*
X160606Y202790D01*
X160606Y204739D01*
X162555Y206688D01*
X166453Y206688D01*
X168402Y204739D01*
X168402Y200841D01*
X166453Y198892D01*
X179568Y187198D02*
X191262Y187198D01*
X179568Y187198D02*
X179568Y193045D01*
X181517Y194994D01*
X185415Y194994D01*
X187364Y193045D01*
X187364Y187198D01*
X187364Y191096D02*
X191262Y194994D01*
X181517Y202790D02*
X179568Y206688D01*
X181517Y202790D02*
X185415Y198892D01*
X189313Y198892D01*
X191262Y200841D01*
X191262Y204739D01*
X189313Y206688D01*
X187364Y206688D01*
X185415Y204739D01*
X185415Y198892D01*
X202428Y187198D02*
X214122Y187198D01*
X202428Y187198D02*
X202428Y193045D01*
X204377Y194994D01*
X208275Y194994D01*
X210224Y193045D01*
X210224Y187198D01*
X210224Y191096D02*
X214122Y194994D01*
X202428Y198892D02*
X202428Y206688D01*
X204377Y206688D01*
X212173Y198892D01*
X214122Y198892D01*
X225288Y187198D02*
X236982Y187198D01*
X225288Y187198D02*
X225288Y193045D01*
X227237Y194994D01*
X231135Y194994D01*
X233084Y193045D01*
X233084Y187198D01*
X233084Y191096D02*
X236982Y194994D01*
X227237Y198892D02*
X225288Y200841D01*
X225288Y204739D01*
X227237Y206688D01*
X229186Y206688D01*
X231135Y204739D01*
X233084Y206688D01*
X235033Y206688D01*
X236982Y204739D01*
X236982Y200841D01*
X235033Y198892D01*
X233084Y198892D01*
X231135Y200841D01*
X229186Y198892D01*
X227237Y198892D01*
X231135Y200841D02*
X231135Y204739D01*
X248148Y187198D02*
X259842Y187198D01*
X248148Y187198D02*
X248148Y193045D01*
X250097Y194994D01*
X253995Y194994D01*
X255944Y193045D01*
X255944Y187198D01*
X255944Y191096D02*
X259842Y194994D01*
X257893Y198892D02*
X259842Y200841D01*
X259842Y204739D01*
X257893Y206688D01*
X250097Y206688D01*
X248148Y204739D01*
X248148Y200841D01*
X250097Y198892D01*
X252046Y198892D01*
X253995Y200841D01*
X253995Y206688D01*
X271008Y187198D02*
X282702Y187198D01*
X271008Y187198D02*
X271008Y193045D01*
X272957Y194994D01*
X276855Y194994D01*
X278804Y193045D01*
X278804Y187198D01*
X278804Y191096D02*
X282702Y194994D01*
X274906Y198892D02*
X271008Y202790D01*
X282702Y202790D01*
X282702Y198892D02*
X282702Y206688D01*
X280753Y210586D02*
X272957Y210586D01*
X271008Y212535D01*
X271008Y216433D01*
X272957Y218382D01*
X280753Y218382D01*
X282702Y216433D01*
X282702Y212535D01*
X280753Y210586D01*
X272957Y218382D01*
X293868Y187198D02*
X305562Y187198D01*
X293868Y187198D02*
X293868Y193045D01*
X295817Y194994D01*
X299715Y194994D01*
X301664Y193045D01*
X301664Y187198D01*
X301664Y191096D02*
X305562Y194994D01*
X297766Y198892D02*
X293868Y202790D01*
X305562Y202790D01*
X305562Y198892D02*
X305562Y206688D01*
X297766Y210586D02*
X293868Y214484D01*
X305562Y214484D01*
X305562Y210586D02*
X305562Y218382D01*
X316728Y187198D02*
X328422Y187198D01*
X316728Y187198D02*
X316728Y193045D01*
X318677Y194994D01*
X322575Y194994D01*
X324524Y193045D01*
X324524Y187198D01*
X324524Y191096D02*
X328422Y194994D01*
X320626Y198892D02*
X316728Y202790D01*
X328422Y202790D01*
X328422Y198892D02*
X328422Y206688D01*
X328422Y210586D02*
X328422Y218382D01*
X328422Y210586D02*
X320626Y218382D01*
X318677Y218382D01*
X316728Y216433D01*
X316728Y212535D01*
X318677Y210586D01*
X339588Y187198D02*
X351282Y187198D01*
X339588Y187198D02*
X339588Y193045D01*
X341537Y194994D01*
X345435Y194994D01*
X347384Y193045D01*
X347384Y187198D01*
X347384Y191096D02*
X351282Y194994D01*
X343486Y198892D02*
X339588Y202790D01*
X351282Y202790D01*
X351282Y198892D02*
X351282Y206688D01*
X341537Y210586D02*
X339588Y212535D01*
X339588Y216433D01*
X341537Y218382D01*
X343486Y218382D01*
X345435Y216433D01*
X347384Y218382D01*
X349333Y218382D01*
X351282Y216433D01*
X351282Y212535D01*
X349333Y210586D01*
X347384Y210586D01*
X345435Y212535D01*
X343486Y210586D01*
X341537Y210586D01*
X345435Y212535D02*
X345435Y216433D01*
X362448Y187198D02*
X374142Y187198D01*
X362448Y187198D02*
X362448Y193045D01*
X364397Y194994D01*
X368295Y194994D01*
X370244Y193045D01*
X370244Y187198D01*
X370244Y191096D02*
X374142Y194994D01*
X366346Y198892D02*
X362448Y202790D01*
X374142Y202790D01*
X374142Y198892D02*
X374142Y206688D01*
X372193Y210586D02*
X374142Y212535D01*
X374142Y216433D01*
X372193Y218382D01*
X364397Y218382D01*
X362448Y216433D01*
X362448Y212535D01*
X364397Y210586D01*
X366346Y210586D01*
X368295Y212535D01*
X368295Y218382D01*
D10*
X158780Y151480D02*
X130780Y151480D01*
X130780Y163480D01*
X158780Y163480D01*
X158780Y151480D01*
D11*
X164328Y141956D02*
X174073Y141956D01*
X176022Y143905D01*
X176022Y147803D01*
X174073Y149752D01*
X164328Y149752D01*
X174073Y153650D02*
X176022Y155599D01*
X176022Y159497D01*
X174073Y161446D01*
X172124Y161446D01*
X170175Y159497D01*
X170175Y155599D01*
X168226Y153650D01*
X166277Y153650D01*
X164328Y155599D01*
X164328Y159497D01*
X166277Y161446D01*
X162379Y157548D02*
X177971Y157548D01*
X164328Y165344D02*
X164328Y173140D01*
X166277Y173140D01*
X174073Y165344D01*
X176022Y165344D01*
D10*
X176500Y151480D02*
X204500Y151480D01*
X176500Y151480D02*
X176500Y163480D01*
X204500Y163480D01*
X204500Y151480D01*
D11*
X210048Y141956D02*
X219793Y141956D01*
X221742Y143905D01*
X221742Y147803D01*
X219793Y149752D01*
X210048Y149752D01*
X219793Y153650D02*
X221742Y155599D01*
X221742Y159497D01*
X219793Y161446D01*
X217844Y161446D01*
X215895Y159497D01*
X215895Y155599D01*
X213946Y153650D01*
X211997Y153650D01*
X210048Y155599D01*
X210048Y159497D01*
X211997Y161446D01*
X208099Y157548D02*
X223691Y157548D01*
X211997Y165344D02*
X210048Y167293D01*
X210048Y171191D01*
X211997Y173140D01*
X213946Y173140D01*
X215895Y171191D01*
X217844Y173140D01*
X219793Y173140D01*
X221742Y171191D01*
X221742Y167293D01*
X219793Y165344D01*
X217844Y165344D01*
X215895Y167293D01*
X213946Y165344D01*
X211997Y165344D01*
X215895Y167293D02*
X215895Y171191D01*
X145542Y187198D02*
X133848Y187198D01*
X133848Y193045D01*
X135797Y194994D01*
X139695Y194994D01*
X141644Y193045D01*
X141644Y187198D01*
X141644Y191096D02*
X145542Y194994D01*
X145542Y198892D02*
X145542Y206688D01*
X145542Y198892D02*
X137746Y206688D01*
X135797Y206688D01*
X133848Y204739D01*
X133848Y200841D01*
X135797Y198892D01*
X135797Y210586D02*
X143593Y210586D01*
X135797Y210586D02*
X133848Y212535D01*
X133848Y216433D01*
X135797Y218382D01*
X143593Y218382D01*
X145542Y216433D01*
X145542Y212535D01*
X143593Y210586D01*
X135797Y218382D01*
D10*
X222220Y151480D02*
X250220Y151480D01*
X222220Y151480D02*
X222220Y163480D01*
X250220Y163480D01*
X250220Y151480D01*
D11*
X255768Y141956D02*
X265513Y141956D01*
X267462Y143905D01*
X267462Y147803D01*
X265513Y149752D01*
X255768Y149752D01*
X265513Y153650D02*
X267462Y155599D01*
X267462Y159497D01*
X265513Y161446D01*
X263564Y161446D01*
X261615Y159497D01*
X261615Y155599D01*
X259666Y153650D01*
X257717Y153650D01*
X255768Y155599D01*
X255768Y159497D01*
X257717Y161446D01*
X253819Y157548D02*
X269411Y157548D01*
X265513Y165344D02*
X267462Y167293D01*
X267462Y171191D01*
X265513Y173140D01*
X257717Y173140D01*
X255768Y171191D01*
X255768Y167293D01*
X257717Y165344D01*
X259666Y165344D01*
X261615Y167293D01*
X261615Y173140D01*
D10*
X267940Y151480D02*
X295940Y151480D01*
X267940Y151480D02*
X267940Y163480D01*
X295940Y163480D01*
X295940Y151480D01*
D11*
X301488Y130262D02*
X311233Y130262D01*
X313182Y132211D01*
X313182Y136109D01*
X311233Y138058D01*
X301488Y138058D01*
X311233Y141956D02*
X313182Y143905D01*
X313182Y147803D01*
X311233Y149752D01*
X309284Y149752D01*
X307335Y147803D01*
X307335Y143905D01*
X305386Y141956D01*
X303437Y141956D01*
X301488Y143905D01*
X301488Y147803D01*
X303437Y149752D01*
X299539Y145854D02*
X315131Y145854D01*
X305386Y153650D02*
X301488Y157548D01*
X313182Y157548D01*
X313182Y153650D02*
X313182Y161446D01*
X311233Y165344D02*
X303437Y165344D01*
X301488Y167293D01*
X301488Y171191D01*
X303437Y173140D01*
X311233Y173140D01*
X313182Y171191D01*
X313182Y167293D01*
X311233Y165344D01*
X303437Y173140D01*
D10*
X313660Y151480D02*
X341660Y151480D01*
X313660Y151480D02*
X313660Y163480D01*
X341660Y163480D01*
X341660Y151480D01*
D11*
X347208Y130262D02*
X356953Y130262D01*
X358902Y132211D01*
X358902Y136109D01*
X356953Y138058D01*
X347208Y138058D01*
X356953Y141956D02*
X358902Y143905D01*
X358902Y147803D01*
X356953Y149752D01*
X355004Y149752D01*
X353055Y147803D01*
X353055Y143905D01*
X351106Y141956D01*
X349157Y141956D01*
X347208Y143905D01*
X347208Y147803D01*
X349157Y149752D01*
X345259Y145854D02*
X360851Y145854D01*
X351106Y153650D02*
X347208Y157548D01*
X358902Y157548D01*
X358902Y153650D02*
X358902Y161446D01*
X351106Y165344D02*
X347208Y169242D01*
X358902Y169242D01*
X358902Y165344D02*
X358902Y173140D01*
D10*
X359380Y151480D02*
X387380Y151480D01*
X359380Y151480D02*
X359380Y163480D01*
X387380Y163480D01*
X387380Y151480D01*
D11*
X392928Y130262D02*
X402673Y130262D01*
X404622Y132211D01*
X404622Y136109D01*
X402673Y138058D01*
X392928Y138058D01*
X402673Y141956D02*
X404622Y143905D01*
X404622Y147803D01*
X402673Y149752D01*
X400724Y149752D01*
X398775Y147803D01*
X398775Y143905D01*
X396826Y141956D01*
X394877Y141956D01*
X392928Y143905D01*
X392928Y147803D01*
X394877Y149752D01*
X390979Y145854D02*
X406571Y145854D01*
X396826Y153650D02*
X392928Y157548D01*
X404622Y157548D01*
X404622Y153650D02*
X404622Y161446D01*
X404622Y165344D02*
X404622Y173140D01*
X404622Y165344D02*
X396826Y173140D01*
X394877Y173140D01*
X392928Y171191D01*
X392928Y167293D01*
X394877Y165344D01*
X397002Y187198D02*
X385308Y187198D01*
X385308Y193045D01*
X387257Y194994D01*
X391155Y194994D01*
X393104Y193045D01*
X393104Y187198D01*
X393104Y191096D02*
X397002Y194994D01*
X397002Y198892D02*
X397002Y206688D01*
X397002Y198892D02*
X389206Y206688D01*
X387257Y206688D01*
X385308Y204739D01*
X385308Y200841D01*
X387257Y198892D01*
X389206Y210586D02*
X385308Y214484D01*
X397002Y214484D01*
X397002Y210586D02*
X397002Y218382D01*
X408168Y187198D02*
X419862Y187198D01*
X408168Y187198D02*
X408168Y193045D01*
X410117Y194994D01*
X414015Y194994D01*
X415964Y193045D01*
X415964Y187198D01*
X415964Y191096D02*
X419862Y194994D01*
X419862Y198892D02*
X419862Y206688D01*
X419862Y198892D02*
X412066Y206688D01*
X410117Y206688D01*
X408168Y204739D01*
X408168Y200841D01*
X410117Y198892D01*
X419862Y210586D02*
X419862Y218382D01*
X419862Y210586D02*
X412066Y218382D01*
X410117Y218382D01*
X408168Y216433D01*
X408168Y212535D01*
X410117Y210586D01*
X431028Y187198D02*
X442722Y187198D01*
X431028Y187198D02*
X431028Y193045D01*
X432977Y194994D01*
X436875Y194994D01*
X438824Y193045D01*
X438824Y187198D01*
X438824Y191096D02*
X442722Y194994D01*
X442722Y198892D02*
X442722Y206688D01*
X442722Y198892D02*
X434926Y206688D01*
X432977Y206688D01*
X431028Y204739D01*
X431028Y200841D01*
X432977Y198892D01*
X432977Y210586D02*
X431028Y212535D01*
X431028Y216433D01*
X432977Y218382D01*
X434926Y218382D01*
X436875Y216433D01*
X436875Y214484D01*
X436875Y216433D02*
X438824Y218382D01*
X440773Y218382D01*
X442722Y216433D01*
X442722Y212535D01*
X440773Y210586D01*
X453888Y187198D02*
X465582Y187198D01*
X453888Y187198D02*
X453888Y193045D01*
X455837Y194994D01*
X459735Y194994D01*
X461684Y193045D01*
X461684Y187198D01*
X461684Y191096D02*
X465582Y194994D01*
X465582Y198892D02*
X465582Y206688D01*
X465582Y198892D02*
X457786Y206688D01*
X455837Y206688D01*
X453888Y204739D01*
X453888Y200841D01*
X455837Y198892D01*
X453888Y216433D02*
X465582Y216433D01*
X459735Y210586D02*
X453888Y216433D01*
X459735Y218382D02*
X459735Y210586D01*
X476748Y187198D02*
X488442Y187198D01*
X476748Y187198D02*
X476748Y193045D01*
X478697Y194994D01*
X482595Y194994D01*
X484544Y193045D01*
X484544Y187198D01*
X484544Y191096D02*
X488442Y194994D01*
X488442Y198892D02*
X488442Y206688D01*
X488442Y198892D02*
X480646Y206688D01*
X478697Y206688D01*
X476748Y204739D01*
X476748Y200841D01*
X478697Y198892D01*
X476748Y210586D02*
X476748Y218382D01*
X476748Y210586D02*
X482595Y210586D01*
X480646Y214484D01*
X480646Y216433D01*
X482595Y218382D01*
X486493Y218382D01*
X488442Y216433D01*
X488442Y212535D01*
X486493Y210586D01*
X499608Y187198D02*
X511302Y187198D01*
X499608Y187198D02*
X499608Y193045D01*
X501557Y194994D01*
X505455Y194994D01*
X507404Y193045D01*
X507404Y187198D01*
X507404Y191096D02*
X511302Y194994D01*
X511302Y198892D02*
X511302Y206688D01*
X511302Y198892D02*
X503506Y206688D01*
X501557Y206688D01*
X499608Y204739D01*
X499608Y200841D01*
X501557Y198892D01*
X501557Y214484D02*
X499608Y218382D01*
X501557Y214484D02*
X505455Y210586D01*
X509353Y210586D01*
X511302Y212535D01*
X511302Y216433D01*
X509353Y218382D01*
X507404Y218382D01*
X505455Y216433D01*
X505455Y210586D01*
X522468Y187198D02*
X534162Y187198D01*
X522468Y187198D02*
X522468Y193045D01*
X524417Y194994D01*
X528315Y194994D01*
X530264Y193045D01*
X530264Y187198D01*
X530264Y191096D02*
X534162Y194994D01*
X534162Y198892D02*
X534162Y206688D01*
X534162Y198892D02*
X526366Y206688D01*
X524417Y206688D01*
X522468Y204739D01*
X522468Y200841D01*
X524417Y198892D01*
X522468Y210586D02*
X522468Y218382D01*
X524417Y218382D01*
X532213Y210586D01*
X534162Y210586D01*
D10*
X433100Y151480D02*
X405100Y151480D01*
X405100Y163480D01*
X433100Y163480D01*
X433100Y151480D01*
D11*
X438648Y130262D02*
X448393Y130262D01*
X450342Y132211D01*
X450342Y136109D01*
X448393Y138058D01*
X438648Y138058D01*
X448393Y141956D02*
X450342Y143905D01*
X450342Y147803D01*
X448393Y149752D01*
X446444Y149752D01*
X444495Y147803D01*
X444495Y143905D01*
X442546Y141956D01*
X440597Y141956D01*
X438648Y143905D01*
X438648Y147803D01*
X440597Y149752D01*
X436699Y145854D02*
X452291Y145854D01*
X442546Y153650D02*
X438648Y157548D01*
X450342Y157548D01*
X450342Y153650D02*
X450342Y161446D01*
X440597Y165344D02*
X438648Y167293D01*
X438648Y171191D01*
X440597Y173140D01*
X442546Y173140D01*
X444495Y171191D01*
X444495Y169242D01*
X444495Y171191D02*
X446444Y173140D01*
X448393Y173140D01*
X450342Y171191D01*
X450342Y167293D01*
X448393Y165344D01*
D10*
X450820Y151480D02*
X478820Y151480D01*
X450820Y151480D02*
X450820Y163480D01*
X478820Y163480D01*
X478820Y151480D01*
D11*
X484368Y130262D02*
X494113Y130262D01*
X496062Y132211D01*
X496062Y136109D01*
X494113Y138058D01*
X484368Y138058D01*
X494113Y141956D02*
X496062Y143905D01*
X496062Y147803D01*
X494113Y149752D01*
X492164Y149752D01*
X490215Y147803D01*
X490215Y143905D01*
X488266Y141956D01*
X486317Y141956D01*
X484368Y143905D01*
X484368Y147803D01*
X486317Y149752D01*
X482419Y145854D02*
X498011Y145854D01*
X488266Y153650D02*
X484368Y157548D01*
X496062Y157548D01*
X496062Y153650D02*
X496062Y161446D01*
X484368Y165344D02*
X484368Y173140D01*
X484368Y165344D02*
X490215Y165344D01*
X488266Y169242D01*
X488266Y171191D01*
X490215Y173140D01*
X494113Y173140D01*
X496062Y171191D01*
X496062Y167293D01*
X494113Y165344D01*
D10*
X496540Y151480D02*
X524540Y151480D01*
X496540Y151480D02*
X496540Y163480D01*
X524540Y163480D01*
X524540Y151480D01*
D11*
X530088Y130262D02*
X539833Y130262D01*
X541782Y132211D01*
X541782Y136109D01*
X539833Y138058D01*
X530088Y138058D01*
X539833Y141956D02*
X541782Y143905D01*
X541782Y147803D01*
X539833Y149752D01*
X537884Y149752D01*
X535935Y147803D01*
X535935Y143905D01*
X533986Y141956D01*
X532037Y141956D01*
X530088Y143905D01*
X530088Y147803D01*
X532037Y149752D01*
X528139Y145854D02*
X543731Y145854D01*
X533986Y153650D02*
X530088Y157548D01*
X541782Y157548D01*
X541782Y153650D02*
X541782Y161446D01*
X532037Y169242D02*
X530088Y173140D01*
X532037Y169242D02*
X535935Y165344D01*
X539833Y165344D01*
X541782Y167293D01*
X541782Y171191D01*
X539833Y173140D01*
X537884Y173140D01*
X535935Y171191D01*
X535935Y165344D01*
X545328Y187198D02*
X557022Y187198D01*
X545328Y187198D02*
X545328Y193045D01*
X547277Y194994D01*
X551175Y194994D01*
X553124Y193045D01*
X553124Y187198D01*
X553124Y191096D02*
X557022Y194994D01*
X557022Y198892D02*
X557022Y206688D01*
X557022Y198892D02*
X549226Y206688D01*
X547277Y206688D01*
X545328Y204739D01*
X545328Y200841D01*
X547277Y198892D01*
X547277Y210586D02*
X545328Y212535D01*
X545328Y216433D01*
X547277Y218382D01*
X549226Y218382D01*
X551175Y216433D01*
X553124Y218382D01*
X555073Y218382D01*
X557022Y216433D01*
X557022Y212535D01*
X555073Y210586D01*
X553124Y210586D01*
X551175Y212535D01*
X549226Y210586D01*
X547277Y210586D01*
X551175Y212535D02*
X551175Y216433D01*
D10*
X542260Y151480D02*
X570260Y151480D01*
X542260Y151480D02*
X542260Y163480D01*
X570260Y163480D01*
X570260Y151480D01*
D11*
X575808Y130262D02*
X585553Y130262D01*
X587502Y132211D01*
X587502Y136109D01*
X585553Y138058D01*
X575808Y138058D01*
X585553Y141956D02*
X587502Y143905D01*
X587502Y147803D01*
X585553Y149752D01*
X583604Y149752D01*
X581655Y147803D01*
X581655Y143905D01*
X579706Y141956D01*
X577757Y141956D01*
X575808Y143905D01*
X575808Y147803D01*
X577757Y149752D01*
X573859Y145854D02*
X589451Y145854D01*
X579706Y153650D02*
X575808Y157548D01*
X587502Y157548D01*
X587502Y153650D02*
X587502Y161446D01*
X575808Y165344D02*
X575808Y173140D01*
X577757Y173140D01*
X585553Y165344D01*
X587502Y165344D01*
D14*
X130050Y114040D02*
X130050Y84330D01*
X159510Y84330D02*
X159510Y114040D01*
D11*
X125222Y72898D02*
X113528Y72898D01*
X113528Y78745D01*
X115477Y80694D01*
X119375Y80694D01*
X121324Y78745D01*
X121324Y72898D01*
X121324Y76796D02*
X125222Y80694D01*
X115477Y84592D02*
X113528Y86541D01*
X113528Y90439D01*
X115477Y92388D01*
X117426Y92388D01*
X119375Y90439D01*
X119375Y88490D01*
X119375Y90439D02*
X121324Y92388D01*
X123273Y92388D01*
X125222Y90439D01*
X125222Y86541D01*
X123273Y84592D01*
X123273Y96286D02*
X115477Y96286D01*
X113528Y98235D01*
X113528Y102133D01*
X115477Y104082D01*
X123273Y104082D01*
X125222Y102133D01*
X125222Y98235D01*
X123273Y96286D01*
X115477Y104082D01*
D14*
X175770Y114040D02*
X175770Y84330D01*
X205230Y84330D02*
X205230Y114040D01*
D11*
X170942Y72898D02*
X159248Y72898D01*
X159248Y78745D01*
X161197Y80694D01*
X165095Y80694D01*
X167044Y78745D01*
X167044Y72898D01*
X167044Y76796D02*
X170942Y80694D01*
X161197Y84592D02*
X159248Y86541D01*
X159248Y90439D01*
X161197Y92388D01*
X163146Y92388D01*
X165095Y90439D01*
X165095Y88490D01*
X165095Y90439D02*
X167044Y92388D01*
X168993Y92388D01*
X170942Y90439D01*
X170942Y86541D01*
X168993Y84592D01*
X163146Y96286D02*
X159248Y100184D01*
X170942Y100184D01*
X170942Y96286D02*
X170942Y104082D01*
D14*
X221490Y114040D02*
X221490Y84330D01*
X250950Y84330D02*
X250950Y114040D01*
D11*
X216662Y72898D02*
X204968Y72898D01*
X204968Y78745D01*
X206917Y80694D01*
X210815Y80694D01*
X212764Y78745D01*
X212764Y72898D01*
X212764Y76796D02*
X216662Y80694D01*
X206917Y84592D02*
X204968Y86541D01*
X204968Y90439D01*
X206917Y92388D01*
X208866Y92388D01*
X210815Y90439D01*
X210815Y88490D01*
X210815Y90439D02*
X212764Y92388D01*
X214713Y92388D01*
X216662Y90439D01*
X216662Y86541D01*
X214713Y84592D01*
X216662Y96286D02*
X216662Y104082D01*
X216662Y96286D02*
X208866Y104082D01*
X206917Y104082D01*
X204968Y102133D01*
X204968Y98235D01*
X206917Y96286D01*
D14*
X267210Y84330D02*
X267210Y114040D01*
X296670Y114040D02*
X296670Y84330D01*
D11*
X262382Y72898D02*
X250688Y72898D01*
X250688Y78745D01*
X252637Y80694D01*
X256535Y80694D01*
X258484Y78745D01*
X258484Y72898D01*
X258484Y76796D02*
X262382Y80694D01*
X252637Y84592D02*
X250688Y86541D01*
X250688Y90439D01*
X252637Y92388D01*
X254586Y92388D01*
X256535Y90439D01*
X256535Y88490D01*
X256535Y90439D02*
X258484Y92388D01*
X260433Y92388D01*
X262382Y90439D01*
X262382Y86541D01*
X260433Y84592D01*
X252637Y96286D02*
X250688Y98235D01*
X250688Y102133D01*
X252637Y104082D01*
X254586Y104082D01*
X256535Y102133D01*
X256535Y100184D01*
X256535Y102133D02*
X258484Y104082D01*
X260433Y104082D01*
X262382Y102133D01*
X262382Y98235D01*
X260433Y96286D01*
D14*
X312930Y84330D02*
X312930Y114040D01*
X342390Y114040D02*
X342390Y84330D01*
D11*
X308102Y72898D02*
X296408Y72898D01*
X296408Y78745D01*
X298357Y80694D01*
X302255Y80694D01*
X304204Y78745D01*
X304204Y72898D01*
X304204Y76796D02*
X308102Y80694D01*
X298357Y84592D02*
X296408Y86541D01*
X296408Y90439D01*
X298357Y92388D01*
X300306Y92388D01*
X302255Y90439D01*
X302255Y88490D01*
X302255Y90439D02*
X304204Y92388D01*
X306153Y92388D01*
X308102Y90439D01*
X308102Y86541D01*
X306153Y84592D01*
X308102Y102133D02*
X296408Y102133D01*
X302255Y96286D01*
X302255Y104082D01*
D14*
X358650Y114040D02*
X358650Y84330D01*
X388110Y84330D02*
X388110Y114040D01*
D11*
X353822Y72898D02*
X342128Y72898D01*
X342128Y78745D01*
X344077Y80694D01*
X347975Y80694D01*
X349924Y78745D01*
X349924Y72898D01*
X349924Y76796D02*
X353822Y80694D01*
X344077Y84592D02*
X342128Y86541D01*
X342128Y90439D01*
X344077Y92388D01*
X346026Y92388D01*
X347975Y90439D01*
X347975Y88490D01*
X347975Y90439D02*
X349924Y92388D01*
X351873Y92388D01*
X353822Y90439D01*
X353822Y86541D01*
X351873Y84592D01*
X342128Y96286D02*
X342128Y104082D01*
X342128Y96286D02*
X347975Y96286D01*
X346026Y100184D01*
X346026Y102133D01*
X347975Y104082D01*
X351873Y104082D01*
X353822Y102133D01*
X353822Y98235D01*
X351873Y96286D01*
D14*
X404370Y84330D02*
X404370Y114040D01*
X433830Y114040D02*
X433830Y84330D01*
D11*
X399542Y72898D02*
X387848Y72898D01*
X387848Y78745D01*
X389797Y80694D01*
X393695Y80694D01*
X395644Y78745D01*
X395644Y72898D01*
X395644Y76796D02*
X399542Y80694D01*
X389797Y84592D02*
X387848Y86541D01*
X387848Y90439D01*
X389797Y92388D01*
X391746Y92388D01*
X393695Y90439D01*
X393695Y88490D01*
X393695Y90439D02*
X395644Y92388D01*
X397593Y92388D01*
X399542Y90439D01*
X399542Y86541D01*
X397593Y84592D01*
X389797Y100184D02*
X387848Y104082D01*
X389797Y100184D02*
X393695Y96286D01*
X397593Y96286D01*
X399542Y98235D01*
X399542Y102133D01*
X397593Y104082D01*
X395644Y104082D01*
X393695Y102133D01*
X393695Y96286D01*
D14*
X450090Y84330D02*
X450090Y114040D01*
X479550Y114040D02*
X479550Y84330D01*
D11*
X445262Y72898D02*
X433568Y72898D01*
X433568Y78745D01*
X435517Y80694D01*
X439415Y80694D01*
X441364Y78745D01*
X441364Y72898D01*
X441364Y76796D02*
X445262Y80694D01*
X435517Y84592D02*
X433568Y86541D01*
X433568Y90439D01*
X435517Y92388D01*
X437466Y92388D01*
X439415Y90439D01*
X439415Y88490D01*
X439415Y90439D02*
X441364Y92388D01*
X443313Y92388D01*
X445262Y90439D01*
X445262Y86541D01*
X443313Y84592D01*
X433568Y96286D02*
X433568Y104082D01*
X435517Y104082D01*
X443313Y96286D01*
X445262Y96286D01*
D14*
X495810Y84330D02*
X495810Y114040D01*
X525270Y114040D02*
X525270Y84330D01*
D11*
X490982Y72898D02*
X479288Y72898D01*
X479288Y78745D01*
X481237Y80694D01*
X485135Y80694D01*
X487084Y78745D01*
X487084Y72898D01*
X487084Y76796D02*
X490982Y80694D01*
X481237Y84592D02*
X479288Y86541D01*
X479288Y90439D01*
X481237Y92388D01*
X483186Y92388D01*
X485135Y90439D01*
X485135Y88490D01*
X485135Y90439D02*
X487084Y92388D01*
X489033Y92388D01*
X490982Y90439D01*
X490982Y86541D01*
X489033Y84592D01*
X481237Y96286D02*
X479288Y98235D01*
X479288Y102133D01*
X481237Y104082D01*
X483186Y104082D01*
X485135Y102133D01*
X487084Y104082D01*
X489033Y104082D01*
X490982Y102133D01*
X490982Y98235D01*
X489033Y96286D01*
X487084Y96286D01*
X485135Y98235D01*
X483186Y96286D01*
X481237Y96286D01*
X485135Y98235D02*
X485135Y102133D01*
D14*
X541530Y114040D02*
X541530Y84330D01*
X570990Y84330D02*
X570990Y114040D01*
D11*
X536702Y72898D02*
X525008Y72898D01*
X525008Y78745D01*
X526957Y80694D01*
X530855Y80694D01*
X532804Y78745D01*
X532804Y72898D01*
X532804Y76796D02*
X536702Y80694D01*
X526957Y84592D02*
X525008Y86541D01*
X525008Y90439D01*
X526957Y92388D01*
X528906Y92388D01*
X530855Y90439D01*
X530855Y88490D01*
X530855Y90439D02*
X532804Y92388D01*
X534753Y92388D01*
X536702Y90439D01*
X536702Y86541D01*
X534753Y84592D01*
X534753Y96286D02*
X536702Y98235D01*
X536702Y102133D01*
X534753Y104082D01*
X526957Y104082D01*
X525008Y102133D01*
X525008Y98235D01*
X526957Y96286D01*
X528906Y96286D01*
X530855Y98235D01*
X530855Y104082D01*
D10*
X539800Y48100D02*
X69800Y48100D01*
X539800Y48100D02*
X539800Y-46900D01*
X69800Y-46900D01*
X69800Y48100D01*
D17*
X445770Y472440D02*
X451358Y472440D01*
D14*
X428244Y473964D02*
X427662Y474182D01*
X427086Y474415D01*
X426516Y474662D01*
X425952Y474922D01*
X425394Y475197D01*
X424843Y475484D01*
X424300Y475786D01*
X423764Y476100D01*
X423236Y476428D01*
X422716Y476768D01*
X422204Y477121D01*
X421702Y477486D01*
X421208Y477864D01*
X420724Y478253D01*
X420250Y478655D01*
X419785Y479067D01*
X419331Y479491D01*
X418887Y479926D01*
X418454Y480372D01*
X418032Y480828D01*
X417621Y481294D01*
X417222Y481771D01*
X416835Y482257D01*
X416459Y482752D01*
X416096Y483256D01*
X415746Y483769D01*
X415408Y484290D01*
X415082Y484820D01*
X414770Y485357D01*
X414472Y485902D01*
X414186Y486454D01*
X413914Y487013D01*
X413656Y487578D01*
X413412Y488150D01*
X413182Y488727D01*
X412966Y489309D01*
X412764Y489897D01*
X412577Y490490D01*
X412405Y491087D01*
X412247Y491688D01*
X412103Y492292D01*
X411975Y492900D01*
X411862Y493511D01*
X411763Y494125D01*
X411680Y494741D01*
X411612Y495358D01*
X411558Y495977D01*
X411520Y496598D01*
X411498Y497219D01*
X411490Y497840D01*
X411498Y498461D01*
X411520Y499082D01*
X411558Y499703D01*
X411612Y500322D01*
X411680Y500939D01*
X411763Y501555D01*
X411862Y502169D01*
X411975Y502780D01*
X412103Y503388D01*
X412247Y503992D01*
X412405Y504593D01*
X412577Y505190D01*
X412764Y505783D01*
X412966Y506371D01*
X413182Y506953D01*
X413412Y507530D01*
X413656Y508102D01*
X413914Y508667D01*
X414186Y509226D01*
X414472Y509778D01*
X414770Y510323D01*
X415082Y510860D01*
X415408Y511390D01*
X415746Y511911D01*
X416096Y512424D01*
X416459Y512928D01*
X416835Y513423D01*
X417222Y513909D01*
X417621Y514386D01*
X418032Y514852D01*
X418454Y515308D01*
X418887Y515754D01*
X419331Y516189D01*
X419785Y516613D01*
X420250Y517025D01*
X420724Y517427D01*
X421208Y517816D01*
X421702Y518194D01*
X422204Y518559D01*
X422716Y518912D01*
X423236Y519252D01*
X423764Y519580D01*
X424300Y519894D01*
X424843Y520196D01*
X425394Y520483D01*
X425952Y520758D01*
X426516Y521018D01*
X427086Y521265D01*
X427662Y521498D01*
X428244Y521716D01*
D17*
X445514Y525774D02*
X446195Y525554D01*
X446870Y525318D01*
X447539Y525066D01*
X448202Y524797D01*
X448858Y524512D01*
X449506Y524211D01*
X450148Y523895D01*
X450781Y523562D01*
X451406Y523215D01*
X452022Y522852D01*
X452630Y522474D01*
X453227Y522082D01*
X453815Y521675D01*
X454393Y521253D01*
X454961Y520818D01*
X455517Y520369D01*
X456063Y519906D01*
X456597Y519431D01*
X457119Y518942D01*
X457629Y518441D01*
X458127Y517927D01*
X458612Y517401D01*
X459084Y516864D01*
X459542Y516315D01*
X459987Y515756D01*
X460419Y515185D01*
X460836Y514604D01*
X461239Y514013D01*
X461627Y513413D01*
X462000Y512803D01*
X462359Y512184D01*
X462702Y511557D01*
X463030Y510921D01*
X463342Y510277D01*
X463638Y509627D01*
X463919Y508969D01*
X464183Y508304D01*
X464430Y507633D01*
X464662Y506956D01*
X464876Y506274D01*
X465074Y505587D01*
X465255Y504895D01*
X465419Y504199D01*
X465566Y503499D01*
X465696Y502796D01*
X465809Y502090D01*
X465904Y501381D01*
X465982Y500670D01*
X466042Y499957D01*
X466085Y499243D01*
X466111Y498529D01*
X466119Y497813D01*
X466110Y497098D01*
X466083Y496384D01*
X466038Y495670D01*
X465976Y494957D01*
X465897Y494247D01*
X465801Y493538D01*
X465687Y492832D01*
X465556Y492129D01*
X465407Y491429D01*
X465242Y490734D01*
X465060Y490042D01*
X464860Y489355D01*
X464644Y488673D01*
X464412Y487997D01*
X464163Y487327D01*
X463898Y486663D01*
X463616Y486005D01*
X463319Y485355D01*
X463005Y484712D01*
X462676Y484077D01*
X462332Y483450D01*
X461972Y482832D01*
X461598Y482223D01*
X461208Y481623D01*
X460804Y481033D01*
X460386Y480453D01*
X459954Y479883D01*
X459507Y479324D01*
X459048Y478776D01*
X458575Y478240D01*
X458089Y477715D01*
X457590Y477202D01*
X457079Y476702D01*
X456556Y476214D01*
X456021Y475740D01*
X455475Y475278D01*
X454917Y474830D01*
X454349Y474396D01*
X453771Y473976D01*
X453182Y473570D01*
X452583Y473178D01*
X451975Y472802D01*
X451358Y472440D01*
X422398Y472434D02*
X421781Y472795D01*
X421173Y473172D01*
X420574Y473564D01*
X419986Y473970D01*
X419407Y474390D01*
X418839Y474825D01*
X418281Y475273D01*
X417735Y475734D01*
X417200Y476209D01*
X416677Y476697D01*
X416166Y477198D01*
X415667Y477710D01*
X415181Y478235D01*
X414708Y478772D01*
X414248Y479320D01*
X413802Y479879D01*
X413370Y480449D01*
X412952Y481029D01*
X412548Y481619D01*
X412158Y482219D01*
X411784Y482829D01*
X411424Y483447D01*
X411080Y484074D01*
X410751Y484709D01*
X410437Y485352D01*
X410140Y486003D01*
X409858Y486660D01*
X409593Y487324D01*
X409344Y487995D01*
X409111Y488671D01*
X408895Y489353D01*
X408696Y490040D01*
X408514Y490732D01*
X408349Y491428D01*
X408200Y492128D01*
X408069Y492831D01*
X407955Y493537D01*
X407859Y494246D01*
X407779Y494957D01*
X407718Y495669D01*
X407673Y496383D01*
X407646Y497098D01*
X407637Y497813D01*
X407645Y498528D01*
X407671Y499243D01*
X407714Y499957D01*
X407774Y500670D01*
X407852Y501381D01*
X407947Y502090D01*
X408060Y502796D01*
X408190Y503500D01*
X408337Y504200D01*
X408501Y504896D01*
X408682Y505588D01*
X408880Y506275D01*
X409095Y506958D01*
X409326Y507634D01*
X409574Y508305D01*
X409838Y508970D01*
X410118Y509628D01*
X410414Y510279D01*
X410727Y510923D01*
X411054Y511559D01*
X411398Y512186D01*
X411756Y512805D01*
X412130Y513415D01*
X412518Y514016D01*
X412921Y514607D01*
X413338Y515188D01*
X413769Y515759D01*
X414214Y516318D01*
X414673Y516867D01*
X415145Y517405D01*
X415630Y517931D01*
X416128Y518444D01*
X416638Y518946D01*
X417160Y519434D01*
X417694Y519910D01*
X418240Y520373D01*
X418796Y520822D01*
X419364Y521258D01*
X419942Y521679D01*
X420530Y522086D01*
X421128Y522479D01*
X421735Y522857D01*
X422352Y523220D01*
X422977Y523568D01*
X423610Y523900D01*
X424251Y524217D01*
X424900Y524518D01*
X425556Y524803D01*
X426219Y525072D01*
X426888Y525324D01*
X427563Y525561D01*
X428244Y525780D01*
D14*
X445516Y521716D02*
X446098Y521498D01*
X446674Y521265D01*
X447244Y521018D01*
X447808Y520758D01*
X448366Y520483D01*
X448917Y520196D01*
X449460Y519894D01*
X449996Y519580D01*
X450524Y519252D01*
X451044Y518912D01*
X451556Y518559D01*
X452058Y518194D01*
X452552Y517816D01*
X453036Y517427D01*
X453510Y517025D01*
X453975Y516613D01*
X454429Y516189D01*
X454873Y515754D01*
X455306Y515308D01*
X455728Y514852D01*
X456139Y514386D01*
X456538Y513909D01*
X456925Y513423D01*
X457301Y512928D01*
X457664Y512424D01*
X458014Y511911D01*
X458352Y511390D01*
X458678Y510860D01*
X458990Y510323D01*
X459288Y509778D01*
X459574Y509226D01*
X459846Y508667D01*
X460104Y508102D01*
X460348Y507530D01*
X460578Y506953D01*
X460794Y506371D01*
X460996Y505783D01*
X461183Y505190D01*
X461355Y504593D01*
X461513Y503992D01*
X461657Y503388D01*
X461785Y502780D01*
X461898Y502169D01*
X461997Y501555D01*
X462080Y500939D01*
X462148Y500322D01*
X462202Y499703D01*
X462240Y499082D01*
X462262Y498461D01*
X462270Y497840D01*
X462262Y497219D01*
X462240Y496598D01*
X462202Y495977D01*
X462148Y495358D01*
X462080Y494741D01*
X461997Y494125D01*
X461898Y493511D01*
X461785Y492900D01*
X461657Y492292D01*
X461513Y491688D01*
X461355Y491087D01*
X461183Y490490D01*
X460996Y489897D01*
X460794Y489309D01*
X460578Y488727D01*
X460348Y488150D01*
X460104Y487578D01*
X459846Y487013D01*
X459574Y486454D01*
X459288Y485902D01*
X458990Y485357D01*
X458678Y484820D01*
X458352Y484290D01*
X458014Y483769D01*
X457664Y483256D01*
X457301Y482752D01*
X456925Y482257D01*
X456538Y481771D01*
X456139Y481294D01*
X455728Y480828D01*
X455306Y480372D01*
X454873Y479926D01*
X454429Y479491D01*
X453975Y479067D01*
X453510Y478655D01*
X453036Y478253D01*
X452552Y477864D01*
X452058Y477486D01*
X451556Y477121D01*
X451044Y476768D01*
X450524Y476428D01*
X449996Y476100D01*
X449460Y475786D01*
X448917Y475484D01*
X448366Y475197D01*
X447808Y474922D01*
X447244Y474662D01*
X446674Y474415D01*
X446098Y474182D01*
X445516Y473964D01*
D17*
X427990Y472440D02*
X422402Y472440D01*
D10*
X462905Y425293D02*
X474345Y425293D01*
X474345Y432920D01*
X474345Y436987D02*
X462905Y436987D01*
X474345Y436987D02*
X474345Y442707D01*
X472438Y444614D01*
X464812Y444614D01*
X462905Y442707D01*
X462905Y436987D01*
X466719Y448681D02*
X462905Y452494D01*
X474345Y452494D01*
X474345Y448681D02*
X474345Y456307D01*
D11*
X359126Y451622D02*
X359126Y439928D01*
X359126Y451622D02*
X364973Y451622D01*
X366922Y449673D01*
X366922Y445775D01*
X364973Y443826D01*
X359126Y443826D01*
X363024Y443826D02*
X366922Y439928D01*
X370820Y439928D02*
X378616Y439928D01*
X370820Y439928D02*
X378616Y447724D01*
X378616Y449673D01*
X376667Y451622D01*
X372769Y451622D01*
X370820Y449673D01*
X382514Y441877D02*
X384463Y439928D01*
X388361Y439928D01*
X390310Y441877D01*
X390310Y449673D01*
X388361Y451622D01*
X384463Y451622D01*
X382514Y449673D01*
X382514Y447724D01*
X384463Y445775D01*
X390310Y445775D01*
X442946Y304302D02*
X442946Y292608D01*
X442946Y304302D02*
X448793Y304302D01*
X450742Y302353D01*
X450742Y298455D01*
X448793Y296506D01*
X442946Y296506D01*
X446844Y296506D02*
X450742Y292608D01*
X460487Y292608D02*
X460487Y304302D01*
X454640Y298455D01*
X462436Y298455D01*
X466334Y294557D02*
X466334Y302353D01*
X468283Y304302D01*
X472181Y304302D01*
X474130Y302353D01*
X474130Y294557D01*
X472181Y292608D01*
X468283Y292608D01*
X466334Y294557D01*
X474130Y302353D01*
X110206Y271282D02*
X110206Y259588D01*
X110206Y271282D02*
X116053Y271282D01*
X118002Y269333D01*
X118002Y265435D01*
X116053Y263486D01*
X110206Y263486D01*
X114104Y263486D02*
X118002Y259588D01*
X127747Y259588D02*
X127747Y271282D01*
X121900Y265435D01*
X129696Y265435D01*
X133594Y267384D02*
X137492Y271282D01*
X137492Y259588D01*
X133594Y259588D02*
X141390Y259588D01*
X443728Y425455D02*
X445677Y427404D01*
X443728Y425455D02*
X443728Y421557D01*
X445677Y419608D01*
X453473Y419608D01*
X455422Y421557D01*
X455422Y425455D01*
X453473Y427404D01*
X445677Y435200D02*
X443728Y439098D01*
X445677Y435200D02*
X449575Y431302D01*
X453473Y431302D01*
X455422Y433251D01*
X455422Y437149D01*
X453473Y439098D01*
X451524Y439098D01*
X449575Y437149D01*
X449575Y431302D01*
X208187Y405814D02*
X206238Y403865D01*
X206238Y399967D01*
X208187Y398018D01*
X215983Y398018D01*
X217932Y399967D01*
X217932Y403865D01*
X215983Y405814D01*
X210136Y409712D02*
X206238Y413610D01*
X217932Y413610D01*
X217932Y409712D02*
X217932Y417508D01*
D10*
X-16500Y359660D02*
X-16500Y549660D01*
X75500Y549660D01*
X75500Y359660D01*
X-16500Y359660D01*
X626100Y359660D02*
X626100Y549660D01*
X626100Y359660D02*
X534100Y359660D01*
X534100Y549660D01*
X626100Y549660D01*
X626100Y360000D02*
X534100Y360000D01*
X626100Y360000D02*
X626100Y275000D01*
X534100Y275000D01*
X534100Y360000D01*
X75500Y275000D02*
X-16500Y275000D01*
X-16500Y360000D01*
X75500Y360000D01*
X75500Y275000D01*
M02*
