G04 EAGLE Gerber RS-274X export*
G75*
%MOMM*%
%FSLAX34Y34*%
%LPD*%
%INSoldermask Top*%
%IPPOS*%
%AMOC8*
5,1,8,0,0,1.08239X$1,22.5*%
G01*
%ADD10C,3.203200*%
%ADD11R,0.453200X1.453200*%
%ADD12R,0.914400X1.727200*%
%ADD13R,1.503200X1.703200*%
%ADD14R,0.903200X1.303200*%
%ADD15R,2.203200X3.003200*%
%ADD16R,0.900000X1.300000*%
%ADD17R,1.603200X1.603200*%
%ADD18R,1.803200X1.803200*%
%ADD19R,1.511200X1.511200*%
%ADD20R,1.403200X0.603200*%
%ADD21R,0.603200X1.403200*%
%ADD22C,1.727200*%
%ADD23R,1.703200X1.503200*%
%ADD24R,2.103200X1.603200*%
%ADD25R,0.838200X1.473200*%
%ADD26R,3.403200X2.003200*%
%ADD27R,2.003200X2.003200*%
%ADD28C,1.524000*%
%ADD29R,2.003200X1.803200*%
%ADD30R,2.153200X2.153200*%
%ADD31C,1.209600*%


D10*
X34798Y241300D03*
X574802Y241300D03*
D11*
X252300Y269780D03*
X257300Y269780D03*
X262300Y269780D03*
X267300Y269780D03*
X272300Y269780D03*
X277300Y269780D03*
X282300Y269780D03*
X287300Y269780D03*
X292300Y269780D03*
X297300Y269780D03*
X302300Y269780D03*
X307300Y269780D03*
X312300Y269780D03*
X317300Y269780D03*
X322300Y269780D03*
X327300Y269780D03*
X332300Y269780D03*
X337300Y269780D03*
X342300Y269780D03*
X347300Y269780D03*
X352300Y269780D03*
X357300Y269780D03*
X357300Y337280D03*
X352300Y337280D03*
X347300Y337280D03*
X342300Y337280D03*
X337300Y337280D03*
X332300Y337280D03*
X327300Y337280D03*
X322300Y337280D03*
X317300Y337280D03*
X312300Y337280D03*
X307300Y337280D03*
X302300Y337280D03*
X297300Y337280D03*
X292300Y337280D03*
X287300Y337280D03*
X282300Y337280D03*
X277300Y337280D03*
X272300Y337280D03*
X267300Y337280D03*
X262300Y337280D03*
X257300Y337280D03*
X252300Y337280D03*
D12*
X209550Y411480D03*
X196850Y411480D03*
X184150Y411480D03*
X171450Y411480D03*
X158750Y411480D03*
X146050Y411480D03*
X133350Y411480D03*
X120650Y411480D03*
X120650Y322580D03*
X133350Y322580D03*
X146050Y322580D03*
X158750Y322580D03*
X171450Y322580D03*
X184150Y322580D03*
X196850Y322580D03*
X209550Y322580D03*
D13*
X181220Y261620D03*
X164220Y261620D03*
X381390Y317500D03*
X398390Y317500D03*
D14*
X444260Y416840D03*
X414260Y416840D03*
D15*
X429260Y443340D03*
D16*
X429260Y416840D03*
D13*
X377580Y441960D03*
X394580Y441960D03*
D17*
X490220Y471220D03*
X490220Y509220D03*
D18*
X490220Y451340D03*
X490220Y417340D03*
D13*
X224400Y281940D03*
X207400Y281940D03*
X381390Y292100D03*
X398390Y292100D03*
X478400Y294640D03*
X461400Y294640D03*
X478400Y335280D03*
X461400Y335280D03*
D19*
X134620Y523240D03*
X210820Y472440D03*
X134620Y472440D03*
X210820Y523240D03*
X210820Y497840D03*
X134620Y497840D03*
D12*
X361950Y513080D03*
X374650Y513080D03*
X387350Y513080D03*
X400050Y513080D03*
X400050Y568960D03*
X387350Y568960D03*
X374650Y568960D03*
X361950Y568960D03*
D20*
X342720Y472250D03*
X342720Y464250D03*
X342720Y456250D03*
X342720Y448250D03*
X342720Y480250D03*
X342720Y488250D03*
X342720Y496250D03*
X342720Y504250D03*
X256720Y472250D03*
X256720Y464250D03*
X256720Y456250D03*
X256720Y448250D03*
X256720Y480250D03*
X256720Y488250D03*
X256720Y496250D03*
X256720Y504250D03*
D21*
X303720Y433250D03*
X311720Y433250D03*
X319720Y433250D03*
X327720Y433250D03*
X295720Y433250D03*
X287720Y433250D03*
X279720Y433250D03*
X271720Y433250D03*
X303720Y519250D03*
X311720Y519250D03*
X319720Y519250D03*
X327720Y519250D03*
X295720Y519250D03*
X287720Y519250D03*
X279720Y519250D03*
X271720Y519250D03*
D22*
X254000Y414020D02*
X254000Y398780D01*
X279400Y398780D02*
X279400Y414020D01*
X304800Y414020D02*
X304800Y398780D01*
X330200Y398780D02*
X330200Y414020D01*
X355600Y414020D02*
X355600Y398780D01*
D23*
X381000Y397900D03*
X381000Y414900D03*
D13*
X377580Y482600D03*
X394580Y482600D03*
X164220Y281940D03*
X181220Y281940D03*
X145660Y261620D03*
X128660Y261620D03*
D24*
X267560Y544260D03*
X311560Y544260D03*
X311560Y568260D03*
X267560Y568260D03*
D23*
X332740Y564760D03*
X332740Y547760D03*
X246380Y547760D03*
X246380Y564760D03*
D25*
X63340Y168480D03*
X53340Y146480D03*
X43340Y168480D03*
D23*
X64770Y185810D03*
X64770Y202810D03*
X41910Y185810D03*
X41910Y202810D03*
D26*
X53340Y71060D03*
X53340Y127060D03*
D23*
X87630Y185810D03*
X87630Y202810D03*
D25*
X109060Y168480D03*
X99060Y146480D03*
X89060Y168480D03*
D23*
X110490Y185810D03*
X110490Y202810D03*
D26*
X99060Y71060D03*
X99060Y127060D03*
D23*
X133350Y185810D03*
X133350Y202810D03*
D18*
X95250Y288780D03*
X95250Y254780D03*
D23*
X179070Y185810D03*
X179070Y202810D03*
X201930Y185810D03*
X201930Y202810D03*
X224790Y185810D03*
X224790Y202810D03*
X247650Y185810D03*
X247650Y202810D03*
X270510Y185810D03*
X270510Y202810D03*
X293370Y185810D03*
X293370Y202810D03*
X316230Y185810D03*
X316230Y202810D03*
X339090Y185810D03*
X339090Y202810D03*
X361950Y185810D03*
X361950Y202810D03*
X384810Y185810D03*
X384810Y202810D03*
D25*
X154780Y168480D03*
X144780Y146480D03*
X134780Y168480D03*
X200500Y168480D03*
X190500Y146480D03*
X180500Y168480D03*
D23*
X156210Y185810D03*
X156210Y202810D03*
D25*
X246220Y168480D03*
X236220Y146480D03*
X226220Y168480D03*
X291940Y168480D03*
X281940Y146480D03*
X271940Y168480D03*
X337660Y168480D03*
X327660Y146480D03*
X317660Y168480D03*
X383380Y168480D03*
X373380Y146480D03*
X363380Y168480D03*
D23*
X407670Y185810D03*
X407670Y202810D03*
X430530Y185810D03*
X430530Y202810D03*
X453390Y185810D03*
X453390Y202810D03*
X476250Y185810D03*
X476250Y202810D03*
X499110Y185810D03*
X499110Y202810D03*
X521970Y185810D03*
X521970Y202810D03*
X544830Y185810D03*
X544830Y202810D03*
D25*
X429100Y168480D03*
X419100Y146480D03*
X409100Y168480D03*
X474820Y168480D03*
X464820Y146480D03*
X454820Y168480D03*
X520540Y168480D03*
X510540Y146480D03*
X500540Y168480D03*
D23*
X567690Y185810D03*
X567690Y202810D03*
D25*
X566260Y168480D03*
X556260Y146480D03*
X546260Y168480D03*
D26*
X144780Y71060D03*
X144780Y127060D03*
X190500Y71060D03*
X190500Y127060D03*
X236220Y71060D03*
X236220Y127060D03*
X281940Y71060D03*
X281940Y127060D03*
X327660Y71060D03*
X327660Y127060D03*
X373380Y71060D03*
X373380Y127060D03*
X419100Y71060D03*
X419100Y127060D03*
X464820Y71060D03*
X464820Y127060D03*
X510540Y71060D03*
X510540Y127060D03*
X556260Y71060D03*
X556260Y127060D03*
D27*
X94800Y38100D03*
X129800Y38100D03*
X164800Y38100D03*
X199800Y38100D03*
X234800Y38100D03*
X269800Y38100D03*
X304800Y38100D03*
X339800Y38100D03*
X374800Y38100D03*
X409800Y38100D03*
X444800Y38100D03*
X479800Y38100D03*
X514800Y38100D03*
D28*
X443484Y523240D02*
X430276Y523240D01*
X430276Y497840D02*
X443484Y497840D01*
X443484Y472440D02*
X430276Y472440D01*
D13*
X394580Y462280D03*
X377580Y462280D03*
X478400Y314960D03*
X461400Y314960D03*
X145660Y281940D03*
X128660Y281940D03*
D29*
X467360Y417800D03*
X467360Y445800D03*
D23*
X228600Y397900D03*
X228600Y414900D03*
D30*
X63500Y384660D03*
X63500Y419660D03*
X63500Y454660D03*
X63500Y489660D03*
X63500Y524660D03*
X546100Y524660D03*
X546100Y489660D03*
X546100Y454660D03*
X546100Y419660D03*
X546100Y384660D03*
X546100Y335000D03*
X546100Y300000D03*
X63500Y300000D03*
X63500Y335000D03*
D31*
X196926Y339090D03*
X292100Y316230D03*
X355600Y316230D03*
X120650Y339090D03*
X111760Y271780D03*
X556260Y90170D03*
X492760Y342900D03*
X414020Y320040D03*
X414020Y289560D03*
X120650Y431800D03*
X241300Y472440D03*
X325120Y487680D03*
X374650Y529590D03*
X397510Y406400D03*
X289560Y556260D03*
X429260Y401320D03*
X274320Y472440D03*
X228600Y430530D03*
X325120Y472440D03*
X350520Y436880D03*
X414020Y304800D03*
X444500Y304800D03*
X337820Y304800D03*
X322580Y289560D03*
X43180Y538480D03*
X279400Y450850D03*
X304800Y450850D03*
X306070Y482600D03*
M02*
