G04 EAGLE Gerber RS-274X export*
G75*
%MOMM*%
%FSLAX34Y34*%
%LPD*%
%INSoldermask Bottom*%
%IPPOS*%
%AMOC8*
5,1,8,0,0,1.08239X$1,22.5*%
G01*
%ADD10C,3.203200*%
%ADD11R,1.511200X1.511200*%
%ADD12C,1.727200*%
%ADD13R,2.003200X2.003200*%
%ADD14C,1.524000*%
%ADD15R,2.153200X2.153200*%
%ADD16C,1.209600*%


D10*
X34798Y241300D03*
X574802Y241300D03*
D11*
X134620Y523240D03*
X210820Y472440D03*
X134620Y472440D03*
X210820Y523240D03*
X210820Y497840D03*
X134620Y497840D03*
D12*
X254000Y414020D02*
X254000Y398780D01*
X279400Y398780D02*
X279400Y414020D01*
X304800Y414020D02*
X304800Y398780D01*
X330200Y398780D02*
X330200Y414020D01*
X355600Y414020D02*
X355600Y398780D01*
D13*
X94800Y38100D03*
X129800Y38100D03*
X164800Y38100D03*
X199800Y38100D03*
X234800Y38100D03*
X269800Y38100D03*
X304800Y38100D03*
X339800Y38100D03*
X374800Y38100D03*
X409800Y38100D03*
X444800Y38100D03*
X479800Y38100D03*
X514800Y38100D03*
D14*
X443484Y523240D02*
X430276Y523240D01*
X430276Y497840D02*
X443484Y497840D01*
X443484Y472440D02*
X430276Y472440D01*
D15*
X63500Y384660D03*
X63500Y419660D03*
X63500Y454660D03*
X63500Y489660D03*
X63500Y524660D03*
X546100Y524660D03*
X546100Y489660D03*
X546100Y454660D03*
X546100Y419660D03*
X546100Y384660D03*
X546100Y335000D03*
X546100Y300000D03*
X63500Y300000D03*
X63500Y335000D03*
D16*
X196926Y339090D03*
X292100Y316230D03*
X355600Y316230D03*
X120650Y339090D03*
X111760Y271780D03*
X556260Y90170D03*
X492760Y342900D03*
X414020Y320040D03*
X414020Y289560D03*
X120650Y431800D03*
X241300Y472440D03*
X325120Y487680D03*
X374650Y529590D03*
X397510Y406400D03*
X289560Y556260D03*
X429260Y401320D03*
X274320Y472440D03*
X228600Y430530D03*
X325120Y472440D03*
X350520Y436880D03*
X414020Y304800D03*
X444500Y304800D03*
X337820Y304800D03*
X322580Y289560D03*
X43180Y538480D03*
X279400Y450850D03*
X304800Y450850D03*
X306070Y482600D03*
M02*
